<mxfile host="Electron" modified="2023-07-08T10:25:04.319Z" agent="Mozilla/5.0 (Macintosh; Intel Mac OS X 10_15_7) AppleWebKit/537.36 (KHTML, like Gecko) draw.io/21.5.1 Chrome/112.0.5615.204 Electron/24.6.0 Safari/537.36" etag="qPkTpKub0LOehzlJhzON" version="21.5.1" type="device">
  <diagram id="_MH-0TDwc2VSXtAEvWIN" name="Page-1">
    <mxGraphModel dx="1114" dy="854" grid="1" gridSize="10" guides="1" tooltips="1" connect="1" arrows="1" fold="1" page="1" pageScale="1" pageWidth="827" pageHeight="1169" math="0" shadow="0">
      <root>
        <mxCell id="0" />
        <mxCell id="1" value="Region" style="locked=1;" parent="0" />
        <mxCell id="May9Rr6_w719RnQTlXSZ-1" value="Oracle Cloud Infrastructure (Region)" style="whiteSpace=wrap;html=1;shadow=0;fillColor=#f5f5f5;strokeColor=#666666;fontColor=#333333;rounded=0;glass=0;sketch=0;fontSize=16;verticalAlign=top;" parent="1" vertex="1">
          <mxGeometry x="30" y="40" width="890" height="670" as="geometry" />
        </mxCell>
        <mxCell id="2ajBnn2R3j9RgTrEd4us-460" value="Internet" style="aspect=fixed;perimeter=ellipsePerimeter;html=1;align=center;shadow=0;dashed=0;spacingTop=3;image;image=img/lib/active_directory/internet_cloud.svg;labelBackgroundColor=none;sketch=0;fillStyle=auto;fontSize=12;fontColor=#000000;fillColor=#FCFCFC;" parent="1" vertex="1">
          <mxGeometry x="810" y="510" width="100" height="63" as="geometry" />
        </mxCell>
        <mxCell id="May9Rr6_w719RnQTlXSZ-8" value="AD1" style="locked=1;" parent="0" />
        <mxCell id="May9Rr6_w719RnQTlXSZ-9" value="&lt;font color=&quot;#ffffff&quot;&gt;Availability Domain 1&lt;/font&gt;" style="whiteSpace=wrap;html=1;shadow=0;fillColor=#C74635;strokeColor=#6c8ebf;verticalAlign=top;fontStyle=1" parent="May9Rr6_w719RnQTlXSZ-8" vertex="1">
          <mxGeometry x="180" y="90" width="160" height="580" as="geometry" />
        </mxCell>
        <mxCell id="May9Rr6_w719RnQTlXSZ-10" value="AD2" style="locked=1;" parent="0" />
        <mxCell id="May9Rr6_w719RnQTlXSZ-11" value="&lt;font style=&quot;&quot; color=&quot;#ffffff&quot;&gt;Availability Domain 2&lt;/font&gt;" style="whiteSpace=wrap;html=1;shadow=0;fillColor=#C74635;strokeColor=#6c8ebf;verticalAlign=top;fontStyle=1" parent="May9Rr6_w719RnQTlXSZ-10" vertex="1">
          <mxGeometry x="350" y="90" width="160" height="580" as="geometry" />
        </mxCell>
        <mxCell id="May9Rr6_w719RnQTlXSZ-12" value="AD3" style="locked=1;" parent="0" />
        <mxCell id="May9Rr6_w719RnQTlXSZ-13" value="&lt;font color=&quot;#ffffff&quot;&gt;Availability Domain 3&lt;/font&gt;" style="whiteSpace=wrap;html=1;shadow=0;fillColor=#C74635;strokeColor=#6c8ebf;verticalAlign=top;fontStyle=1" parent="May9Rr6_w719RnQTlXSZ-12" vertex="1">
          <mxGeometry x="520" y="90" width="160" height="580" as="geometry" />
        </mxCell>
        <mxCell id="May9Rr6_w719RnQTlXSZ-14" value="AD1-FD1" style="locked=1;" parent="0" />
        <mxCell id="May9Rr6_w719RnQTlXSZ-15" value="Fault Domain" style="whiteSpace=wrap;html=1;shadow=0;fontStyle=1;verticalAlign=top;" parent="May9Rr6_w719RnQTlXSZ-14" vertex="1">
          <mxGeometry x="200" y="120" width="120" height="540" as="geometry" />
        </mxCell>
        <mxCell id="May9Rr6_w719RnQTlXSZ-16" value="AD2-FD1" style="locked=1;" parent="0" />
        <mxCell id="May9Rr6_w719RnQTlXSZ-17" value="Fault Domain" style="whiteSpace=wrap;html=1;shadow=0;fontStyle=1;verticalAlign=top;" parent="May9Rr6_w719RnQTlXSZ-16" vertex="1">
          <mxGeometry x="370" y="120" width="120" height="540" as="geometry" />
        </mxCell>
        <mxCell id="May9Rr6_w719RnQTlXSZ-18" value="AD3-FD1" style="locked=1;" parent="0" />
        <mxCell id="May9Rr6_w719RnQTlXSZ-19" value="Fault Domain" style="whiteSpace=wrap;html=1;shadow=0;fontStyle=1;verticalAlign=top;" parent="May9Rr6_w719RnQTlXSZ-18" vertex="1">
          <mxGeometry x="540" y="120" width="120" height="540" as="geometry" />
        </mxCell>
        <mxCell id="May9Rr6_w719RnQTlXSZ-2" value="VCN" style="locked=1;" parent="0" />
        <mxCell id="May9Rr6_w719RnQTlXSZ-3" value="&lt;font style=&quot;font-size: 14px;&quot;&gt;&lt;b style=&quot;&quot;&gt;&lt;font color=&quot;#007fff&quot;&gt;VCN&lt;/font&gt;&lt;/b&gt;&lt;br&gt;&lt;/font&gt;&lt;div style=&quot;&quot;&gt;&lt;span style=&quot;background-color: initial;&quot;&gt;&lt;font style=&quot;font-size: 12px;&quot;&gt;10.X.0.0/16&lt;/font&gt;&lt;/span&gt;&lt;/div&gt;" style="whiteSpace=wrap;html=1;rounded=0;shadow=0;glass=0;sketch=0;strokeWidth=2;fillColor=none;dashed=1;strokeColor=#7EA6E0;labelPosition=center;verticalLabelPosition=middle;align=left;verticalAlign=top;" parent="May9Rr6_w719RnQTlXSZ-2" vertex="1">
          <mxGeometry x="59" y="150" width="710" height="530" as="geometry" />
        </mxCell>
        <mxCell id="May9Rr6_w719RnQTlXSZ-4" value="Public Subnet" style="locked=1;" parent="0" />
        <mxCell id="May9Rr6_w719RnQTlXSZ-5" value="&lt;font size=&quot;1&quot;&gt;&lt;b style=&quot;font-size: 14px;&quot;&gt;&lt;font color=&quot;#007fff&quot;&gt;Public&lt;/font&gt;&lt;font color=&quot;#007fff&quot;&gt;&amp;nbsp;Subnet&lt;/font&gt;&lt;br&gt;&lt;/b&gt;&lt;/font&gt;&lt;i&gt;Control Plane&lt;br&gt;&lt;/i&gt;&lt;div style=&quot;&quot;&gt;&lt;span style=&quot;background-color: initial;&quot;&gt;10.X.0.16/29&lt;/span&gt;&lt;/div&gt;" style="whiteSpace=wrap;html=1;rounded=0;shadow=0;glass=0;sketch=0;strokeWidth=2;fillColor=#FCFCFC;dashed=1;strokeColor=#7EA6E0;labelPosition=center;verticalLabelPosition=middle;align=left;verticalAlign=top;movable=1;resizable=1;rotatable=1;deletable=1;editable=1;connectable=1;" parent="May9Rr6_w719RnQTlXSZ-4" vertex="1">
          <mxGeometry x="68" y="440" width="691" height="100" as="geometry" />
        </mxCell>
        <mxCell id="2ajBnn2R3j9RgTrEd4us-2" value="&lt;font color=&quot;#007fff&quot; size=&quot;1&quot;&gt;&lt;b style=&quot;font-size: 14px;&quot;&gt;Public Subnet&lt;br&gt;&lt;/b&gt;&lt;/font&gt;&lt;i&gt;Load Balancer&lt;br&gt;&lt;/i&gt;&lt;div style=&quot;&quot;&gt;&lt;span style=&quot;background-color: initial;&quot;&gt;10.X.2.32/27&lt;/span&gt;&lt;/div&gt;" style="whiteSpace=wrap;html=1;rounded=0;shadow=0;glass=0;sketch=0;strokeWidth=2;fillColor=#FCFCFC;dashed=1;strokeColor=#7EA6E0;labelPosition=center;verticalLabelPosition=middle;align=left;verticalAlign=top;movable=1;resizable=1;rotatable=1;deletable=1;editable=1;connectable=1;" parent="May9Rr6_w719RnQTlXSZ-4" vertex="1">
          <mxGeometry x="68" y="550" width="691" height="100" as="geometry" />
        </mxCell>
        <mxCell id="May9Rr6_w719RnQTlXSZ-7" value="&lt;font style=&quot;font-size: 14px;&quot;&gt;&lt;b style=&quot;&quot;&gt;&lt;font color=&quot;#007fff&quot;&gt;Public&lt;/font&gt;&lt;font color=&quot;#007fff&quot;&gt;&amp;nbsp;Subnet&lt;/font&gt;&lt;br&gt;&lt;/b&gt;&lt;/font&gt;&lt;i&gt;Data Layer&lt;br&gt;&lt;/i&gt;10.X.0.24/29" style="whiteSpace=wrap;html=1;rounded=0;shadow=0;glass=0;sketch=0;strokeWidth=2;fillColor=#FCFCFC;dashed=1;strokeColor=#7EA6E0;labelPosition=center;verticalLabelPosition=middle;align=left;verticalAlign=top;imageAspect=0;fillStyle=auto;" parent="May9Rr6_w719RnQTlXSZ-4" vertex="1">
          <mxGeometry x="68" y="200" width="691" height="110" as="geometry" />
        </mxCell>
        <mxCell id="2ajBnn2R3j9RgTrEd4us-457" style="edgeStyle=orthogonalEdgeStyle;rounded=0;orthogonalLoop=1;jettySize=auto;html=1;exitX=0.5;exitY=1;exitDx=0;exitDy=0;fontSize=12;fontColor=#FFFFFF;" parent="May9Rr6_w719RnQTlXSZ-4" source="May9Rr6_w719RnQTlXSZ-1" target="May9Rr6_w719RnQTlXSZ-1" edge="1">
          <mxGeometry relative="1" as="geometry" />
        </mxCell>
        <mxCell id="May9Rr6_w719RnQTlXSZ-6" value="Private Subnet" style="locked=1;" parent="0" />
        <mxCell id="2ajBnn2R3j9RgTrEd4us-1" value="&lt;font style=&quot;font-size: 14px;&quot;&gt;&lt;b style=&quot;&quot;&gt;&lt;font color=&quot;#007fff&quot;&gt;Private Subnet&lt;/font&gt;&lt;br&gt;&lt;/b&gt;&lt;/font&gt;&lt;i&gt;Application Layer&lt;br&gt;&lt;/i&gt;10.X.64.0/18" style="whiteSpace=wrap;html=1;rounded=0;shadow=0;glass=0;sketch=0;strokeWidth=2;fillColor=none;dashed=1;strokeColor=#7EA6E0;labelPosition=center;verticalLabelPosition=middle;align=left;verticalAlign=top;imageAspect=0;" parent="May9Rr6_w719RnQTlXSZ-6" vertex="1">
          <mxGeometry x="68" y="320" width="691" height="110" as="geometry" />
        </mxCell>
        <mxCell id="2ajBnn2R3j9RgTrEd4us-4" value="Resources" style="" parent="0" />
        <mxCell id="2ajBnn2R3j9RgTrEd4us-33" value="" style="group;fillColor=none;" parent="2ajBnn2R3j9RgTrEd4us-4" vertex="1" connectable="0">
          <mxGeometry x="210" y="330" width="90" height="90" as="geometry" />
        </mxCell>
        <mxCell id="2ajBnn2R3j9RgTrEd4us-34" style="vsdxID=53;fillColor=none;gradientColor=none;strokeColor=none;spacingTop=-3;spacingBottom=-3;spacingLeft=-3;spacingRight=-3;points=[];labelBackgroundColor=none;rounded=0;html=1;whiteSpace=wrap;" parent="2ajBnn2R3j9RgTrEd4us-33" vertex="1">
          <mxGeometry width="72" height="58.15384615384615" as="geometry" />
        </mxCell>
        <mxCell id="2ajBnn2R3j9RgTrEd4us-35" style="vsdxID=54;fillColor=none;gradientColor=none;strokeColor=none;spacingTop=-3;spacingBottom=-3;spacingLeft=-3;spacingRight=-3;points=[];labelBackgroundColor=none;rounded=0;html=1;whiteSpace=wrap;" parent="2ajBnn2R3j9RgTrEd4us-34" vertex="1">
          <mxGeometry width="72" height="58.15384615384615" as="geometry" />
        </mxCell>
        <mxCell id="2ajBnn2R3j9RgTrEd4us-36" style="vsdxID=55;fillColor=#FFFFFF;gradientColor=none;shape=stencil(lZPRDoIwDEW/Zq9LWUHCs+J/EAVZRCATFP/eYYdsAzW+td2922mzMtxey6zNmYBrp5pzfpfHrmS4Y0LIusyV7HTEMGW4LRqVn1TT10fK22xUjtGluY03DOSLOEajScCDCknC482rsif9oVdkCEggeIjGEfgWGASVwChMmsQchVGgqzBpEvLQfrWStUUJDuKb+QMhuHgz8ERnteDyTnDWVBzcVTiNvnFnCN/o9Cyi2CUEFy8Ab3xWB+hLfOJVxFnuI3+AnA1L6kEsG/HJB1zOxkNfBf39Hf/V62D++4WsKlod+9zfFV2iPcP0CQ==);strokeColor=none;spacingTop=-3;spacingBottom=-3;spacingLeft=-3;spacingRight=-3;points=[];labelBackgroundColor=none;rounded=0;html=1;whiteSpace=wrap;" parent="2ajBnn2R3j9RgTrEd4us-35" vertex="1">
          <mxGeometry x="0.8571428571428571" y="0.6923076923076923" width="70.28571428571428" height="56.76923076923077" as="geometry" />
        </mxCell>
        <mxCell id="2ajBnn2R3j9RgTrEd4us-37" style="vsdxID=56;fillColor=#FFFFFF;gradientColor=none;shape=stencil(lZXRdoIwDIafprc9aUMpvXb6Hp6JgzMmHsSNvf1gLbQNCHpX4h/88iehDHe34njNmYRb29Sf+U95aguGb0zK8lLkTdn2J4Z7hrtz3eQfTX2/nOzz9Tgoh9NX/T28obN5BjmqIUvCr41Ijtl/4GD17/fGJgiXoXhiXIYgKdBJJ9IcR5ELJVy6SIdzkQulPMHwz6vyEsIGCRN+JlZpgxRfgFEEN6jJV5ClhDfwCqlqEbgvR8S8VE95e5c0wdU8lTFu77cmtIprEdMGIs+v9GPYIGG5GZQ1SBCzHstZPXI2LDhzCZdnkIzB5sy+qt/aCXihxbBuWaZiyyD2C6hZdAghdmp9YSAi21wWYHTyREInb+J3EQHANro5Sh41R8U7TeQLGy2Ih56BQgXbPJWCVPPcenj9c9thDNcp/U5O3Ry5Um5EjErsXPjorLu5Nrr9wV8E57Kq7D0S/k4vjj5kLx3c/wE=);strokeColor=none;spacingTop=-3;spacingBottom=-3;spacingLeft=-3;spacingRight=-3;points=[];labelBackgroundColor=none;rounded=0;html=1;whiteSpace=wrap;" parent="2ajBnn2R3j9RgTrEd4us-35" vertex="1">
          <mxGeometry width="72" height="58.15384615384615" as="geometry" />
        </mxCell>
        <mxCell id="2ajBnn2R3j9RgTrEd4us-38" style="vsdxID=57;fillColor=none;gradientColor=none;strokeColor=none;spacingTop=-3;spacingBottom=-3;spacingLeft=-3;spacingRight=-3;points=[];labelBackgroundColor=none;rounded=0;html=1;whiteSpace=wrap;" parent="2ajBnn2R3j9RgTrEd4us-34" vertex="1">
          <mxGeometry x="1.7142857142857142" y="1.3846153846153846" width="68.57142857142857" height="55.38461538461538" as="geometry" />
        </mxCell>
        <mxCell id="2ajBnn2R3j9RgTrEd4us-39" style="vsdxID=58;fillColor=#2d5967;gradientColor=none;shape=stencil(lZXLcoMwDEW/xlvGWDzidZr8R6YhhSmFDCEt+ftCbbAkB+Lu/LgyR/IVFrC/ladrIZS89V37WfxU574U8CaUqpqy6Kp+HAk4CNhf2q746Np7czbz62lSTqOv9ns6YTBxOo3SeIpS8mFW5N/saMR11SBxEqlkXft+78zJsdmMI62tOsZyOSgyfdipsrtAd2H5drpOJgmWzra4JIXSO0qFsOcVKSkaqgNQyVO4scZ5RgCZnBPqXSRjSukYONRMueQBXAAOY6OETv+84B6kno9bIBVF1LnLm175AL774KX9XniVGTtzNVzJ38so88puneRSSr2UxihbqK20nCqsszw9hwWvuzCImkV5wmkpKlKE2QQFhPkEBdiVhEPyhoPFWesdB5uUfstxfcDlIwx01+z6EwqKFUF/rgCf/jtgHLj//aWqa/Nc4H3+PoxL5m2Bwy8=);strokeColor=none;spacingTop=-3;spacingBottom=-3;spacingLeft=-3;spacingRight=-3;points=[];labelBackgroundColor=none;rounded=0;html=1;whiteSpace=wrap;" parent="2ajBnn2R3j9RgTrEd4us-38" vertex="1">
          <mxGeometry width="68.57142857142857" height="55.38461538461538" as="geometry" />
        </mxCell>
        <mxCell id="2ajBnn2R3j9RgTrEd4us-40" style="vsdxID=59;fillColor=#2d5967;gradientColor=none;shape=stencil(pZJbDsIgFERXwy+hQBW/a91Hk1IhIjQUX7sXcmNsNaWx/s1wz32EDGLVoJpeIkqG4N1J3nQbFGJ7RKm2SnodokKsRqzqnJdH7y62Bd83iUzq7K5pwh36SOqg5AGuIOAPgBptR+iruArOoCvB7PosOv0BjkUxpTdYlPOjdxyXf/GCY7qd57/u+ZVfuGeZj+Idl04bA2kb1z/jFZ8gmqx+Ag==);strokeColor=none;spacingTop=-3;spacingBottom=-3;spacingLeft=-3;spacingRight=-3;points=[];labelBackgroundColor=none;rounded=0;html=1;whiteSpace=wrap;" parent="2ajBnn2R3j9RgTrEd4us-38" vertex="1">
          <mxGeometry x="9.428571428571429" y="35.30769230769231" width="49.714285714285715" height="11.76923076923077" as="geometry" />
        </mxCell>
        <mxCell id="2ajBnn2R3j9RgTrEd4us-41" style="vsdxID=60;fillColor=#2d5967;gradientColor=none;shape=stencil(jVLRDoMgDPwaXg2UOeezc/9hJk4ypwZ107+fpCRClxnf2nLH9eCYzIa66BUDPoyme6qPLseaySsD0G2tjB7XismcyazqjHqYbmpL7PvCIm316t72hhl5MbcU4Au2gmN/Q+x9MggWeJwk0Vk4gggZfAYyWGAjgcNIinGDUxql6Z7yxnADgEheQmV/OzfioW5MZHfNWoUkFCVWiVF/JRkijtokJv2ng9+t6Iv/s0l+tdHt4QSsxRadSjcNJs8/p1FbRxhTmX8B);strokeColor=none;spacingTop=-3;spacingBottom=-3;spacingLeft=-3;spacingRight=-3;points=[];labelBackgroundColor=none;rounded=0;html=1;whiteSpace=wrap;" parent="2ajBnn2R3j9RgTrEd4us-38" vertex="1">
          <mxGeometry x="48.857142857142854" y="40.15384615384615" width="3.4285714285714284" height="2.769230769230769" as="geometry" />
        </mxCell>
        <mxCell id="2ajBnn2R3j9RgTrEd4us-42" style="vsdxID=61;fillColor=#2d5967;gradientColor=none;shape=stencil(pZLbDsIgEES/Zl8JZW3E51r/o0mpEBEa2nr5e0Fi2qrpRd92Z8+QCRnArJFFLYDRpnX2JK6qbCXgHhhTRgqnWj8B5oBZZZ04OtuZMu51Ecgwne0lvHCLvh0nnAcXo/eo0Od2iLBWZgDT38CETqCv4yJ4VdoZePwPHEmyGcFBSSdyp2SL/xl65avhM9Jqw0ykBQY/9NWplNaxecP7e9W8FGuK+QM=);strokeColor=none;spacingTop=-3;spacingBottom=-3;spacingLeft=-3;spacingRight=-3;points=[];labelBackgroundColor=none;rounded=0;html=1;whiteSpace=wrap;" parent="2ajBnn2R3j9RgTrEd4us-38" vertex="1">
          <mxGeometry x="9.428571428571429" y="7.615384615384614" width="14.571428571428575" height="11.76923076923077" as="geometry" />
        </mxCell>
        <mxCell id="2ajBnn2R3j9RgTrEd4us-43" style="vsdxID=62;fillColor=#2d5967;gradientColor=none;shape=stencil(pZJJDoMwDEVP422UxGXYU3oPJEKJmhIUoMPtm8iqCnSE7vzj920r+oBZVxetAsm73tmDOuuyrwG3IKVuauV07yvAHDCrrFN7Z4emJN0WgQzV0Z7ChAv5BOfBI/mVNKkdoUY3I3QleN/wEp2vXwSvRac/kG6YTCZwikxEH2bHLI3/M4iIJfje8HzSYsOXk34w+OIRmkobQ5kb9+ch808UUMxv);strokeColor=none;spacingTop=-3;spacingBottom=-3;spacingLeft=-3;spacingRight=-3;points=[];labelBackgroundColor=none;rounded=0;html=1;whiteSpace=wrap;" parent="2ajBnn2R3j9RgTrEd4us-38" vertex="1">
          <mxGeometry x="26.57142857142857" y="7.615384615384614" width="14.571428571428575" height="11.76923076923077" as="geometry" />
        </mxCell>
        <mxCell id="2ajBnn2R3j9RgTrEd4us-44" style="vsdxID=63;fillColor=#2d5967;gradientColor=none;shape=stencil(pZLbDsIgEES/Zl8JZW3E51r/o0mpEBEa2nr5e0Fi2qrpRd92Z8+QCRnArJFFLYDRpnX2JK6qbCXgHhhTRgqnWj8B5oBZZZ04OtuZMu51Ecgwne0lvHCLvh0nnAcXo/eo0Od2iLBWZgDT38CETqCv4yJ4VdoZePwPHEmyGcFBSSdyp2SL/xl65avhM9Jqw0ykBQY/9NWplNaxecP7e9W8FGuK+QM=);strokeColor=none;spacingTop=-3;spacingBottom=-3;spacingLeft=-3;spacingRight=-3;points=[];labelBackgroundColor=none;rounded=0;html=1;whiteSpace=wrap;" parent="2ajBnn2R3j9RgTrEd4us-38" vertex="1">
          <mxGeometry x="9.428571428571429" y="21.46153846153846" width="14.571428571428575" height="11.76923076923077" as="geometry" />
        </mxCell>
        <mxCell id="2ajBnn2R3j9RgTrEd4us-45" style="vsdxID=64;fillColor=#2d5967;gradientColor=none;shape=stencil(pZJJDoMwDEVP422UxGXYU3oPJEKJmhIUoMPtm8iqCnSE7vzj920r+oBZVxetAsm73tmDOuuyrwG3IKVuauV07yvAHDCrrFN7Z4emJN0WgQzV0Z7ChAv5BOfBI/mVNKkdoUY3I3QleN/wEp2vXwSvRac/kG6YTCZwikxEH2bHLI3/M4iIJfje8HzSYsOXk34w+OIRmkobQ5kb9+ch808UUMxv);strokeColor=none;spacingTop=-3;spacingBottom=-3;spacingLeft=-3;spacingRight=-3;points=[];labelBackgroundColor=none;rounded=0;html=1;whiteSpace=wrap;" parent="2ajBnn2R3j9RgTrEd4us-38" vertex="1">
          <mxGeometry x="26.57142857142857" y="21.46153846153846" width="14.571428571428575" height="11.76923076923077" as="geometry" />
        </mxCell>
        <mxCell id="2ajBnn2R3j9RgTrEd4us-46" style="vsdxID=65;fillColor=#2d5967;gradientColor=none;shape=stencil(pZJJDoMwDEVP422UxGXYU3oPJEKJmhIUoMPtm8iqCnSE7vzj920r+oBZVxetAsm73tmDOuuyrwG3IKVuauV07yvAHDCrrFN7Z4emJN0WgQzV0Z7ChAv5BOfBI/mVNKkdoUY3I3QleN/wEp2vXwSvRac/kG6YTCZwikxEH2bHLI3/M4iIJfje8HzSYsOXk34w+OIRmkobQ5kb9+ch808UUMxv);strokeColor=none;spacingTop=-3;spacingBottom=-3;spacingLeft=-3;spacingRight=-3;points=[];labelBackgroundColor=none;rounded=0;html=1;whiteSpace=wrap;" parent="2ajBnn2R3j9RgTrEd4us-38" vertex="1">
          <mxGeometry x="43.714285714285715" y="7.615384615384614" width="14.571428571428575" height="11.76923076923077" as="geometry" />
        </mxCell>
        <mxCell id="2ajBnn2R3j9RgTrEd4us-47" style="vsdxID=66;fillColor=#2d5967;gradientColor=none;shape=stencil(pZJJDoMwDEVP422UxGXYU3oPJEKJmhIUoMPtm8iqCnSE7vzj920r+oBZVxetAsm73tmDOuuyrwG3IKVuauV07yvAHDCrrFN7Z4emJN0WgQzV0Z7ChAv5BOfBI/mVNKkdoUY3I3QleN/wEp2vXwSvRac/kG6YTCZwikxEH2bHLI3/M4iIJfje8HzSYsOXk34w+OIRmkobQ5kb9+ch808UUMxv);strokeColor=none;spacingTop=-3;spacingBottom=-3;spacingLeft=-3;spacingRight=-3;points=[];labelBackgroundColor=none;rounded=0;html=1;whiteSpace=wrap;" parent="2ajBnn2R3j9RgTrEd4us-38" vertex="1">
          <mxGeometry x="43.714285714285715" y="21.46153846153846" width="14.571428571428575" height="11.76923076923077" as="geometry" />
        </mxCell>
        <mxCell id="2ajBnn2R3j9RgTrEd4us-48" value="&lt;div style=&quot;&quot;&gt;&lt;p style=&quot;margin: 0px; text-indent: 0px; direction: ltr;&quot;&gt;&lt;font style=&quot;font-size: 12px;&quot; face=&quot;Oracle Sans&quot;&gt;Worker Node&lt;/font&gt;&lt;/p&gt;&lt;/div&gt;" style="verticalAlign=middle;align=center;vsdxID=68;fillColor=none;gradientColor=none;shape=stencil(nZBLDoAgDERP0z3SIyjew0SURgSD+Lu9kMZoXLhwN9O+tukAlrNpJg1SzDH4QW/URgNYgZTkjA4UkwJUgGXng+6DX1zLfmoymdXo17xh5zmRJ6Q42BWCfc2oJfdAr+Yv+AP9Cb7OJ3H/2JG1HNGz/84klThPVCc=);strokeColor=none;spacingTop=-3;spacingBottom=-3;spacingLeft=-3;spacingRight=-3;points=[];labelBackgroundColor=none;rounded=0;html=1;whiteSpace=wrap;" parent="2ajBnn2R3j9RgTrEd4us-33" vertex="1">
          <mxGeometry x="3.4285714285714284" y="61.61538461538462" width="65.14285714285714" height="28.384615384615387" as="geometry" />
        </mxCell>
        <mxCell id="2ajBnn2R3j9RgTrEd4us-131" value="" style="sketch=0;html=1;dashed=0;whitespace=wrap;fillColor=#2875E2;strokeColor=#ffffff;points=[[0.005,0.63,0],[0.1,0.2,0],[0.9,0.2,0],[0.5,0,0],[0.995,0.63,0],[0.72,0.99,0],[0.5,1,0],[0.28,0.99,0]];verticalLabelPosition=bottom;align=center;verticalAlign=top;shape=mxgraph.kubernetes.icon;prIcon=pod;fontSize=14;" parent="2ajBnn2R3j9RgTrEd4us-33" vertex="1">
          <mxGeometry x="45" y="21" width="45" height="48" as="geometry" />
        </mxCell>
        <mxCell id="2ajBnn2R3j9RgTrEd4us-81" style="vsdxID=21;fillColor=none;gradientColor=none;strokeColor=none;spacingTop=-3;spacingBottom=-3;spacingLeft=-3;spacingRight=-3;points=[];labelBackgroundColor=none;rounded=0;html=1;whiteSpace=wrap;fontSize=14;" parent="2ajBnn2R3j9RgTrEd4us-4" vertex="1">
          <mxGeometry x="394" y="215" width="110" height="90" as="geometry" />
        </mxCell>
        <mxCell id="2ajBnn2R3j9RgTrEd4us-82" style="vsdxID=22;fillColor=#FFFFFF;gradientColor=none;shape=stencil(lVbbVhsxDPyafdWxJF+fKfwHB0Kzp2nCCaGFv6/T9VXZC7xtHMkjj8ZjDXz3tn983Q2k3i7n06/d3/H5sh/4x0A0Hve783iJXwPfD3z3cjrvfp5P78fn6ffr4zXy+vX79Oe6w8eUpy1YvGaR+pxWUKn/vx+m8Kf38xSPKUGB0ikB+wz1QdMCM9iQYtJSCEAuRfG0RAEUpai0FDwos4ZOBN736MEC6x4fAzgBHyuyPXwTlNG7gx/GY8NTEz0tGA2Wl+PVt4KB+h4YBcGv8aDAm54GjRBMT4MB7llgDWgECwQUehp4tf/I4FwP3TSydECDF+DkwMgWGCDTg8eikx6X8GO7scfHRlsZTAEK/Fh4EAI0lfdcEYK2qwJ0wCzgFegg4EORW1EgOHF6jtQLAeaYBfCYYQV4s229fLSNXcj4MnbUDm5ia2DaxNZg+JvgtlrFMngUmMQuuszYHlgozsHqTWvuVYZmQCG36KJenLsRRQIyBCgavmI40TIo++xMsCzTEihhjKpskMu0kRBhjNEjhC07yleg3goGvXopY44VptBctwTlGJR4FbD4YoVnMIKlaBOJuCX4iCXfJFMcsuBrcBLfFUIK/owpbL1KHsHI4/viqxnfu2q12SeiJIRKggLre3wqe80qpc0oCUavJGC1UGFF82+f6l8zXaqe396Uq5kTCs3zCVEYfT06i2eB8PYEWO4Liob7KFvfE24RHIqG18RMeI36uuDanelWyiv4XM+yhN/z1Wakk24ZaJuChXUtC1ZllCoWakHUaznPJtW+NzzUhOr4Gf32zTbRV0W76mTJt+Mq9zGzVG2Ot/GjjsYv4+EwTdbt/3KUjkvTGM73/wA=);strokeColor=none;spacingTop=-3;spacingBottom=-3;spacingLeft=-3;spacingRight=-3;points=[];labelBackgroundColor=none;rounded=0;html=1;whiteSpace=wrap;fontSize=14;" parent="2ajBnn2R3j9RgTrEd4us-81" vertex="1">
          <mxGeometry x="-0.9016393442622951" y="-9.9" width="73.93442622950819" height="63.9" as="geometry" />
        </mxCell>
        <mxCell id="2ajBnn2R3j9RgTrEd4us-83" style="vsdxID=23;fillColor=#FFFFFF;gradientColor=none;shape=stencil(pVnJchs5DP0aXVkkwfWc5T9SiTNWjWOnFCdx/n6g6eb2oCbtyk2iAD4S2wOoE737cf/p+93J6h/Pl6d/736fvzzfn+j9ydrz4/3d5fzMn0704UTvvj5d7v65PP18/LJ9//7pKnn99O3p13WHl03PkzJXJav/bAtWUfp/4eMm/vnnZZM32+9BK+92DQMq+sXuQlEZvwvtS7yyq73QvqKVC7vQvmScimGGzjopjujGKwfw0SidRngTlMmAb1TIgB9UiFN8q4wB/Ciuz1KZAD+pZACflPeAn1f3ZwEP+FWn4ievCPAtg8URPyXlaMS3Wdnc4z+cH7tgSfxz8di2QiV8bspnNs0YXQ7DCxScCjQqVO/eVjDK2FHBlFsdmDBzAI8W9EZlMKBVCeKX495iAEsHNqnjAKqhYeTOLYCq4Sb4MoCDPrZVL14jIJnpaTsVUy0e4njakJWG07IjtR9PG0iEW0bnIr7nAybADwLfs7cy4HdJuYO5oBxYq0kd4DvdComRO+9gxJdF/O6ULbcwWpb356zNUO56y5bcNspCueu9RFKKDvw/BkyvAWxxW17Z+CZxB7trFafh2Liq+EdST1QWSh9BIBpSwY2GIFPY4QCZScZCIpAWvMP04bHuJlF3WSoDvg2LosUkkyEQbbXWLBD44BF4h8E0JCKbhKb4fA2kPWl6toiJAN9KazE1ux1uX4WO3N5VYyP2LeBcXtbg1OrJa8G75D4Gdwr5XmI7hWy/guaeJSyhY20sOmzsdSjXqlGLz6LV4NzygO4FUbmovB3R2VlhBOf6jDzFK/a4MvQKOw4cdiWP+wtisYLYZDzf4BUraKVroAlkbp911XBDf+4aa2wrE4b3oqTOhLl+mb8QXjQ618YNwkerDMzF/Ao5K9tUDnAD0RNLiB0njkfaFKxJvg0yhTVrMHdJiz1LkXl9vei2nXQMElsWqyU4NQo+BpfN7Q1w23j0leBWziYS/MrPWKZlZ2tlpVzwc26DQ1miNnE1MsxYK+vE0/jZ1d6pprQvoXuE70S0W9ko9p1H6w9wLmRmxfZgZXqe98DtJG/PozOQlBMkxa6AauY1XH0sDHooCh77iKmwh3Zv1U3O5a+etH+nkGqVOA6zqlJCXJIiN1gBE0zOI+xUgxmW1Lz/JTkOdfHbiqp4/dB6BL8xDBWZoxATzXfbtPBlllVNphfPgcm97d4hKEKz33h1ofoQUuG7tyGSUnTgdpibO439PHZBQKlrcg3q1ANn6SjvG0cW43CDAAd2OC7Ao4htw0Jt04ybKHD1GjPBzSdDtmuKb0JI2MY4NzV6Da5XPhzJ/XGYBAXdqGBPLujGhbyFFnNholsKs+LYR0NVmKZFCiriUCifsviikJQmihY9cpuJ9WD1OMI6Bt9i5eNM/0h2PJOyFCHne+gwRVbS6HEzz+Hy/Fykl0/N8qWu6fQvdTgAsRTWvP49r43c87e3/lWt0jxO/FxVDHhXC+P2M0Th+WNTLSYO/tD+S/h6fnjY/orof8f/Hnhp+9+CPvwH);strokeColor=none;spacingTop=-3;spacingBottom=-3;spacingLeft=-3;spacingRight=-3;points=[];labelBackgroundColor=none;rounded=0;html=1;whiteSpace=wrap;fontSize=14;" parent="2ajBnn2R3j9RgTrEd4us-81" vertex="1">
          <mxGeometry width="75.73770491803279" height="65.7" as="geometry" />
        </mxCell>
        <mxCell id="2ajBnn2R3j9RgTrEd4us-84" style="vsdxID=24;fillColor=#2d5967;gradientColor=none;shape=stencil(pVrbctw2DP2afdWIN5B8TtP/yDRO7alrZxyndf6+2llRBHGw4O70zVEgHhDAwU17Cp9+PH75/nDy64/3t9e/Hv59+vr+eAq/nbx/enl8eHt63/46hc+n8Onb69vDn2+vP1++Xv79/ctZ8vzX36//nE/4uLwXl5DOL/n11/6gLPny5PeL/PPTC5N3tFT6fy+ksHjjhfUu4eX8X1x+Fdr88fPtcl/X3ih5f2N/EvcTPvx+RD9zfxJiU2L9CPu1XL/W/iisQlUJ7cIioH3tB+9YLo3YPiN2WmIcsSfAtCQ/Irs6wh5m911XAdvU+NVNYMNuqoc6wtZ+qu9WE+aucOMQllXcuE78HJgb251XAZ0Xl6fQZYllhM6LiRx9P7ZZAq4dmW38EcsCO/mlhBF7tZATM5Pj8j22NzqRgBWYTOIWTHLLWk1MKl2rpsaImV2PzxZcwQLNjH2MXMLG2YN/XVwkNtrYme7dsIOATsBi2sKzCOgkoQlDy5Fp69J907HltbmUhS0ZZV+bkE9lEcipLkkgg72V+Io2n5SojoAcIMYQGT09QY7MQdeQY1xcGJEJUmdkJGnWXm3sLe9UByEu42zLciQKxhbiEj74nmzCIWUnb56XG34cwb0SaGD1zRpw9WRf3XuoGy5Lu7st1gS5vcNSyax4KGRhO6SYUrS2gip8HjxY3WGkh0nAFdkghAwu34q/wN4Kjoy33tW1J3aXNm8Dx7YxM77JPkUFyNAGTl4oLAh2lepiARSp0UQ+w/nRNNFWKMjd9QKrardoRKiRfYO7fTB/AbzsRbPvTBfL+1rSsVdISaFr2t+jzER6vGgC1UO5fjYvJEd/aqmexpkmZEOUlZxdbzLPJiCWdTyxanWT6rT2AnOkJLvzJmiQlDFnC/aDTS19YwrNIot5GSKQQNeeHR0euyMVHPG2MiVrR8nQLwRnEbKCrc4V0tYXR6RNX2mswjJJq0AF9JXGcjNwpaXjx7Z6g1OSzyMyp88xNhkxPmHbyE23juzZeikrYCtk3eDtQgNZcV8I6NKp7w926WQfX6G0zubmAm1AxBaE10d/2HUWE13kWkywtsrhsY29EcabhOwlNn+1NiRbBEpgq+k6h1hV7voqI1EU+tI6zTY0Ay/MDA6PbTsFVi4OY43INcAkaBW3yih5UxDeyaGp+MhQYk32/kQWFRiicbqgCGGWMe/RLQM8TTs5Ub+rM5Vl8m2PJUahLNZnlWDgZpW3eb1YqJwMDRXrqDL4Ht47poE+rYRR5Nrsh0mgH9oGHtwkVdyeeVxx2Lf2yGdmyz77yfRzOCSgSNCcLCK+ym4UYh4mxQrkDwXIz+/TLAexoVgp2MM5rkQC7r8CiyDmNTkrQnQEuXOHvQjukwPuJiLrTA34DLsJwBezKsxJ05Y0ZljJ9ne4wllwiUtdt9cMPuC6UoH3WFTjCqESYKFhtStcvEnPtvZY1KLIdkHZtilLLzAUjDLgp9qTpMODW87DsqDAJ8VSNNk0Rki5jZcHtuKkCptG/ECTzAqTlC7GIaFw5ZUcrH7A6slNNo1Ky+dkylXSfcIOSklkcocB4Ya5JMpvUyKJxaKwAhtNqwVgL+yXKRM1IxiJVlzHYqtHAfwj96FkfutIAZbQx5l97y4TPfkRlnAZSWZIKsPhcWbDwAQvb0u4f532hnw10HtD2dEzM7ZH846LJptnpeciJf9g+qM85yFNvhsqPCRYeys8JMx9Cg9nV1d4SAJb8hB7ceQheHvCwzzZkCs8zDifKjzM9ST9I3m4i9weG1kkKmWplQkIAZ+To7kVng9Xd78wG9+K/cUX+Vlw6lUIWvD7jMLRMmu8FUcUmRCRoQV/0IAULbPcpHC0KI03krSIxKgwdHpxhaIFuwTJ0qKUaaDp6PEJR+tsL6KQtOJWk3fFbYpL2ngieVrlsgMiFLcLVflGnyFJVFk1lfFVXn7GPsu0M+ntj/7DrW9Pz8+X333x/5c/9NoeXX4kFj7/Bw==);strokeColor=none;spacingTop=-3;spacingBottom=-3;spacingLeft=-3;spacingRight=-3;points=[];labelBackgroundColor=none;rounded=0;html=1;whiteSpace=wrap;fontSize=14;" parent="2ajBnn2R3j9RgTrEd4us-81" vertex="1">
          <mxGeometry x="0.9016393442622951" y="-8.1" width="72.1311475409836" height="62.1" as="geometry" />
        </mxCell>
        <mxCell id="2ajBnn2R3j9RgTrEd4us-85" value="&lt;div style=&quot;font-size: 12px;&quot;&gt;&lt;p style=&quot;margin: 0px; text-indent: 0px; direction: ltr;&quot;&gt;&lt;font style=&quot;font-size: 12px; font-family: &amp;quot;Oracle Sans&amp;quot;; color: rgb(0, 0, 0); direction: ltr; letter-spacing: 0px; line-height: 120%; opacity: 1;&quot;&gt;Autonomous Database&lt;br&gt;Secure Access&lt;/font&gt;&lt;/p&gt;&lt;/div&gt;" style="verticalAlign=middle;align=center;vsdxID=26;fillColor=none;gradientColor=none;shape=stencil(nZBLDoAgDERP0z3SIyjew0SURgSD+Lu9kMZoXLhwN9O+tukAlrNpJg1SzDH4QW/URgNYgZTkjA4UkwJUgGXng+6DX1zLfmoymdXo17xh5zmRJ6Q42BWCfc2oJfdAr+Yv+AP9Cb7OJ3H/2JG1HNGz/84klThPVCc=);strokeColor=none;spacingTop=-3;spacingBottom=-3;spacingLeft=-3;spacingRight=-3;points=[];labelBackgroundColor=none;rounded=0;html=1;whiteSpace=wrap;fontSize=14;" parent="2ajBnn2R3j9RgTrEd4us-81" vertex="1">
          <mxGeometry x="-34.26229508196721" y="54" width="144.2622950819672" height="36" as="geometry" />
        </mxCell>
        <mxCell id="2ajBnn2R3j9RgTrEd4us-92" style="vsdxID=21;fillColor=none;gradientColor=none;strokeColor=none;spacingTop=-3;spacingBottom=-3;spacingLeft=-3;spacingRight=-3;points=[];labelBackgroundColor=none;rounded=0;html=1;whiteSpace=wrap;fontSize=14;" parent="2ajBnn2R3j9RgTrEd4us-4" vertex="1">
          <mxGeometry x="400" y="570" width="110" height="80" as="geometry" />
        </mxCell>
        <mxCell id="2ajBnn2R3j9RgTrEd4us-93" style="vsdxID=22;fillColor=#FFFFFF;gradientColor=none;shape=stencil(lZfbUhsxDIafJrcaW/LxmtL3YEoomaYJE0ILb1+lG8trOeuFu2Ck/WxL+iVv6O71+eFlu0Hzej4df23/7h7Pzxv6tkHcHZ63p92Zf23ofkN3T8fT9ufp+HZ4nP5+ebhYXn79Pv65fOF98osOEl680HxMKymCp/8r3yeH/e4wd8hgUutAQHbZITnA3DokcHnu8OPtNO3JyhdD2VRZspAmiHlHWXLuanVdigg2Xq1IDpiL1XUp+LKjBX7IEF3L9xlybvkBIfiW7wNkavmeYbbls1VMI/7cpyxFwNTy51YoVjGu8xNgHPIdxBYfUj1YYVm5Ebn+DJRavON9hxbP4c9+hHc1ioWfOSldy6cIhlp+Zj62fCLwueVXqwU+IWTNZx91frYi1/FRXT9ZiNTxbRjxEevJ6vkptnwbwCh+QoEVviXJCEn/DIFGfIvVp8TfgUXFR0Bs+ZxYEiUSq+Io6YelIm/qhWm04kvGLgyN53tZcLhxFejbq3AWLHVXkWJ7FeSBfBeKrEoBORRjfgSrlMhaUezCR65XpUQGdCKSCGihF5ulMmClzy27fvWKcRxxdXJX2keVIJZzdXAy5V6XJYjUwanPQbZKSgIpgVEawBJoVA1wEMeBn/tUWXJe8WdWKFY3WkDHp9K7lloQlsyofOpaAJdyUoF3pqhLbYFeMlbunzNmqEHcXIPSIIx9C+bIqh5gk2Rs4c8ngFIL3LubFrg2ZLDahTxw6MYYrkkXlx14yin1+TGXkpvGrNgpfeXr2VfV/9T+s5Hc+pAb8sMKSbwpLQ1JFEYiVBunVIiRcEiGsA6pDOU6isMMjQFQZyjfisqQ2E8JzkvjKPzQTwkrWs5DhG0vbM2Bp9TWHktLX0oQFREeOPIghNaoZiRJs/j9dizmkh/th6u/PQB3WzMC8JQdWodxLw0BUh47dDnQqwRLctA54EGlgJ+NMzUFpSBLVtgR+1LBLZrV0KkhkYtE6XMy0qsLmouvjK2zGXWUHH19c3jsqL47BVl5ZvX6VPLrk/q39oxbd+Af9dX4tNvvp0fn/P/6lclL0wuV7v8B);strokeColor=none;spacingTop=-3;spacingBottom=-3;spacingLeft=-3;spacingRight=-3;points=[];labelBackgroundColor=none;rounded=0;html=1;whiteSpace=wrap;fontSize=14;" parent="2ajBnn2R3j9RgTrEd4us-92" vertex="1">
          <mxGeometry x="0.7635402403773012" y="0.6772486772486773" width="62.61029971093869" height="54.85714285714286" as="geometry" />
        </mxCell>
        <mxCell id="2ajBnn2R3j9RgTrEd4us-94" style="vsdxID=23;fillColor=#FFFFFF;gradientColor=none;shape=stencil(lVrbctw2DP0av3J4vzyn6X9kGqf21I0zjtMmf1+oKwLk4QrafVvLgA4J4nIA6iF8+P706dvjg7ff399e/3r89/nz+9ND+O3B++evT49vz+/06yF8fAgfvry+Pf759vrj6+fL398+bZLbr79f/9ne8POiV7OxedPy9tflSTC+/f/g94v8y/PXUb6a6Cb5ZHI4lm/WlDLJF1O9Ip9NmtfjgikaQDR+XpDjLR2tKIVZwatboC27OitYsNEfP94uRnW7SjHN7yqOV3VRsT89m9530+yPfDNxh/oZdnORveIutT8KdAZFgy/R1DTDR2dSnPGLM77O+DHO4LmYEGbwmIyKnYMJFbCLAejUjAsAXU2YwRPtAsFJaEKHk2qmzCd1pkC+lWYF8gXN/bNxs7dFa5yCsPpzbKYlFcFP8tmaoARM5fDggCSP0Y3UZoTk1AhLhNB0BXSCNISME53ZCbKXQOx+4dla7IJkwB4l4hg+qv5vTYbwS4l3zf4fF/+ndYc241P8BYi/TLHk1PBPBnZPK4oJwr+Y1GZ4OksL4T9mksAHuHv5UX7zc8atHMU3ZlBahwawuDT5rBZlWw2Y5Js3mkdXsTivMEVFgc52dlBaohoCwcQFwWoKzrSIW1BqTEkmpXtMVKqxAc+gaUZyJs+pbvMnzUhkw3kHtpv5yIvJLyCKhkfsxt0Q7MWln67EUOzHITEU+4aPYthLpu2lhQoWBFGuBkO4GZtm+JyMyzM85ciklzGKcUwhWaLT82uyA/zE3suFLJiMKSz1RHOUQQcdwcftb1KYQgvbbcBPYdl/qyf4i/krm5Hx7ZLDyJMdFPI4FE1Ja+rpE13JeYanEC2w/VB6IWB4ivwM5g8USQAvUgf4YWUx45s7vhduNuADvDdhhU8aOnHwXoaG3Veon64Iy+vBaBHdpYVEbTGjnr2LQqOE1WHgu6FsiO8hfSUph76n0w0y11xd7pUnzucVgjWu6EDhikEceGOUUx0MUiAYQ2Y3Ug4kcEdyhF/Fz2RJFvCpE2twIMFAKgxR6kx/ZKIKTt1GAXBWYWyi+B4TQa+okoc8P2JwZ6yeB70Y1fEeCubhIHzT87IjUDmSisCl6Bi9zmQHnX70QXYm+EhlSaphQ0NSFfAjdMMLfhEdJzpYBqW7k1auW3asgx4bKn9WB+vSyVJutoC/lXxoZQNXZmYBSUYN/fjJZVV4YhcVyhA5VgHPr3GpAxRmGVIhSUUwf4MysHAsmF0434njjSyOun6nUOmVJ7rQQ/2QiM7Zjgqp1k0GOfL9QCHglu7zvnHQqfzZuMkqL49SBnfr9EM9Mk6C9t9ETd5K0tqjzRR/LF9CL5yDP2htwxYWMJvSh1lXEFIvb9cVcj9+VijqAOOKizbVg0qD5u0EYGtMHG5BpRt0DEg3qKgj16I+vEGKpfDFElOkNP2SkhfUbn3oIXqFaUuG24YVmGGdqVhhEj8aK4xi3lGDFaxeEpKQfqnRwM5IyGFGjgYbkyhNjnCRrDPztsxWMucYpgO2B5IkZANdSViZYZe5aqmNxs89OIgvLDouLZwsoq8q9/orCyX7g50oalNb7ORU9G2oDJWLql0AQw1gv8R2GUzl3OpWTPauGsvOLnWPMDmFNj4f13KgcMUUFg5iGwBjO+OlFvago7qO/Uzos2/pZ1qf4x3hD5RbeAXSd3KOApMM6tN4aCiEFUcZrXbFIwY9DDod61TgsOTf2E+RVEMCHxZXEKkj/CK5y61v7n7nhVp0/LL28lXOsvOqs+uIxDN1mYdWHtkNGStAKFJmRhJHUjyx74+qcWcJEzsY0rF4JzFIST+L9r+Gj/P2pcAM7FjwMWfm4WaNaf0MXoYjEk6vTzKobia4CyqWkx4zaGsg9kjPAzyVdoy9imO8E/JAcec1PryOQbEenfGfM4SFYdEWslcUFg633dDch8DU5UYa2jjv3diXNPbKG4l0qzD8PaP1zmpEveAd1Mn7m+XmVCb2VilRzS8Tex6QXleocnPJi6xaXbNzGdxOWVvQ+v7YA+26Qurwg6dqABFvnclPtG6mebzX3gAUz94uAhtuYQ6Fhaq3pZJTCxshk9dhztAzWZZ615NZWyeD7WQcQOHeoJJuI3jIpCXK8FaSO46Fi7t2sahRn3HMcJuC5z6iK+hetR0xfF1xcpm7IjSjZwIAyO7sOtrObphD56eHuSDdg0CR5JbrZQ2hNZlz7qSkqfy2ycXFMPHVrFrwco0arKDk/O0GEsYgGUjhmpEjIkTtHFy/sBk+PGjaHuwyFycapiEsrhRPylCQ3mlX0PsMijhIgYvClS9ZkDrSqjpPHGYDHujLOJ+XhBNx/th6T3l8kx+BPREDR+pY189ZttETzCbGfCuXAVGveut0p2h1NWBKd81o8kluGW8DoFCCJvxkC00GuLtC6OzlVgQPrfZqpHkPWXVb4h6YDfQkXgyM5NQR3n0TTl2Yfsh3e1+eX14un/2N/8fv/OjR5RvB8PE/);strokeColor=none;spacingTop=-3;spacingBottom=-3;spacingLeft=-3;spacingRight=-3;points=[];labelBackgroundColor=none;rounded=0;html=1;whiteSpace=wrap;fontSize=14;" parent="2ajBnn2R3j9RgTrEd4us-92" vertex="1">
          <mxGeometry width="64.1373801916933" height="56.888888888888886" as="geometry" />
        </mxCell>
        <mxCell id="2ajBnn2R3j9RgTrEd4us-95" style="vsdxID=24;fillColor=#2d5967;gradientColor=none;shape=stencil(lVPLUsMwDPwaXzWSLb/Opf2PDk2Jh5B00hTavyfBNsQwNXCT5V3tWpaE2pzb/akREs/TODw3b+EwtUI9CClD3zZjmOZIqK1Qm+MwNk/jcOkP8XzaL8glehlelwrXyCMD2i0sibeY0RbMR2IX8V3oV3hHQPofeKNA2wLvLPj7eIugfYEnxPvwfJnB7MDpanVZuq/U/mmdJDBXeoNgyl4yVglkwVKd8HgZ43dRohD4bCqlmEGmll1lsg6Yn5kybEGaBFLrp+MtHdmDopq0BsOlsqZM+VSe/ZEvpTUDulJ6PXXqL2P0+5jOwdeMH0PXxRVZ33/fiTkV90lt3wE=);strokeColor=none;spacingTop=-3;spacingBottom=-3;spacingLeft=-3;spacingRight=-3;points=[];labelBackgroundColor=none;rounded=0;html=1;whiteSpace=wrap;fontSize=14;" parent="2ajBnn2R3j9RgTrEd4us-92" vertex="1">
          <mxGeometry x="38.94055225924236" y="22.349206349206348" width="22.142666970941733" height="11.513227513227513" as="geometry" />
        </mxCell>
        <mxCell id="2ajBnn2R3j9RgTrEd4us-96" style="vsdxID=25;fillColor=#2d5967;gradientColor=none;shape=stencil(lVjbchQ7DPyafVXZlq/PHPgPCgLZIiehlnD7e2R2bI/bO9ribeNI07YstVo+8Ztvj++/Ppyc+fZ6efny8PP88fXxxP+dnDs/Pz5czq/y68RvT/zm08vl4fPl5fvzx+vfX99Xy/rr/5cf9Qu/rn6FKbjq5czv60ouVMLflXdXh6fz897BkuHJoTgKee/w4fvlCmE3A0MxbS7bUg7kryu/3LaSKTWjbSlZynmz4m2p0Lbye1uJjthq6ClSCDN6yFTSDJ8cxTjDh0jsZviYidOMH3wL4AF+9GTg9MFRcjN+KOQRX45vZ3wBg+NXI6/B71zaiqFQAH0YbSu+EPt74D6TVWMvp4LQVxc4ugTIwtF9Igs3L6H3BeBD2+PR1TvKDvAl3+2MLwmSGPBNd2z42czgnMir4JLQBQ7v0vis67UBWW89cZixxahA2iVySSlSJt8ctpVWXbftU7+nbRNMirk1Zra25NTN5Mlc8kgnmJlfHCnWEuX540axDWDLiq0nH2DXrOwjJUoYE6OEMBtixpAHzcFDWIpuLgky71+yfNr/kq+JDBSLbAnSVULYvrqtyHdNYxPusejYrVo8Fb1UPTngKamwkmf4JNXil1JlpIo4yr5RhSOjMpW0kTLDC1NEBprMFAvAjzzZ8aSH41crnSh3PgO/dYQdTXsIvxwsrDztgC28pXivS/SuPsIfoUcHHq10W2LufbPju1bfHb/Sj9okhfDx9ilDi+bcu2ZDN2Qg+LKfTuYMRgfYDgJvlg5lE2a9VHcTAg258nZajj1zAEJLgVk8dxiqo4G5Jez1QhHfEWZdJjPd+kwRM4f/k7GojhSPjXdbObBfAuEamw2ZIuWPgZBwQSCquoIUkItA+hHe0IWKjeSB/LIowhleOhHoBOmbhWd0to1nO3opFFWBzF3DdnTxSUB+YpVBpYlVRnxe2GdYHeHHoS/s+uU153bnB+71sQn7hp7voUtyWChB6Y4GVJpwT4box9J7qMJ9Qtq6UNv7jNwLkHti1epyNyCEsuD3PGpLoTHkEX5uidbhxQWOL/0phQUemF8aX0R0ydCioUtpeBwQShvoRuPl9pkRfbvkvijpAvhSn0WtPFEUjW4bftr1lKY7dl8eSwHwRcJYzH0mM9XeoqrsTFWitVWHRbfJPuyx/aILq2DV9KxflLskg+YQx3jZi1JVtnm05438jCKaqxwP+H1NvjN+XntNwEniTnSWOUUP/r8/btx3mJ9PPHY6ScGgsp3oVUh3iTDoLOHjCMUuWbAw/XhF6Nkemow70jppqbYC4M4uRJdH3+1NNvfq76VeyOlNVroFiOwo3QrajFgxaPxKx9BnqhUwnTReJRe4wPB3z15mnzkVhKddURzCuI7tcAa4b3aQVglzcWkPPkcAwFWiiLMyA0qCxNlBWnhQRB4XyOYqCpUjyyU43f5GCjhodnU0g15bEwV6vRy+wJxxIwVFcOvdrl/p0J0tRD3/1zHDj+e6obIizlikSn25Kxxwm8dQWP7GnOFB50uMUeKwgWu9IbEYTu5vjHdmoZ36BAth98ucsXAe5PldjpQf43360/np6fq8vf8/vmfL0vUtnN/+AQ==);strokeColor=none;spacingTop=-3;spacingBottom=-3;spacingLeft=-3;spacingRight=-3;points=[];labelBackgroundColor=none;rounded=0;html=1;whiteSpace=wrap;fontSize=14;" parent="2ajBnn2R3j9RgTrEd4us-92" vertex="1">
          <mxGeometry x="0.7635402403773012" y="1.3544973544973546" width="60.319678989806796" height="53.5026455026455" as="geometry" />
        </mxCell>
        <mxCell id="2ajBnn2R3j9RgTrEd4us-97" value="&lt;div style=&quot;font-size: 12px;&quot;&gt;&lt;p style=&quot;align:center;margin-left:0;margin-right:0;margin-top:0px;margin-bottom:0px;text-indent:0;valign:middle;direction:ltr;&quot;&gt;&lt;font style=&quot;font-size: 12px; font-family: &amp;quot;Oracle Sans&amp;quot;; color: rgb(0, 0, 0); direction: ltr; letter-spacing: 0px; line-height: 120%; opacity: 1;&quot;&gt;Flexible Load &lt;/font&gt;&lt;font style=&quot;font-size: 12px; font-family: &amp;quot;Oracle Sans&amp;quot;; color: rgb(0, 0, 0); direction: ltr; letter-spacing: 0px; line-height: 120%; opacity: 1;&quot;&gt;Balancer&lt;/font&gt;&lt;font style=&quot;font-size:16.93px;font-family:Oracle Sans;color:#000000;direction:ltr;letter-spacing:0px;line-height:120%;opacity:1&quot;&gt;&lt;br&gt;&lt;/font&gt;&lt;/p&gt;&lt;/div&gt;" style="verticalAlign=middle;align=center;vsdxID=27;fillColor=none;gradientColor=none;shape=stencil(nZBLDoAgDERP0z3SIyjew0SURgSD+Lu9kMZoXLhwN9O+tukAlrNpJg1SzDH4QW/URgNYgZTkjA4UkwJUgGXng+6DX1zLfmoymdXo17xh5zmRJ6Q42BWCfc2oJfdAr+Yv+AP9Cb7OJ3H/2JG1HNGz/84klThPVCc=);strokeColor=none;spacingTop=-3;spacingBottom=-3;spacingLeft=-3;spacingRight=-3;points=[];labelBackgroundColor=none;rounded=0;html=1;whiteSpace=wrap;fontSize=14;" parent="2ajBnn2R3j9RgTrEd4us-92" vertex="1">
          <mxGeometry x="-48.14696485623005" y="44.44444444444444" width="158.14696485623006" height="35.55555555555556" as="geometry" />
        </mxCell>
        <mxCell id="2ajBnn2R3j9RgTrEd4us-98" style="vsdxID=4;fillColor=none;gradientColor=none;strokeColor=none;spacingTop=-3;spacingBottom=-3;spacingLeft=-3;spacingRight=-3;points=[];labelBackgroundColor=none;rounded=0;html=1;whiteSpace=wrap;fontSize=14;" parent="2ajBnn2R3j9RgTrEd4us-4" vertex="1">
          <mxGeometry x="730" y="110" width="72" height="70" as="geometry" />
        </mxCell>
        <mxCell id="2ajBnn2R3j9RgTrEd4us-99" style="vsdxID=5;fillColor=#FFFFFF;gradientColor=none;shape=stencil(lZjZchs5DEW/Rq8oEuD6nOU/UokzVo3HTinOor8PNGoS7Mt0d/KmdEAfEssFyJO8+fr44cvDid3X18vLvw8/zp9eH0/y9sR8fn58uJxf9ddJ3p3kzeeXy8M/l5dvz5/u//7y4WZ5+/Xfy/fbX/h5X5eZ+LaI3fX+oVYq/v8v7+/2H79d7gv83SAVqmlZ4nGN+8mLVaQii9XyqRZKcbGSxUpIGn75VBNF2eW7Duv8QIHX/FjJFeB7CnnNj4WCX/NLIV9H/tP5efBX8JTDymHTAtywLmF0mKOY1xsOjtjDhpnKer+iLizgr0Ap7eElk0e8+hj8JXHGZ6oQLxFyGK/SAr3F13jxCfMlQ76wRiKu+d65NZ0TeaTX5pANOgvlMtElAd33eAzZGsKa72tztfEzud1q8Zkyej9OwfeJOABfOqzzNUYCfM3p3ej7QAzeL5U4Al9sl8unknrYOl+oVKiWQLLrf+U7qNbiLa+4W2VQi1wplun8Na/5OVM8cD+cPkcKAnRVNAa6OgSSz5nsNThT2JEK3W5P/EVuErm8u91IAt7SNd5P3gJpG43EAg/BOsbzFCxb0/FavFCpMRIIRbZ4Nrhq9B47Nod3svYG0CiLQAP7KUxTiYa+361TkwA65C68C0j1Guoz6Jnh0KrgkJ5BDnqDA7DrXdPIDMGW3ygTQReT1KRi89A95ZtOW6Waw1GVRDNE1uww1YUqftjNs2RdrMm0luCaXazPNpHWpKpw7rko1Yp3E833mBjdNtRrTMML/fBmhXzdEs/8fUWsVAPwNd/mjlQh7jcfAV8jlKDI1flxxV+Lkk4DvYd0YUu7LUxzKUCuqGJmLM7Yd3e1roYOG61MqBLv8oc1vse9ZUfn5z7ddRHvw0rPVTdNEOEgXIGnBu67GPThLZFAtsLsEp3NozJabMmhTFOuWzNjJkAO+2rztVLD35038VScgx/bdB/Ig7PHkMhs9afBHtf4OY0af55XxpSUfpQ2aFyti6+TfV0d2Qbjay+n/QEzDxcNEzOGBCncp45BTgoMOEUzHYTcrDb4Os21W9UgZwXkTKdJRn6xS1ObJnVigYCJb7eHDb7Oyd1lrWAFxbyP8ler1gRws2mZ6g9mO4fdM7Zh1M497K7VqgasHp5bJ4uy20ZGj7aaDTay8hydYVaDo/8m7ma1Ffc4qfL4lxs/UD3Gh+kWPOGhTqpNBssXbuKztV8/tb2stY51okMIFLbWZJLJX4yzeD3oYnqfCaDjWpQRpw6FgbDdgjPhC+A1zu4oXA7vgTwfX6ZpT+/3BfnDC4i9mpTdYsnFOpRVLr7a5OH+0fi110Yf7u3NyK7hZaUSkC6Hj0x/a68/7EXr8/np6f4gNv4/voDpp/vrmbz7BQ==);strokeColor=none;spacingTop=-3;spacingBottom=-3;spacingLeft=-3;spacingRight=-3;points=[];labelBackgroundColor=none;rounded=0;html=1;whiteSpace=wrap;fontSize=14;" parent="2ajBnn2R3j9RgTrEd4us-98" vertex="1">
          <mxGeometry y="0.8641975308641975" width="70.28571428571428" height="68.27160493827161" as="geometry" />
        </mxCell>
        <mxCell id="2ajBnn2R3j9RgTrEd4us-100" style="vsdxID=6;fillColor=#FFFFFF;gradientColor=none;shape=stencil(nVrLchw3DPwaXVl8P86O/R+uWI5UUSyXLCfS3wfMLgGyscNx5SaPOdsDEGg0QN6FDz8ePn+/v/P2x+vL85/3/zx+eX24C7/def/47eH+5fGV/roLH+/Ch6/PL/d/vDz//Pbl8u/vn/vK/tdfz3/3X3i7vBebya2/5e375Yk3ofz34NNl/e8/Xy4vuMv/J2dqvr7h+JV6efLmr4uCaddH734sauW6KFwXJVOvj96vj6KxbQteTEkreDLeAXgzwa/g2VS/gmdrYljBqyl5B56dSXEFd9aUFTx74+IK7sh0B+i0qq3oLhm3dTy94xG+sBGM70wJgE97nJX14HnvTE4z/NPjtylOCrl5bOjlSfCm+N33lmyKW783OOPy+r2lmoiR0kxr6/dW2q0EH8y7fIBfvYmAT1t8NZLxazTJAX41CeCz7HzgRXUbqpV+pQB8Mx7CpVllfrAjEBi/Ubis8OTJtLW+hbE94n3PmcvwkV3N8NFAsDTKU4Qnh9QtfDY5ADw5BOGzaXmFj5a/m/EpkOqKH/2gjg3+Ch+TsR7gk2lAFLEMBhL4qOGr2e49OT8jTSmm6JsKkZfoUQV0azwwBZHrlfKOQy9C6KXI5MGRn00EpqJVBTMvjnog+NFs976S9U7BV2BpSs+aNHwEeBX5tCgv1gNRUWSOwLs+8ePJEVFNFDQeBWYF/l5KS/heIkULxF4d18LxwfRFdVtXyEb0F30SZ4FnrwbIFfqkCuFCqxIQJT1yW/tpARbVmlRJ7/jAVLWYrPcrgv21mW2qkssSuL+5UYoX9wNTUZYlgO9bCURN6bt3P+0PSyBhjwHGdSqyrYxfhFECx1qEbKVVfmt/sSZAXad3Emx/rlw6J3wH2Zoz1453Yc/t7ufInMPwiSvnJGsiRH8D35PycOh7kiw7bFJqFapEL4grdKqqRhHBeQh8WgWGE7/ZeEwUVGh4Qw9ewM+lVwImyvQlo4A2pSgmo0YBrUoAnjmLam7FjQqilAZ6Uvpz3s4BH4TMJE78tqhN4m2KUwfWe71bPZoBvwtyjBXKk22eUnOg8hRKKjUZKkmzUlPeDum2kMR260lDO0xSXSPc1J4MfNHjA99lqXzCkXlLEtQdNHB+Z1/ETyZhqiSOWcZPXOXnGnEGD77vxQe0NBlWwP1EyBk4ipzUIFV7idySFLnfY4mM3GLy9ks9ZPzAhMzb74V0hLbTRlM4Ds1BFUqEqA/OQgKigQo6LKl46UoJioqbRHrAVUf40nPOGgyKitMO60IRJaixEK5dgaYdPDkMeJ2krQf0ZDKCW5UsUXVeXXxvgyUYyFQS9Q6wvfSmQ/mnwf4SKSIlp75jS5JeVYg42cTgaPjcGw2KNuD03nNtOSLK2GN4IjIfiNORIXpbiDKK92ruN3fYVfh8YItensKtgIbpLTGAU+iCguy/vi0NLip4L6J+oqcG9NQHAsjOVTJnGjVsN92qytxnGMhOnscw7HonPhpYPAIT3+OkZWUnip28spOa5agMEeH+LgybQXIHSZt3KXAR2KmvAjrvo6ztfoUpwCbCUvAVJ1lWVROyvgFB1EGqxzLOQpJm1Z5GJwMMTh0wPYoCmAaY296YWAYDlQs7QxfhHWaMAKQ8D26ZrtbJLejd00nv2WTYnhhWYOZgwSzP3TLvp8o+Es8eOfdk0kW8GEEaFdW/EBNW4D3nuO9i9KiUIcVy3Feb6R0Zy3otyz0a30ZfLvhJyeLOLZtdJe9wJjHz7JNf9n0mSwcOI1zIffKqhRpFhlbk6rPJYNeoeH6QDQrZoLpdWoS6SOv4nsj7qawatZBZCWf4Ov+qUmVRD0UtqEgtTHAe7tXhhRNtLqEboH1ykkkiDvK2gbFKkXXmhBJlV2TiwAi9E3XAmJ5h1MtD5AzhFjOPssTsBEKYZF4GzvMyrh1C1O5nS9FoGVpwtKHHsFH1TFXSV06v4j7QLe8bo2fdsnkZFQ/4oiI9qQ1PPPy53bIk8fovvdADZCWS4sYs7cjAqmKKGinVY2SlOPssrSgL8TjudG7qpFVh/CYiXqgEHVydaMMgq1Z4aonbviUP6jiwSilieFIEBeC5gZnNd2B+cyciysmQchpJoPU3JhKJc5jhm3Qk06HLvtOh4u0BvnKfzGUkyGnxwJdefhoHcfAFXrWvI/2UDsdhjbUg112rx1HNQPAFbmcFvo7KdsTlySRlvdUKGitJP5iC2CPN4yD4TofWvavUm4+xTwSOx/DNqm6PhFkG79cKub+SBfFYG9YfvHDj5F5tl54g9SkuZEs3S59e3xjyb6M1k/jESXNWZyw5MhbDVwPBmrP02RIt+5FEvhmseMaBIwln7QpdgjqMo5/ZF/6SZCgn0Di0LkXnSWU7Gb+pCtx4mHl8vIP3RdrN06WImRL4yGE6jFTHK+7sMDSJtJChPU6O++wfT7eyGh32VZgpPII/xm+gf6ozEPd9SouTUxm7TeY7oOnzw8UgnyyT04zudxJYA98ryUufhOGnRMJKFN07q6o4kSHzcfPBC8rCLAeTQjYBdFYnqNXABFXg1kl7HolydNDv1eFZknh7k0huWmJGKMI9K/Ck3Z8EV8vqAC05jQ+RTa19BVKjZMczgVjO7lg0UXYyBcAKzCTG6CIJpJOzgO1O7mLJG6Me6/nV/H1TQcbptracavu+hW6w5yGoUjLvjEz7GoLrPe9d5LaWzNEk00YLA4c5MqWBxyt4N2K+D3/3hF7VCEsa5olP8bZAF3l4W0JfLqFVYX9bwalK7qUiT/WsaPPxGLIkpbw83FZY6SkHudR1XW8Hw/36+Xqf/AAB0yqQ6aTccTw1LZrapi1BTa9I2xKTAleDXuZ1QQ/qaksbo5xj1YW3wIqqPfO1Sp60YqBmq6bMfDJ0pDirksgB50y9uIDgczKPlU4/QJS4sYFH2EFd/tP3Gpw6rAa5d2PGu8xgzwa8/38x/SE3hr8+Pj1dLhzP/483jOnR5XZy+Pgv);strokeColor=none;spacingTop=-3;spacingBottom=-3;spacingLeft=-3;spacingRight=-3;points=[];labelBackgroundColor=none;rounded=0;html=1;whiteSpace=wrap;fontSize=14;" parent="2ajBnn2R3j9RgTrEd4us-98" vertex="1">
          <mxGeometry width="72" height="70" as="geometry" />
        </mxCell>
        <mxCell id="2ajBnn2R3j9RgTrEd4us-101" style="vsdxID=7;fillColor=#aa643b;gradientColor=none;shape=stencil(lVzbkhy3Df2afWXxfnl2nP9wxXK0FUVyyXKy+/cGvUMAfdDN3n1bjdiDJgEcHFw4T+mnPz7/8vunp+j/+PH9238+/f/51x+fn9I/nmJ8/vr50/fnH/TXU/r5Kf3027fvn/79/dufX399+/fvv8yV86//fvvf/IaXt+d6db7Mp6J/ffskNlfr35/88+2Bf/35/e2J8Hgku9gejwR55vEtL/GxKrr1vY9PYnc+PRalxyLven2sSryqbcW34eb/HsQPl8dRfGuu5aP85F1pR/mt8ks+PknBjajFf3n+qo6rBhePp+VdHLvXrXEt4NcNfX3Jelta1NPxbUNxvRzflla1cXzdkFxuN+L5HJb44Pww8sNRPGtBpHs38lF6dS3shJfhGlhKdrUdZZfuAgiPboCiSnUhwdZd38rOLpSjbO8qnHshbYNsfxSch6sg2O/E5uYSij3KzMWFCDLlxZbY9NH95mD2q45xucBAp1T6WB7QXQLRd3pOzQXQs7KfJZt8DW1cWWLiVbl/0MbnM2jjyntE/uggXxxRNu/bUbzx8CMiROVgFxCC70uqjPC+iYXw+4bhUju+L+GcB20FsrcAL9zXgxfy6XAimkozfknH7hHBmytwYMGvzYr85kbaye8CY0FeOR3FV1kku48dYIHth/GbfGmLx2RMcPSMfS8MP74eRae0tiQbd7Btsi+/9RJvkGFaG2jdg3vSQ4DD3gXYc44LP64l96PknF1HfWMIICjzEIEia4Bl9xUVrs8boKFQ0M9H2UqP65O49MTxxw3Yd0kLKy4NrYOhUVQogEsThACPC0E0SCdvwGOfq8rWz5K8csBnRH42lk6rPFg6+WyBo6e9HP0MgCm4vPD2wXbSDY5PyAFDaZnhjV+4cbhaL0w8aqEQvzB9BB7SCG631I42uRgixxECxmAOLAK1I7KZERizfNdim3kZ3rXCOspvp/KRLQ3WjlJYAG45gmt7g6niB4+PRmKGos6/wP5HcQ3lK10u+RSmt/4yQS2C/C47W/CYTGAaRMARKoohTrSq7QNjMw5LzwyASIL4YOVXcFiC9QipBe3lhsdkA9F0Zg32T0Bv5FcJ30s+aQn1n90eKjtHGRYfJeIKh+tgfsMb8RQ4mGUu828A1Ue8ILK+QOf14oETfo94MSyRocQhQjzV21rwHliF+ry2+qpphVyRT7AD4rPJrbRSl/hqeMytudRhxQ+TCLcgCeDyYA9ZBiGzMZaxgPcqDy5iByI9Q1SnPHjg4XcHlIJSagsVcbv3rtS1pMsLcREgIamYeAaeSrDsUfNhKei6BjHA8giDMb3rxSDVxHOUX8SfVaS4lY8ZD9k0bj8vwBX53sqPgnoqUm5ZLB1/AaScMRgi9dQrRIoZz7EI0kxZYTKFDVSQWle28HrBRU4OLAO0apYjCouQc2jGtA5M1azey8VI7z0b+RG4YJc4wvKzBCCxTsyQC0eOC/nDQhXR1wYGO4SeKiLMq5b8YqpmJawU+Eq+TdGJhyMXJWhAapMNWtAihMpcb/xlqDLKSkFIZUjFPaY/yWHaxUuWaKa5V6SKn1hhdjDYvkT7eivMklfc7juVBUNX+1YHKiQjovhmGAXRFxRvtZ5o71tCpe1JKg0BIqS2Tcm1MQM6sXpKsPZON0yQmBQPna4ZlJqFBnC6E6enVccADSh1X9r+8APH4nmLUrpk+hG2tZfmLcUWPsmcpQuxEoqPKQZxlg61n0mZ9uVoAj3kmORkSNmysQhSfwdfJPoVIXAQ/dsXQWrkIjwHzs5RUtWjcf+knID7V6U3Cdxxi4P0zgEckuJvCnb/EeR7Ll+y/MLFGQ6cY3nXlfy66lMSuJtJsUn/GLelHsZx20uwlH7GnjNKnV9Yg4fNN7t5WhUhvyf62ZqRPvbG35gi6c1DEMRqCO6bNIFIQB/V7cZ7wI33aBKVyWkh+vZsNq5XCTaFO7pWAYfJ6rEKNncB7GeCLtK1buIAeXDcAjGdsgevG9KGUIpH9qOxKYkNIeog6h1x9R0wecTVmbwea+rSc7zKnceqrcgJB4Ors7cBJ0zHiaWrJFCjTDtsIsfkKccXJmzYvm8W8vkq0NDgfXNDHKhNKuXSoirgibLqKnMPpi2ov3lxz8RVYpZfTepcpPj0ms53D03UKJ3Ei+M1sOm5n8TI0THTn+UI9N9g7Ld0yYjThXWBdu/N8cMPHA0+NG5grwfq8pkrWqsekRwrAKSEbpo4E/iwVjsceHTnXvlVqc6bdmOT8hWXCoNBlKZGBRaPS6ZUSQbRt4gaizRIJZTh9mMz26e4hQUIorGY/9Yb/yEWjXDTuEsqcBMl6VXbh3wqJZt/j9WCupJvt08qy5BXzJYUpDVT+4AfqTrLovYsNlXT2J8Ga6QXJHHS62fpNq2htGFfTEjSn+FwFmzDOZnm/qS6EeRHge731h2n9m04xepPVOVcCafY8J4mivJ51ZXxZ4dl6mo6ibONiWXqwrJYvDctPTqkvfYJVBB6Jk8B5FH4JNrHoRK9SpGpTVb3DqgEbE3SLnqoL9wUa4L1LnlGdlilBhh5lekTd+nWiMP7rX1PcLVVA0zbCVwTgCs5RkX7Ut1s1ZrY2vecaYDqKvErZAdqvoTrNfJKSj6IJ7IU922oaHLUSZfQvVQ9YomvplYXhmkb577y3Wv7RrZOHAvbQFP9WKskXED1FwytRL0exPu6C4njGfQMGp/dfQlYLBu2Z+xX7esqUzBl0rl1LA8YFk1nWgDYi4Nq0SwS7jmx2XeWagWjuuTPl0VCtUaqhDcB3aTllCtUUHk2slM1dTI7wJTukpcuGCxDKcjkvLNgk4BJaaxLuOocTu/REXOzw+rZMt/PpUH1NQTT0Ca6jFXvwe2dF9FgRZK6wOZKdDR+XB1mWGpMkIdRMnAEMkO0p5sZWUrcsPJpG/kzccNBI+GQqrIfUPieHlDahgO6mY2Sk6Vs0LvwwIgauzSjgH2fWNqNd654qpHPAoceoCNabLF9Ws5dOxr9KCQz51QG9iTnsCDmtF06h0JVtk5cJLFh6UNqhpFPNANuUyDDaR9SjpmLjjfDGyWZQeOYZGJOgkQG0kCrOtCyPEw/WlZdmXw/k4/F/jlUhvtP2GEif+vNiN8bPTkyDqVHM7pCoQLz0TlXCwhOuNFw997tpQd5Y1H+wM0H0+cJ3Yr3JnzJyNUlypq2whzAwsmZYUdg7ahZhg4b+VDb1b5uAsLHVkODJclAFGuwx+uvr0EqzILE+46INx2JLLNLGjWQ8ySjOsIArGSQMe07MqXIOJ1YE1YyyLsxVkydY20rsM45/rMZnk/9qCcept5upiqLnZKKUl/mF24yTrRcrXAI5xceZkwpJgjrUEyWULYIS75rOyQzHz6HwcE5mxrDEH8BJkCLLLPcH5d6RHgJDh60k1wqmesy2h0kmdp424f95x0PHD10xlwYBUnLeTZhGkcRioMDKTx8JfSkmQ5caaYXMy1qH6erEEmBAJxcKvaWRo2meFOSoQnzKs82wyKPw1GImnD7M+mC7delaQHqxpccWHq6mQjISIiVlQklTnbnKDuaKnq9G73PdufTFiBIEaw1OPnSTHaZ1TS99CHK1hN1+BPSVLORj0FaqUzJx6GtzIOZm/0j0jcz3koni+MQuRpmnrNNC8pNjpuL2T99DSbY06qwrpJMzT4P0VLCVVeWH22Cn8y8ZJErSa9ikfY+WMayUl0R8kp8t+K7HKwEepxWLV6ChaBMBMcvy4mvpmvvcPLDD0BiLpM1V5EcqJh5wHCFEwvCMkn2JpidsOzJaNCCgyH5kyvdFBNMYVTik+7ymhqRpR5zwAtNiG9Bnd+oqMIBz6OvqWRK/iyxf0BSMhehwUdTVtKrVFHrTjreOBq2T1D4AFVVayXfLD7LKilrjc1p2SboZHZ7gIzSeJc+X0GAzA60O+knppDNZtAfdQfzwNHhYsGB+dmu31BXOtZ6fGCy732nSV2aFBTFTkBSaBh5Fd6hnassZu0jpvpiRdVwqqIaCyr2pmAS+qa42n5aizwZOwHVG+aeFFQKY8GA5e2URIIpc1BXkhD79gnlHvsLTCnYAadkptuivdlJ/B/xiawPHK7d3fOLFS836u9VWZgVjl0j6+4twu0pKCR3HOooeLwn142QD5Vomtgx2ftxUu1Q142QDu2d8cPe+44H7qZD6ZN956kO6SmJBnE4sJkLQDN9xB8LMDXrlmE2EwhHx4vM5B97Qk2+6MHg5uQmvG4whYAq0xPq+g8OEc0LSftZzmj60LMAA2xAEjJ9pwCvC+pVF4TuRHzHPl00I1xV9VIlncAuMa3C23KzT7hRF2mTE1Q2x/2lkSadDX0HAMc/Zfb6+jJut2MDxt1t3Qauo8Yl6Lpug/2bZvHhpG7TZHx4M7VovPFuatE8AP4uPybC/Gw/jVtxjIMiGeYjrdnb6A2DW+tmdzJXcyV98P0LfTUBvOdkJjVFe4Ur4ghRumtXqGE1NWOBu58j+bj7YCaY5kVFiFaJ24XXdxNwhgeRYwQhTGrvcPYjmin8dHsb6GTzxUyBz3EdPHvLq4byaqn55q3u531hzOOCaRcMwxRyQiAYfFNO1yHilqYM+9Ms+rcGIp8rjk+d3EUKZgR/VibuFI9RwzugaHL19TBeAaBydhGNV12JT6xBNd2RUH6wv4jgzeQvuTDOWPQbzZ+M4M/CCf56UjW/E5PNj0HYH09CwANAvcNH+kN+puq35y9f3n7lSv8//qwVffT2k1jp578A);strokeColor=none;spacingTop=-3;spacingBottom=-3;spacingLeft=-3;spacingRight=-3;points=[];labelBackgroundColor=none;rounded=0;html=1;whiteSpace=wrap;fontSize=14;" parent="2ajBnn2R3j9RgTrEd4us-98" vertex="1">
          <mxGeometry x="1.7142857142857142" y="0.8641975308641975" width="68.57142857142857" height="66.5432098765432" as="geometry" />
        </mxCell>
        <mxCell id="2ajBnn2R3j9RgTrEd4us-165" value="&lt;font style=&quot;font-size: 12px;&quot;&gt;Control Plane&lt;/font&gt;" style="sketch=0;html=1;dashed=0;whitespace=wrap;fillColor=#2875E2;strokeColor=#ffffff;points=[[0.005,0.63,0],[0.1,0.2,0],[0.9,0.2,0],[0.5,0,0],[0.995,0.63,0],[0.72,0.99,0],[0.5,1,0],[0.28,0.99,0]];verticalLabelPosition=bottom;align=center;verticalAlign=top;shape=mxgraph.kubernetes.icon;prIcon=master;fontSize=14;aspect=fixed;" parent="2ajBnn2R3j9RgTrEd4us-4" vertex="1">
          <mxGeometry x="400" y="450" width="62.5" height="60" as="geometry" />
        </mxCell>
        <mxCell id="2ajBnn2R3j9RgTrEd4us-166" value="" style="group;fillColor=none;" parent="2ajBnn2R3j9RgTrEd4us-4" vertex="1" connectable="0">
          <mxGeometry x="385" y="330" width="90" height="90" as="geometry" />
        </mxCell>
        <mxCell id="2ajBnn2R3j9RgTrEd4us-167" style="vsdxID=53;fillColor=none;gradientColor=none;strokeColor=none;spacingTop=-3;spacingBottom=-3;spacingLeft=-3;spacingRight=-3;points=[];labelBackgroundColor=none;rounded=0;html=1;whiteSpace=wrap;" parent="2ajBnn2R3j9RgTrEd4us-166" vertex="1">
          <mxGeometry width="72" height="58.15384615384615" as="geometry" />
        </mxCell>
        <mxCell id="2ajBnn2R3j9RgTrEd4us-168" style="vsdxID=54;fillColor=none;gradientColor=none;strokeColor=none;spacingTop=-3;spacingBottom=-3;spacingLeft=-3;spacingRight=-3;points=[];labelBackgroundColor=none;rounded=0;html=1;whiteSpace=wrap;" parent="2ajBnn2R3j9RgTrEd4us-167" vertex="1">
          <mxGeometry width="72" height="58.15384615384615" as="geometry" />
        </mxCell>
        <mxCell id="2ajBnn2R3j9RgTrEd4us-169" style="vsdxID=55;fillColor=#FFFFFF;gradientColor=none;shape=stencil(lZPRDoIwDEW/Zq9LWUHCs+J/EAVZRCATFP/eYYdsAzW+td2922mzMtxey6zNmYBrp5pzfpfHrmS4Y0LIusyV7HTEMGW4LRqVn1TT10fK22xUjtGluY03DOSLOEajScCDCknC482rsif9oVdkCEggeIjGEfgWGASVwChMmsQchVGgqzBpEvLQfrWStUUJDuKb+QMhuHgz8ERnteDyTnDWVBzcVTiNvnFnCN/o9Cyi2CUEFy8Ab3xWB+hLfOJVxFnuI3+AnA1L6kEsG/HJB1zOxkNfBf39Hf/V62D++4WsKlod+9zfFV2iPcP0CQ==);strokeColor=none;spacingTop=-3;spacingBottom=-3;spacingLeft=-3;spacingRight=-3;points=[];labelBackgroundColor=none;rounded=0;html=1;whiteSpace=wrap;" parent="2ajBnn2R3j9RgTrEd4us-168" vertex="1">
          <mxGeometry x="0.8571428571428571" y="0.6923076923076923" width="70.28571428571428" height="56.76923076923077" as="geometry" />
        </mxCell>
        <mxCell id="2ajBnn2R3j9RgTrEd4us-170" style="vsdxID=56;fillColor=#FFFFFF;gradientColor=none;shape=stencil(lZXRdoIwDIafprc9aUMpvXb6Hp6JgzMmHsSNvf1gLbQNCHpX4h/88iehDHe34njNmYRb29Sf+U95aguGb0zK8lLkTdn2J4Z7hrtz3eQfTX2/nOzz9Tgoh9NX/T28obN5BjmqIUvCr41Ijtl/4GD17/fGJgiXoXhiXIYgKdBJJ9IcR5ELJVy6SIdzkQulPMHwz6vyEsIGCRN+JlZpgxRfgFEEN6jJV5ClhDfwCqlqEbgvR8S8VE95e5c0wdU8lTFu77cmtIprEdMGIs+v9GPYIGG5GZQ1SBCzHstZPXI2LDhzCZdnkIzB5sy+qt/aCXihxbBuWaZiyyD2C6hZdAghdmp9YSAi21wWYHTyREInb+J3EQHANro5Sh41R8U7TeQLGy2Ih56BQgXbPJWCVPPcenj9c9thDNcp/U5O3Ry5Um5EjErsXPjorLu5Nrr9wV8E57Kq7D0S/k4vjj5kLx3c/wE=);strokeColor=none;spacingTop=-3;spacingBottom=-3;spacingLeft=-3;spacingRight=-3;points=[];labelBackgroundColor=none;rounded=0;html=1;whiteSpace=wrap;" parent="2ajBnn2R3j9RgTrEd4us-168" vertex="1">
          <mxGeometry width="72" height="58.15384615384615" as="geometry" />
        </mxCell>
        <mxCell id="2ajBnn2R3j9RgTrEd4us-171" style="vsdxID=57;fillColor=none;gradientColor=none;strokeColor=none;spacingTop=-3;spacingBottom=-3;spacingLeft=-3;spacingRight=-3;points=[];labelBackgroundColor=none;rounded=0;html=1;whiteSpace=wrap;" parent="2ajBnn2R3j9RgTrEd4us-167" vertex="1">
          <mxGeometry x="1.7142857142857142" y="1.3846153846153846" width="68.57142857142857" height="55.38461538461538" as="geometry" />
        </mxCell>
        <mxCell id="2ajBnn2R3j9RgTrEd4us-172" style="vsdxID=58;fillColor=#2d5967;gradientColor=none;shape=stencil(lZXLcoMwDEW/xlvGWDzidZr8R6YhhSmFDCEt+ftCbbAkB+Lu/LgyR/IVFrC/ladrIZS89V37WfxU574U8CaUqpqy6Kp+HAk4CNhf2q746Np7czbz62lSTqOv9ns6YTBxOo3SeIpS8mFW5N/saMR11SBxEqlkXft+78zJsdmMI62tOsZyOSgyfdipsrtAd2H5drpOJgmWzra4JIXSO0qFsOcVKSkaqgNQyVO4scZ5RgCZnBPqXSRjSukYONRMueQBXAAOY6OETv+84B6kno9bIBVF1LnLm175AL774KX9XniVGTtzNVzJ38so88puneRSSr2UxihbqK20nCqsszw9hwWvuzCImkV5wmkpKlKE2QQFhPkEBdiVhEPyhoPFWesdB5uUfstxfcDlIwx01+z6EwqKFUF/rgCf/jtgHLj//aWqa/Nc4H3+PoxL5m2Bwy8=);strokeColor=none;spacingTop=-3;spacingBottom=-3;spacingLeft=-3;spacingRight=-3;points=[];labelBackgroundColor=none;rounded=0;html=1;whiteSpace=wrap;" parent="2ajBnn2R3j9RgTrEd4us-171" vertex="1">
          <mxGeometry width="68.57142857142857" height="55.38461538461538" as="geometry" />
        </mxCell>
        <mxCell id="2ajBnn2R3j9RgTrEd4us-173" style="vsdxID=59;fillColor=#2d5967;gradientColor=none;shape=stencil(pZJbDsIgFERXwy+hQBW/a91Hk1IhIjQUX7sXcmNsNaWx/s1wz32EDGLVoJpeIkqG4N1J3nQbFGJ7RKm2SnodokKsRqzqnJdH7y62Bd83iUzq7K5pwh36SOqg5AGuIOAPgBptR+iruArOoCvB7PosOv0BjkUxpTdYlPOjdxyXf/GCY7qd57/u+ZVfuGeZj+Idl04bA2kb1z/jFZ8gmqx+Ag==);strokeColor=none;spacingTop=-3;spacingBottom=-3;spacingLeft=-3;spacingRight=-3;points=[];labelBackgroundColor=none;rounded=0;html=1;whiteSpace=wrap;" parent="2ajBnn2R3j9RgTrEd4us-171" vertex="1">
          <mxGeometry x="9.428571428571429" y="35.30769230769231" width="49.714285714285715" height="11.76923076923077" as="geometry" />
        </mxCell>
        <mxCell id="2ajBnn2R3j9RgTrEd4us-174" style="vsdxID=60;fillColor=#2d5967;gradientColor=none;shape=stencil(jVLRDoMgDPwaXg2UOeezc/9hJk4ypwZ107+fpCRClxnf2nLH9eCYzIa66BUDPoyme6qPLseaySsD0G2tjB7XismcyazqjHqYbmpL7PvCIm316t72hhl5MbcU4Au2gmN/Q+x9MggWeJwk0Vk4gggZfAYyWGAjgcNIinGDUxql6Z7yxnADgEheQmV/OzfioW5MZHfNWoUkFCVWiVF/JRkijtokJv2ng9+t6Iv/s0l+tdHt4QSsxRadSjcNJs8/p1FbRxhTmX8B);strokeColor=none;spacingTop=-3;spacingBottom=-3;spacingLeft=-3;spacingRight=-3;points=[];labelBackgroundColor=none;rounded=0;html=1;whiteSpace=wrap;" parent="2ajBnn2R3j9RgTrEd4us-171" vertex="1">
          <mxGeometry x="48.857142857142854" y="40.15384615384615" width="3.4285714285714284" height="2.769230769230769" as="geometry" />
        </mxCell>
        <mxCell id="2ajBnn2R3j9RgTrEd4us-175" style="vsdxID=61;fillColor=#2d5967;gradientColor=none;shape=stencil(pZLbDsIgEES/Zl8JZW3E51r/o0mpEBEa2nr5e0Fi2qrpRd92Z8+QCRnArJFFLYDRpnX2JK6qbCXgHhhTRgqnWj8B5oBZZZ04OtuZMu51Ecgwne0lvHCLvh0nnAcXo/eo0Od2iLBWZgDT38CETqCv4yJ4VdoZePwPHEmyGcFBSSdyp2SL/xl65avhM9Jqw0ykBQY/9NWplNaxecP7e9W8FGuK+QM=);strokeColor=none;spacingTop=-3;spacingBottom=-3;spacingLeft=-3;spacingRight=-3;points=[];labelBackgroundColor=none;rounded=0;html=1;whiteSpace=wrap;" parent="2ajBnn2R3j9RgTrEd4us-171" vertex="1">
          <mxGeometry x="9.428571428571429" y="7.615384615384614" width="14.571428571428575" height="11.76923076923077" as="geometry" />
        </mxCell>
        <mxCell id="2ajBnn2R3j9RgTrEd4us-176" style="vsdxID=62;fillColor=#2d5967;gradientColor=none;shape=stencil(pZJJDoMwDEVP422UxGXYU3oPJEKJmhIUoMPtm8iqCnSE7vzj920r+oBZVxetAsm73tmDOuuyrwG3IKVuauV07yvAHDCrrFN7Z4emJN0WgQzV0Z7ChAv5BOfBI/mVNKkdoUY3I3QleN/wEp2vXwSvRac/kG6YTCZwikxEH2bHLI3/M4iIJfje8HzSYsOXk34w+OIRmkobQ5kb9+ch808UUMxv);strokeColor=none;spacingTop=-3;spacingBottom=-3;spacingLeft=-3;spacingRight=-3;points=[];labelBackgroundColor=none;rounded=0;html=1;whiteSpace=wrap;" parent="2ajBnn2R3j9RgTrEd4us-171" vertex="1">
          <mxGeometry x="26.57142857142857" y="7.615384615384614" width="14.571428571428575" height="11.76923076923077" as="geometry" />
        </mxCell>
        <mxCell id="2ajBnn2R3j9RgTrEd4us-177" style="vsdxID=63;fillColor=#2d5967;gradientColor=none;shape=stencil(pZLbDsIgEES/Zl8JZW3E51r/o0mpEBEa2nr5e0Fi2qrpRd92Z8+QCRnArJFFLYDRpnX2JK6qbCXgHhhTRgqnWj8B5oBZZZ04OtuZMu51Ecgwne0lvHCLvh0nnAcXo/eo0Od2iLBWZgDT38CETqCv4yJ4VdoZePwPHEmyGcFBSSdyp2SL/xl65avhM9Jqw0ykBQY/9NWplNaxecP7e9W8FGuK+QM=);strokeColor=none;spacingTop=-3;spacingBottom=-3;spacingLeft=-3;spacingRight=-3;points=[];labelBackgroundColor=none;rounded=0;html=1;whiteSpace=wrap;" parent="2ajBnn2R3j9RgTrEd4us-171" vertex="1">
          <mxGeometry x="9.428571428571429" y="21.46153846153846" width="14.571428571428575" height="11.76923076923077" as="geometry" />
        </mxCell>
        <mxCell id="2ajBnn2R3j9RgTrEd4us-178" style="vsdxID=64;fillColor=#2d5967;gradientColor=none;shape=stencil(pZJJDoMwDEVP422UxGXYU3oPJEKJmhIUoMPtm8iqCnSE7vzj920r+oBZVxetAsm73tmDOuuyrwG3IKVuauV07yvAHDCrrFN7Z4emJN0WgQzV0Z7ChAv5BOfBI/mVNKkdoUY3I3QleN/wEp2vXwSvRac/kG6YTCZwikxEH2bHLI3/M4iIJfje8HzSYsOXk34w+OIRmkobQ5kb9+ch808UUMxv);strokeColor=none;spacingTop=-3;spacingBottom=-3;spacingLeft=-3;spacingRight=-3;points=[];labelBackgroundColor=none;rounded=0;html=1;whiteSpace=wrap;" parent="2ajBnn2R3j9RgTrEd4us-171" vertex="1">
          <mxGeometry x="26.57142857142857" y="21.46153846153846" width="14.571428571428575" height="11.76923076923077" as="geometry" />
        </mxCell>
        <mxCell id="2ajBnn2R3j9RgTrEd4us-179" style="vsdxID=65;fillColor=#2d5967;gradientColor=none;shape=stencil(pZJJDoMwDEVP422UxGXYU3oPJEKJmhIUoMPtm8iqCnSE7vzj920r+oBZVxetAsm73tmDOuuyrwG3IKVuauV07yvAHDCrrFN7Z4emJN0WgQzV0Z7ChAv5BOfBI/mVNKkdoUY3I3QleN/wEp2vXwSvRac/kG6YTCZwikxEH2bHLI3/M4iIJfje8HzSYsOXk34w+OIRmkobQ5kb9+ch808UUMxv);strokeColor=none;spacingTop=-3;spacingBottom=-3;spacingLeft=-3;spacingRight=-3;points=[];labelBackgroundColor=none;rounded=0;html=1;whiteSpace=wrap;" parent="2ajBnn2R3j9RgTrEd4us-171" vertex="1">
          <mxGeometry x="43.714285714285715" y="7.615384615384614" width="14.571428571428575" height="11.76923076923077" as="geometry" />
        </mxCell>
        <mxCell id="2ajBnn2R3j9RgTrEd4us-180" style="vsdxID=66;fillColor=#2d5967;gradientColor=none;shape=stencil(pZJJDoMwDEVP422UxGXYU3oPJEKJmhIUoMPtm8iqCnSE7vzj920r+oBZVxetAsm73tmDOuuyrwG3IKVuauV07yvAHDCrrFN7Z4emJN0WgQzV0Z7ChAv5BOfBI/mVNKkdoUY3I3QleN/wEp2vXwSvRac/kG6YTCZwikxEH2bHLI3/M4iIJfje8HzSYsOXk34w+OIRmkobQ5kb9+ch808UUMxv);strokeColor=none;spacingTop=-3;spacingBottom=-3;spacingLeft=-3;spacingRight=-3;points=[];labelBackgroundColor=none;rounded=0;html=1;whiteSpace=wrap;" parent="2ajBnn2R3j9RgTrEd4us-171" vertex="1">
          <mxGeometry x="43.714285714285715" y="21.46153846153846" width="14.571428571428575" height="11.76923076923077" as="geometry" />
        </mxCell>
        <mxCell id="2ajBnn2R3j9RgTrEd4us-181" value="&lt;div style=&quot;&quot;&gt;&lt;p style=&quot;margin: 0px; text-indent: 0px; direction: ltr;&quot;&gt;&lt;font style=&quot;font-size: 12px;&quot; face=&quot;Oracle Sans&quot;&gt;Worker Node&lt;/font&gt;&lt;/p&gt;&lt;/div&gt;" style="verticalAlign=middle;align=center;vsdxID=68;fillColor=none;gradientColor=none;shape=stencil(nZBLDoAgDERP0z3SIyjew0SURgSD+Lu9kMZoXLhwN9O+tukAlrNpJg1SzDH4QW/URgNYgZTkjA4UkwJUgGXng+6DX1zLfmoymdXo17xh5zmRJ6Q42BWCfc2oJfdAr+Yv+AP9Cb7OJ3H/2JG1HNGz/84klThPVCc=);strokeColor=none;spacingTop=-3;spacingBottom=-3;spacingLeft=-3;spacingRight=-3;points=[];labelBackgroundColor=none;rounded=0;html=1;whiteSpace=wrap;" parent="2ajBnn2R3j9RgTrEd4us-166" vertex="1">
          <mxGeometry x="3.4285714285714284" y="61.61538461538462" width="65.14285714285714" height="28.384615384615387" as="geometry" />
        </mxCell>
        <mxCell id="2ajBnn2R3j9RgTrEd4us-182" value="" style="sketch=0;html=1;dashed=0;whitespace=wrap;fillColor=#2875E2;strokeColor=#ffffff;points=[[0.005,0.63,0],[0.1,0.2,0],[0.9,0.2,0],[0.5,0,0],[0.995,0.63,0],[0.72,0.99,0],[0.5,1,0],[0.28,0.99,0]];verticalLabelPosition=bottom;align=center;verticalAlign=top;shape=mxgraph.kubernetes.icon;prIcon=pod;fontSize=14;" parent="2ajBnn2R3j9RgTrEd4us-166" vertex="1">
          <mxGeometry x="45" y="21" width="45" height="48" as="geometry" />
        </mxCell>
        <mxCell id="2ajBnn2R3j9RgTrEd4us-372" style="vsdxID=55;fillColor=none;gradientColor=none;strokeColor=none;spacingTop=-3;spacingBottom=-3;spacingLeft=-3;spacingRight=-3;points=[];labelBackgroundColor=none;rounded=0;html=1;whiteSpace=wrap;sketch=0;fontSize=12;fontColor=#007FFF;" parent="2ajBnn2R3j9RgTrEd4us-4" vertex="1">
          <mxGeometry x="725" y="503" width="77" height="84" as="geometry" />
        </mxCell>
        <mxCell id="2ajBnn2R3j9RgTrEd4us-373" style="vsdxID=56;fillColor=#FFFFFF;gradientColor=none;shape=stencil(rVvZklw1DP2aeXV5X54D/AcFgUwRktQkQPL3yEzL8j26Vz2T4i00Ukstazk69jykN5/f/fzp7UP0n788ffzj7T+Pv35595B+eIjx8cO7t0+PX+hfD+nHh/Tmt49Pb39/+vjXh1+f//vTz1Ny/uvPj3/Pb/j6rJeGS2lqRf/t+ZPhnR//ffLTs8L7xw+bQk4uxINCr64eFH756+nZRLipRLERlk5pzx99jTep4Eq5ScUllW+2vqablHet3qTSkorp2mH6hS2jwz5YDpOKz+BwcT0fHU7dpQoOF1fL0eHUXO3gcHE5mfYb/6Ldfopgv7rWlf3QwX51qSj7PhoBy64d45X5GM7lk/PlqJD4kM4VghsdFWK/VojD9XFUiC5mUyHAmQfXzTOPfQV4xTys0HHMI51mhJh7N/Ix5rG60SDm3hXDX8mum7+NstZSoDM6VmHrHNRzhbQyUxRCNSNCMT4GpDVOHAmIdx2qtpWVlxyQMBwUbaOcMlIkdFfr0d3kcjMUmusQkAhVBgoVk7AFSHMMCKmUABGhdjSOESEp3yAinkMtEaFOkY4hqYO//txhqu2Dv7Xf6bshS+cLSycE8JdO4uhuba4kcDc7DydYKYB2uJLkaFg62MVIqqL96gJ0UZLKaL9w6K/txwb2V+cV+9EN6OKV4tbAfuRyFPuZv/7KfnQFw78a424/QhcnqYi/P67DZ/ORD/fKfJAfFpZOwmwNqn5JyuPxBzV1a+AKvbafMfzULLqyHzH8fn202fcwRAu3lPNiIUvHIVbuVotngeVvaSuEy1/u48tdEooB3PUuQf8v1e530iHY38JRuPY3wPmWvJrg5q8P4HCWLLh5NyRV2N/khtE9N4WbfOSaOZX33y+cm0tGWxwrpb5XfnWbi0BvGgxoy0oVI84kpcp4YesV6LzO7Cox4hH6EACvJpLZVQSBd53IFR2OMhzE4TVW2eHAsPe68D2g1yzGNvsDxmSWCtwLH/ouSeV7jS9C3507gG58GeYOSakxHRR6J9hf7PhT4wWYQIBexT+o309SDeOv+j4JmbvDnCcQfVoBOv76bTbJOqHabpQNg80XgPYnU9fjr98KQaZ+jGD/ZOrS1Ef7+V5bTAr00ILStP0B5skWJl9e9bDMJ2effVZbRIpyqgK5Ggy9uRPBFjEBH0DEhLWnIGI9Nrfk7yVrdXBa27K1QVrMFpJS2dLk5HkR6oxyXwjaZb+68rcLEghLR6VXlwHMDm9FkJZUhbFHUsVYu7Y95iZfODJXS9S2H/FHWfm7rVr8SVoUxNoqtxWOP1pZc7Ul1uPwIAWL3Jl76BE2xTVMzhWq9LoVomLCYjquAuMpyLq+ItJdOkaETovXia+SXgP6wzx5mxiAHzhz0GKPCB8f5Su38ksyJKFCstmmtLiwb1KVHugxanwBcoTKvSPbRCcOyHM2BcthWcm+LQVvRaS5I5EQls1L/i2igjc8mhQf5FQyMZKmJEnByoIT0pPT+FS+eOEDd4h6KkzrS+uv+fKGX37He9p80lDxMR3KQR2A2bVouVsRlckWYYxVqQ3FJXBC0jKJI3zmi3GatP12cNfoyHOjryBtzpzagEahWjtyjyoYTZCi1CfyCCSFbGzYSG4OR0c8R0LNOOy6kcwXDUj5u3VF9rcJo8L+DoX/SSqDv80LlpYx3410xtLtDPTOpal0IZeHOYFb5trYJlSyLBQ5PZmBRr9qG8u3FLpJHbTGVJgMeUiPNiSQPOLywsAc7u4VzTURhhHuHhz8usrk3YWzfVtpwtLpMG66Xk+i3Eosf7dlIy2pYgCGnrDbTYxozkdSQdp1ok8IMEkhjzeHPWDUnhUzQxA5Ww5nOdsFCeyB3otawFNQoLpvDDDP+OhgnpPQgPqbCMPo9tvNGvub4a5E+VsZAom/tKFggJvitediB/2epOJrV0bSwQPel1Gx34B6mzdgTdkfuDS1Ow2+Cym+LexIGPSuV9aumFKSwus2krLvFUgnQ0WSTlfmO5of+ucju+TNq7sudcTsUgDsoZwdahrmuFit5a0sSkIudcyVoVhlgnJm9xjSlW4K+c4twLzOhgVsEnOQ3CSF6DrLMr1oUr/G6HK4suI527hp3BQwG5HvU+zna8Qns/oqd16vkHjpuA44VlPJqyFuAfdIpG89J+nzZmK6wLWlypAGzHRluHyd0cijN7WP7mkvxD8yCns9sb843tDfo7OEfuxeubUBuVVBZN67Anfz7gXrr6thSJA+37MfoZzmGqCbFZqPkgLXrXpeapnWtxkgV2oRjG/jRG7UkFk9GVQ1A1Y9MY/vQurJoNzGKdsvGjptc3q70TRWgYkFjtlSq7MH2wYxtmUGD2uDK+xvX9e9G3JaOEiWmWr5u2Gtm8K4l11J3Vk2r26sd0AoN+wNs3tDmrzNBPbo3OEod5E3hWjyrQp8z0cKxvIy4T28OcgAPtVqMRSdP99XwDJHC0iH5ZPWmAEp16raLlqHp1B6eTruQqRg0V9zPQOFYfa/uQDCayPa58ysng87AF53ry4+WxAaQXYarEKSgn18rkeWv9tCvLLmiADUPk49HeAd6WSAt3Nrx9dkUeG7KrTolubGgcxKhvjeUWhCsEu5GRBhe1Mh78WCxUclJMhIoVkKkatqKRSmDa4JrAacapdc3ggsD51vtkwIuRe6TbYy6/56EnQN/R2mv4QSVI5Uecu3IQ5wty4mk/0t8khreyFptaUTxtJ+A6r5UMahL6Vb7e9/gcLxFSuhWBiNE9RZHKoEVx6FWvcABDuBlVQK6kyLUFVypgNycL7ZwLqX54PrUDM3RTlUKwP1I11L+tXRu69wPB/aYkJ4jYUThWYSibSt9WorqGfJRWIqAC/AokILJraItu5l16vk9UJ2Ox5ecM793R7UvUzhfwihfUhF7iW5qumcDZeKum4OiRenq6qDl8L3FFSizadVxvQ6UYjmbHn9j76vALmvTjokmF4qNVYyvUxB5X4wOpnOizshOlGwD+F7fvE9BfqH/AnDb4/v3z//BcT+//FPHuij5z+XSD/+Cw==);strokeColor=none;spacingTop=-3;spacingBottom=-3;spacingLeft=-3;spacingRight=-3;points=[];labelBackgroundColor=none;rounded=0;html=1;whiteSpace=wrap;sketch=0;fontSize=12;fontColor=#007FFF;" parent="2ajBnn2R3j9RgTrEd4us-372" vertex="1">
          <mxGeometry y="1" width="75" height="81" as="geometry" />
        </mxCell>
        <mxCell id="2ajBnn2R3j9RgTrEd4us-374" style="vsdxID=57;fillColor=#FFFFFF;gradientColor=none;shape=stencil(nV3bsiW1Df2aee3y/fJMyH9QAcJUCFADJMzfR65zbLnX6lbvkzdyIo3cvsjS0pL3p/jN7z9999sPn4L7/Y8vv/7rh/9+/v6Pnz7Fv30K4fMvP/3w5fMf8l+f4ref4jc//vrlh39++fXPX75/+9+/fTckx3/9+9f/jH/hrze97A7fh1ZwX9/+Eo/w9oe/v8n//PmXXT4dLp/ky9GCKe8byPdoyLejneW9P4KlUI4SzwrPX1DPCu7o2VDwx1m+HbV8QNznI9gzhOPJR7Q+IB/do0JJ9hQ1W+Eff3552xX+XaUeaS6zRx33V1iLtTZPWFI9vEvFJdXnv/X+J18OZ31hP857UuSNLVD80QrKN0shHj6cFeoRvKGQjlJRoRpfUMqRYI3akYw1KvXIHRV6s9aotGN+xFyifoRyXiIRqrhE/chzId/Xo/Qjzu+LS6rV+/FWNzf1HG9wRzT3lKiso+2XTvXnAVe/RjcHHPzh2nnANahbiUvKOMSiUM8rKPI9mOMVP4LjDUfIMN5IEyxSGceb9N+KS+rsCMl+mROq9tORYIFr04WY9suanGVfT9Q03w5XLPPN8ee3I8NyiVTB5ZKNW8/mmwfj/UiGS2x+febXpWAfhrZWc402uiPDZLVwRJis6A+Po5W9Es8DFqlq2xeXAosVxVgD+3FOutqXLYX2ZeMlsC9bKj/YT/j9YTrB3f66Oqb9eBRw2C1NZ6j21zV+Zz8dGe2no8KFIVL4+WmNaDMPRyXm6dfurOfDebAu1xXu1fXPqPmybrBlPh8JfGFcF+i9/XU/TPtV95XaB08hQgW/vixnt8zLNWtaL/pdfqnM62RZF3eCX9+mj9/NZ1z7Pp3evX36+q67Su2vE/r+p+Tmnaj26wHmk58R57WvqEc8x3+i0O35qvqN739KgXeLrA3MV1qR5T7eFmDAcsj6g/2lM+2n5cU3+w3nK62ozLIvh+z/sN/RvlwQaD8fDbdro/UqM5a4M68q0/pa9M24z2BcR70ZDxBZpjbDh8vd0iumFx9WkPg+GoFRaxgYkcLFhARYjxyuZqSeZ0SELmbEgfPKET7wwryD4zuyNt6N4LxEaB6QbTdWiDMyZj8Xu7F0MJ/nbbvbxzBLpAqfxgv7dpg37MPNPRImPo2pgf16RDIPcUM+XRvkuSDxG8mvfc+VA6eqr9tqc7QFpqq4lbVvjj7BVIlUeTKPIaHkXoHtBwgyRCpd3HNwdkceZ5rP+PUlHLhOsinAcYhQxX2a18WzjEeAGS6sB9gnolPwlt0ikWk/UTguIU6FS36kmNY1lxCnKXJIgqEQ0Q9JihkN3GJEveeUVXJHb09JWPtdc1KK+Tx5jpFuouOSHQJnp8yc5Xq4bmUZ78OV/DLZ955bl/wcr+h0jJGdXiqak0KYUld2vIYrQs3OfxulCCN5xHyurKx+/iUfcHZrIi9fK0RJF9lshtMjOrBWIuTAy4lQBTcnuXRG880M0mRu+vkWFYVkXoqigtmv6DQ4brJ+BQfcKaESKQdRikhZkJnsPQ+gnzu8GVXK1s/gHEUnwT0qh7DDaRCpCqdhHFXwD82CpzaPu45TtgCwpF5yHWVvzUecgN2mYERBZR2GJR8P4wvydp6WfLFx4h5RoT2AoPDJycaJs/qt1xQIGh9JsQ2zRvU1HnUUZg0Kh2ginSH2kTCzwKkc6bYRgOwa79GuB1Do8QvXkbyd9LN8ARyD0X8yUKx9kzRPeP+EYN0aYyrPJ6UncESg4NAR9DKRjksFSVNWmvuShUSH1/6EtI72NkdWJCD5aG24CsUeEaTU1hqPBOos/bCLWGGEQ+bllfQS2s5JBShWxt0BixxSEHiKlJ+bcjsnxiaT5DgGHLAVSsmMZ/IEpoLXwHp5s24NydESRcsfx6bgj/pjS6HO6253+OaNHQtfgAyriJSDPFakILyKeUG3a42CWaGJcNv4w5juqImzyjv744KeUr3dK4Qj0a/EcbvdE0T/IuUg1h3RheGpI1VpJX6pZjgSup4yv3QiXC2haelMCwod0qWwARQa8FmwSdiSao1+gzngOrONPUAFGCAUmuARxUK8NwogMMEi9WA+EQoyAm9Y4BCo4ikxc8P5cgSiagR8Z9/x53sKBXzXMpYmJw6+X6QS2nfg4tC+6DgIRUTHs30P6e2oBML3e674jhDcDIVGfRSz+07VLpHCBKUoY2DZrxQKjWKpecBFBz5fVBw4LxHC+pGE6oguiBTeMKUe5gUnKljAEJWAs18OxDYKuk6vFY1lPJulXK+Vkpn4Jyhu03Cz5id+6aycXrkACOJKHtEgm/RJb23FYmzE1GtpaYOC4KyKUEYoJhAOJVKIO/g5oHvruFZenbxaR/i8cKnRR6zLFmeDYKJRwU+JSgIQQ6QS+ClJsbDWJFIR/EQ2Ij2/oQPv0g2yRhptIMCyas0nLKEK+0QSBzpVQQGMuKQenEog0GOkdThZm5Riy5hfXdnPENW9Zn9yTzb7kbH1gAc78GLFh7rkrqOVhZ7ZPhwUkQp4TgNdqpJAZiMmCxgFf1T+oTYzRlRshYsJ8VAq3etKgaW0+uR4Q0RwXI+1r11n2t+KatuGBN8hUiGT/RULvVr6G0ctgP201nWzj1HWXqA07D+VPn0g77UXVdU+lYrDlffiUrGVNA13R6ViGzUVFSoVO3ZgUWd1ZgKdL7qoX3VXWocBJxzwExVg3HkQRe4cA72bKiTKI9/D/ZUUYX+VCDG4jmBe4Y0tLkDrmSDQEZUgCeeJBiI6DYkQiZK0QT7E1dJp2+KogKv1RIIRHSLhRL5uFjlxJ+Egw20EkXDdPJKA/AL0Nw4QludGcIzmg0a6ar4BAj04ULb5tk7ysu+JBSNSkMHsRC3NYDCEJgoYnBVlnChn7Ewyu0h5Ojijnbs2U74NatGsOcN8BQXxX2bYhe3en3/aqHvTWFpL+FX/lDDl3DC7O4IhpegAghAjEhSaluiWgrkhZAUwp965nGFJVZxgR7CdbJII5+GRcSo6SEwKjjZkdJqtqn08ELKTkZRHFFmy7/Wk657LaH/DpDXNxpx6uAhYYGIIIyR2nNf3gYI8nDDQqKtZUokVcdFBozbus8FKAxp1mW7mDuZEGnWBNScgNWZUsIvYElksMrjeI+gFRAqBMs9sqBTp0vIZQjLGloH3/aBQVmSuCsk45wy3PzQkXODzsypzNyIIw72HvIzgcZCPE054dVH93HkvztFD/eUsXOyallMO7/u2NrH9D3fYPMpTBw+MxwGW/bgfgPZDOxRYSnO578Qx6zPlJQReF+fbX5aHvHM6UPh9aBBiA5JemAUtxfV1f5oHYIN7X1IYQzqj4wMtsqobFYvXfhWA7xRy+JBCIV+eAAaj2wUQfnErVm0XMpkHRy5XJy6z3dOj0emtwsX17CD+GlE3JHcSHiQID3wl3nLQfO+rhtDV2MiBKCYe0TSKv7Dvq82y4V0AxsxS0SkYgFX1CBqAYEIy3CK2cXUohZP9QtxO3ykdFSls+fGdAsBQqKgxAjDjGtiC6a9LoRu+SFwVNgm5GfVdKyS4yUZ4ayFcgULoBaLcTaFXWt78U1RwLqjdcJ7CsPgwe5ISMatKQJqDrKrp0ugyWJBFRU5JqFZf1jhKZ78TFu/8TiFUVLCZm9uh3vK8iCho1QBb8zys3fqifknzPHsJfaFmysCdehewxHAqCDpmLbJrZmQRUnaNpVANT7qXbZajfMC5FWXZMn/sKPCJeEwD0oAPTAQzS+pjU+98ZPOROgt9JF70QGdwgSPxokci9YQSIi96XI9UkwHjmQunGzyqoNcD6hL0iG6YG9dYIoJuZRkzMH6JJIIN6W43tUKOWA3zenlM841BJ08gihJXrveqx+Bu5JgPw8U6s4RjhIB7hbIU0aWSlKderZGx2s5g01FEuaAz8lTnTo73qtOIQCHwM88B5sthDKHJ1d2A3YGIfVDGQVhCVLHg7hSRwoIJVrBouOfbZxQrrFL2hXyyKgIX8vZmd4iwpkykGu8UKtLyDW0eRwCvpqKXo3XnoX5EOJvssA2AuxbHaehExxtETJiGTohJZtZqp+J/zvMevhlrPy9ZzmZ8QX3qVDR+QeHpgGBNL1eG3fmEYJO4d9R3PAix9mBx5foDkW1X0R4idH+OINnMrwZcuJ/cH0iC4tg8hLNluczd/WFFuixS6e5+M2wekbLAM09ZZQkTxHu9YjzoKTjgQM21V1QXphAobebePjZrig5VrKOyt6b9rCHuPd9jcIOsDRbhJY6C4NhFKEg9YpUwb5+Uc6Q8LmyTuqhAaoPRXewaz8Fu6SbOMKLjiAr5qcbZYUcMDhxGmwWLnOP9CyZrYZVt9BpZN1xFtnj1Jpo1KGvQJxVmbPFiBicK6anuSDMSeI82uhZrZEZUo0M9WpeMmCYQF3oQN21yLLaBKYS9ZdTUWVS0lqw1NhzsrMHeAQaAy9VuXnch02p0EwcboMdJnhqXSB6Z5O6w8HJRAPBSFOy6dKgKe0zyNGJA3PDd/CqNbETkBvMtUtZDPHsJcilYJBEOhgbz3HQIozQJIfIgvsOdGj11hrag3YdaZqQunmhiUNEfZ4/3JB+wQWW0DljAbUIAoSVrj2/Z55TPT+h2yqhgFYRixToiKdAaNXojozG9OzYqBbetF11ZO7RG2XxCLDnE/RqWJUmh9I8oRKI/tGqe+5GjcxuRVXghC93ZhUdqm+nJblQq2F7Wi1kqS+04f0Jv5mU/SmVQ2XHOEPcQ/Dz989yMZo+fWwwfZqgoU+a1NSgB46GHVWYLD/toPEDwoZ2aqfj1oFCovEanjXpxvdZ09bTjmxLFE82wMe9XphBbkWzvVCJiLOIvu7ENJAbHs4vtYvSBhbKSlojZIlLISxx9Zfj4W6VXVLCZjMxXAlzHA1Ro/qLXOeqbWBrRRzZvvsbXaEOgAg24UwlgXL7YnN0Xo2O7opF3WjVf3ZvTDJRSQvQAh8qb53x0/gRbgfrlLxrUPOWpNeATVM1RDLI/FRCXVDK2fOXGYLuhrSbdc0vBgmWqPjazdcBZc56xA10b264VKr1RUB+gUfkXkV82cgR8IbATNjDyDXz4ymn5J65PsGpzjZ69HAtnjXc0+eN4o/J+dctjwXu8nohPmOirKmu8wQoLx9t3sCDBftkrUtOjNxuZRAFy+ZFM228fJeq7Gmk6nJoR73IyTw/HJUrmB5ZgP+rSPoRWjDdoAI9BPOSFp+lK4zVH8KouFs/2YA8yTOV+6eY1dfEynOjQq4iFmhrH/cYv02FT4QCvTKfYuKe0ZH4wqVJdcofY4pIqsOFLOj9Le/XQGn5+JD56a0pAVOwQn5ZqPPvh6U3KRs0Ahfng+sLC3ibn0D01wqaLzRvbNZbCwyOWjQjZEvyteGUOuCutIyypCLe0SGFYMTrgbPubjmLjCE7vUgqOkzfoyoNTMN9KEneNpWBf+k1rklvpAbmrrdO7CLlSO1HfeITaX2eMtxPxcLy1ZlxYlwrWHX6pYFejdxUtTTXYQt3Ro7k5YSdtd8o00YY7K4SY2eRWRvuIuL4EcjcbQAIkhYvZKLChRyWSZ+Oi3Qxf6OobD07bzSz29q6xFKxy7KWCVe+9UIgPb9jtKlrPxkyga+v7Vs++OONYvRzldCOXbVS+TE8vT+wqShjAHX1xxgeGhLdIp6AtOXhs/sI+Puux8Vd3p4htPfpWwGbfw4TFZmYWu8ZSsHNjUVmRtBJSOt+6+Cxd1EcrjGtvEGJs+/wQWCz0cllT7Er5ONjze/Gc5yMfqFVNfPzSQbZZq3Trx0RNeK0SYXCQoZ6CHnyKOfJ2wb0SqQGvFXrLcxDB7Ihn44hqBxy25u9PLCs4j0y7lpmM9HC4s5ZX3xVspl3L2DkRH98wTNTAuxEttoQF6UuDcYgzHBXu2LiMxngV49m4l4Z8UABoyVvkzoG2nBMifUjmPqdFbieTL1qgEDsU+qGKkVDjfBSzGWFP2t8V0sRP7zCDDQ1QPi/ePzuyoHzeADn4DlloQdIiQFTtWXqNsVyJ5h+c2T1UE/UndbORoPLvn3Szol0jvlcyeOjmqamBfh1gdJgiUKOPHiweelM4Rwv0K1rSmnU0AuXq0S94pCyDgqPftMFOvIsf10Agw1f6tYbCqctGKNgQ2QrnwBfrSboByNIPsFjy9YNtfSVTc4fdJSeZOVZ6slnGKAFLMYPTbFdWsFvyQcEhgvnQ9MO/gvMojx05tkJx+OKv0ojuvhlbx7z5U0VsoZv0HU0gVwoFtXcuoJWPyJ+dtQ1gcCOeVSv8YBfes7z8h/5o14+ff/757Te/9v8ff+RL/vT2A2Hx2/8B);strokeColor=none;spacingTop=-3;spacingBottom=-3;spacingLeft=-3;spacingRight=-3;points=[];labelBackgroundColor=none;rounded=0;html=1;whiteSpace=wrap;sketch=0;fontSize=12;fontColor=#007FFF;" parent="2ajBnn2R3j9RgTrEd4us-372" vertex="1">
          <mxGeometry width="77" height="84" as="geometry" />
        </mxCell>
        <mxCell id="2ajBnn2R3j9RgTrEd4us-375" style="vsdxID=58;fillColor=#2d5967;gradientColor=none;shape=stencil(lVNdb4MwDPw1ebUcO188d93/qFY6ojGoKN26f79kSaGJVKS9xZez73IYwbtLdzi3gvAyT+NH++2Pcyf4RRD5oWsnP4eT4L3g3Wmc2vdpvA7HVJ8PkRlPn+NXnHBLfRg7CH9S1SDoP+A1cXs/POVKxEfq23VKc2W6Jg2ac0OGGguxjtCNEqQaYJNZGXIaXCZxQowFrTJphQxtyYcplkr5oKW4lA+OpC3lo+9K//7SRR2fZxQSNEVMmyE5C86ULolBliatBUWlSaXuKktGCI2rMpKAmxmFKUuuctVSpXwwhPUnCra51K8S+s8i1dxwWLf15Ps+Lfvjfb3dAUp/Bu9/AQ==);strokeColor=none;spacingTop=-3;spacingBottom=-3;spacingLeft=-3;spacingRight=-3;points=[];labelBackgroundColor=none;rounded=0;html=1;whiteSpace=wrap;sketch=0;fontSize=12;fontColor=#007FFF;" parent="2ajBnn2R3j9RgTrEd4us-372" vertex="1">
          <mxGeometry x="41" y="45" width="26" height="26" as="geometry" />
        </mxCell>
        <mxCell id="2ajBnn2R3j9RgTrEd4us-376" style="vsdxID=59;fillColor=#2d5967;gradientColor=none;shape=stencil(hVNBcoMwDHyNrxpblm04p+k/Mg0pnlLIENKS3wciO2BPQ2/yaqXVSGuhd5f6cK4EysvQd1/Vrz8OtdBvAtG3ddX7YYqE3gu9O3V99dl31/bI7/NhZs7Rd/czdxi5rgRScxHKGwPy8XpnbuPbFVe+Jn5ce+6qOIlQ6MCOiAFTMDQiQ4oAA3QLEE3zhMJRM6QRyAZWgKwDi1vyRoKlVL8wkMk7AnKpfOkAMZVXUqbiEfhzRQs7NJRgtgZ1FkqTDeqeu4uTGrOsIA7vgChbVAkSs0WpCL26Ez6vEvWJwGZ3QlAmlUcNKlVfGUn/66Rt103BYteTbxp2+zqf23uC+Gvo/R0=);strokeColor=none;spacingTop=-3;spacingBottom=-3;spacingLeft=-3;spacingRight=-3;points=[];labelBackgroundColor=none;rounded=0;html=1;whiteSpace=wrap;sketch=0;fontSize=12;fontColor=#007FFF;" parent="2ajBnn2R3j9RgTrEd4us-372" vertex="1">
          <mxGeometry x="9" y="45" width="26" height="26" as="geometry" />
        </mxCell>
        <mxCell id="2ajBnn2R3j9RgTrEd4us-377" style="vsdxID=60;fillColor=#2d5967;gradientColor=none;shape=stencil(jVNBcsMgDHwNVw0IYcE5Tf6RaZyaqWtniNOmv68JJDHM1O1NrBbtWqyF3py7/akVKM9TGN/bL3+YOqFfBKIfujb4aa6E3gq9OY6hfQvjZTik82kfmbH6GD/jhGu65yQ08RLK7wQoKW/nXWL3fliw781fyK+XkGarPJwhdm8XMsQEpBN0xQRZA+wyK0NGgrGZpRPU8MNoRjQCramTA6rUFQGqUh0NGC7VEbgSl6XyyobK/cwO1JpF1CBdZRFBVRaJHp9+d4hgsNqPAknVgiy4Zk2eGciW8sbkpT6fh8FWz8MNOFXKL3Kk/xGkv2I3F8/EHn3fp8Av+3XCZyj9HXr7Aw==);strokeColor=none;spacingTop=-3;spacingBottom=-3;spacingLeft=-3;spacingRight=-3;points=[];labelBackgroundColor=none;rounded=0;html=1;whiteSpace=wrap;sketch=0;fontSize=12;fontColor=#007FFF;" parent="2ajBnn2R3j9RgTrEd4us-372" vertex="1">
          <mxGeometry x="41" y="12" width="26" height="26" as="geometry" />
        </mxCell>
        <mxCell id="2ajBnn2R3j9RgTrEd4us-378" style="vsdxID=61;fillColor=#2d5967;gradientColor=none;shape=stencil(nVNBcsMgDHwNVw1IEMfnNP1HpnFqpq6dIU7r/L6mApuoTQ+9iWXR7qzXinaX9nBuFOrLGIa35tMfx1bRk0L0fdsEP86Tor2i3WkIzWsYrv2Rz+dDZMbpffiIGyZ+Z7SOb1Df+FyDNd/AM7M73//B1iX15Rp4s+HLyoKlRE8QQrVlZEJGnAaXoFuCjAU0iUUMEYJNJIk8EC+WZPFCKquvfrJ4YTqL63vlnMGvAS3x5YQE+4dNBCNsVhuojbCJ4PDep3M5kSWjLdQbEdICPZCPW4R8oZXlC0fLN1p9TyS7Qf+pkmTPw9rZk+86rnx5Lzs+Q/x/0P4L);strokeColor=none;spacingTop=-3;spacingBottom=-3;spacingLeft=-3;spacingRight=-3;points=[];labelBackgroundColor=none;rounded=0;html=1;whiteSpace=wrap;sketch=0;fontSize=12;fontColor=#007FFF;" parent="2ajBnn2R3j9RgTrEd4us-372" vertex="1">
          <mxGeometry x="9" y="12" width="26" height="26" as="geometry" />
        </mxCell>
        <mxCell id="2ajBnn2R3j9RgTrEd4us-379" style="vsdxID=62;fillColor=#2d5967;gradientColor=none;shape=stencil(lZTdbsMgDIWfhlsLcAL4uuveo1LTBS1LqjTrz9uPjFVtoIFx55DPRwdjm+Hm1O6ODZP8NI3DZ3Ox+6ll+MaktH3bjHZyEcMtw81hGJuPcfju9/77uJvJOfoazrPC1efVBHJOkvz2dwBU/x68e7yz/ROuJRha8AZwHTcaOC5wwUGv84LzQLzICwIlcaECXJt1viKgZWn4Oiw1GCwQd7z4v/WCoggJpAoqHhlJvmfltJYlT7dLzFMFPJEQ2SEBOmEovq4hwEQCD9VrWeJGgUiIowrdkOuLkha7D8BLXEUNn5aPByTjPxy/THni6c4U/4Wh9PNG2ynTPoXbLIu74LE4D7br/N59/h8uWnfklzRufwA=);strokeColor=none;spacingTop=-3;spacingBottom=-3;spacingLeft=-3;spacingRight=-3;points=[];labelBackgroundColor=none;rounded=0;html=1;whiteSpace=wrap;sketch=0;fontSize=12;fontColor=#007FFF;" parent="2ajBnn2R3j9RgTrEd4us-372" vertex="1">
          <mxGeometry x="32" y="2" width="13" height="79" as="geometry" />
        </mxCell>
        <mxCell id="2ajBnn2R3j9RgTrEd4us-380" style="vsdxID=63;fillColor=#2d5967;gradientColor=none;shape=stencil(nZPbDoMgDIafhtsGCipcO/ceJuokc2LQnd5+OrJMZtSwu1K+tj+lJTzt67wrCdJ+sOZc3nUx1IQfCKJu69LqYbQIzwhPK2PLkzXXtnDnLp/IybqY25Th4eIYBxRTFNKn8wgK8u04Or7R7ZyXIJjHYwJsnUcOSeTxDEHFmwVk7AXQdVhCjAFiqP9QBYoH5E5G4SG6Gd1QvuyLTICKkMbv6Fl8bKQAN5rzkfsnvjM2oWO2y4/Gd6Yr3TRuJeb3vzswutz+8OwF);strokeColor=none;spacingTop=-3;spacingBottom=-3;spacingLeft=-3;spacingRight=-3;points=[];labelBackgroundColor=none;rounded=0;html=1;whiteSpace=wrap;sketch=0;fontSize=12;fontColor=#007FFF;" parent="2ajBnn2R3j9RgTrEd4us-372" vertex="1">
          <mxGeometry x="40" y="35" width="35" height="13" as="geometry" />
        </mxCell>
        <mxCell id="2ajBnn2R3j9RgTrEd4us-381" style="vsdxID=64;fillColor=#2d5967;gradientColor=none;shape=stencil(nZPbDoMgDIafhtsGioBcO/ceJuIkc2rUnd5+OmLmIWLcXSnfX/6UlvCozZPaEKRt11RX87RplxN+Ioi2zE1juz4iPCY8yqrGXJrqXqbuXCcDOUS36jFUeDldKEHJQYX07TJCA7Jv5uwEhS2nAgZCzwQKQW/zSgKKGR8qoIH3ARbMBIzSbVwLYDNaIoQeP2OxEQ80aH6gPFfA/O1ZuPd4X/eG9b2UR5qPCnxuVr8bUAi3efo3uzc1h8dsX9AHv6nObFG4pZjeL7egT7kN4vEH);strokeColor=none;spacingTop=-3;spacingBottom=-3;spacingLeft=-3;spacingRight=-3;points=[];labelBackgroundColor=none;rounded=0;html=1;whiteSpace=wrap;sketch=0;fontSize=12;fontColor=#007FFF;" parent="2ajBnn2R3j9RgTrEd4us-372" vertex="1">
          <mxGeometry x="1" y="35" width="35" height="13" as="geometry" />
        </mxCell>
        <mxCell id="2ajBnn2R3j9RgTrEd4us-382" value="&lt;div style=&quot;&quot;&gt;&lt;p style=&quot;align:center;margin-left:0;margin-right:0;margin-top:0px;margin-bottom:0px;text-indent:0;valign:middle;direction:ltr;&quot;&gt;&lt;font style=&quot;font-size: 12px; font-family: &amp;quot;Oracle Sans&amp;quot;; color: rgb(0, 0, 0); direction: ltr; letter-spacing: 0px; line-height: 120%; opacity: 1;&quot;&gt;Internet&lt;/font&gt;&lt;font style=&quot;font-size: 12px; font-family: &amp;quot;Oracle Sans&amp;quot;; color: rgb(0, 0, 0); direction: ltr; letter-spacing: 0px; line-height: 120%; opacity: 1;&quot;&gt; Gateway&lt;/font&gt;&lt;font style=&quot;font-size:16.93px;font-family:Oracle Sans;color:#000000;direction:ltr;letter-spacing:0px;line-height:120%;opacity:1&quot;&gt;&lt;br&gt;&lt;/font&gt;&lt;/p&gt;&lt;/div&gt;" style="verticalAlign=middle;align=center;vsdxID=66;fillColor=none;gradientColor=none;shape=stencil(nZBLDoAgDERP0z3SIyjew0SURgSD+Lu9kMZoXLhwN9O+tukAlrNpJg1SzDH4QW/URgNYgZTkjA4UkwJUgGXng+6DX1zLfmoymdXo17xh5zmRJ6Q42BWCfc2oJfdAr+Yv+AP9Cb7OJ3H/2JG1HNGz/84klThPVCc=);strokeColor=none;spacingTop=-3;spacingBottom=-3;spacingLeft=-3;spacingRight=-3;points=[];labelBackgroundColor=none;rounded=0;html=1;whiteSpace=wrap;sketch=0;fontSize=12;fontColor=#007FFF;" parent="2ajBnn2R3j9RgTrEd4us-4" vertex="1">
          <mxGeometry x="724" y="592" width="80" height="36" as="geometry" />
        </mxCell>
        <mxCell id="2ajBnn2R3j9RgTrEd4us-383" style="vsdxID=69;fillColor=none;gradientColor=none;strokeColor=none;spacingTop=-3;spacingBottom=-3;spacingLeft=-3;spacingRight=-3;points=[];labelBackgroundColor=none;rounded=0;html=1;whiteSpace=wrap;sketch=0;fontSize=14;fontColor=#007FFF;" parent="2ajBnn2R3j9RgTrEd4us-4" vertex="1">
          <mxGeometry x="728" y="266" width="73" height="84" as="geometry" />
        </mxCell>
        <mxCell id="2ajBnn2R3j9RgTrEd4us-384" style="vsdxID=70;fillColor=#FFFFFF;gradientColor=none;shape=stencil(pVnbchs3DP0avWJIgtfnNPmPTOLUnrp2xnFa6++DrZbE8qwWqidv0goQQBA4OMCe+MOP+8/f707B/Xh9ef7r7t+Hr6/3J/7jFMLD0/3dy8OrfDrxxxN/+Pb8cvfny/PPp6+X798/L5LLp7+f/1n+4e2ilxy5tGgFd7488c799/3TRfzLz5eLvL/8HCvFVd7PCu4trCKZSl5l1ketUeNVilepRN6vUjykSt0af3x42vgaI3mefL2lwOQTKuRsHi+Qb/P5VEdP6CmU3QljhBM64rg74ap4YJ/lb/zOvp/Nc6UUwHylWmfzXCgxmK+U23G8OFOqc7zktouhkKhEVPBmgNmTwwNmavMBQ1bX+wETOYhvCBTxgIFyOvY3eL2RVcFTi4aCXGFFBfbHCl4i7GcFR96w4AvlOalrIzZi7jPV+Qy19no7iLmoBJ5jLjqhzkH3SV1fH9VCpc1BFykX5qCLVDCq0EvZzjGsmWI1HWZidFhSDfwNuyqocQcz3lOBJBEplyzzEojZeJFSSmBdb2F9ktuIXzfuqEGssiCHeVdutpwC1oYkLECP4GKa7Ur5lNmugIH3lt1CEHCp7e58N13JAa5zpAq2BYgA1pmp8nF+tB6Rnh4iH8z0kGYCF8Shd6URJkcZ4iTQkwAjJTsAodn1E11P5oDJzO5GNolKBXflBIz+MqU2+yuhzAB5UkvYUuTmLASTeg0zIImCt6sPvc2EyZ8HLgxn0y4TttDGQypYzlbiORdCpGw7q6Ec/jI1wDapRGzYIsXgsNSWh7qRHlOs/uA7Kp2HPLPl7/KHBfz1I1Xf1LmKAZbGWcDfpL2Ux0FjM+0rURgETugEZKOUoAN4k9vEBiygMq6LR2a4aNkX7oLm00Dowa+cXoR2p5hn88LCOiqftTsFo3eKRpnv64bCAptzsxXEsNr5wqfndu6OhXPopft//1269nvcF3ngO7cUGlWUj9k4waZi9DYN/JQjJ5g3cs/r6wpRuctQiEY7yWmgpiqYEJKLtlQ/kj0C5y+uQ5fmZB2o0nOy7DmpIFQIx/4W1oY5FKqJIUW6AAwpUvcwJBTlQmdFQQY6V7SsNhCSDTpXMjJcQaZgYk5RGrnBvAaYUyo14J9h0HmlF06RqTs8kPzAfmVNum4/9UMqu8nj0aYDR6B0CzuHgAmviCankxGAYebhsGOUMlkg5goMR7gwkSpIWWIfPa/zq6CD9lBoZsBEpezpYAWUbhL3AA4LMQjgMA9isCGj2aiIFpEFSNOItsNxeDccboT+pjHznPeNZvg7Bo2z9hlnxTcjJYyhE+Ujd/PouN3dGHYFsczFUBBRwWL4Wzq8qMOxX991hwuO+bGf+cjfonSk+7u5ad1BYNeOZZ8PdYeQsZokSzTS3GRioxhMh6smXZ+knLJp3dmM5df6KMlchwnR9H7XR4lvTFNjJ9atZzdWUZtwFUhH6UQB8E7SMUP5SMcoJt4uOwocnwePVbxjTYPu0thVaIPgvjLSJQum1w7vgzYVP47B2KA2XmqFFjj/0nZxTZj7ju46AWi6fhwKbHQ0UXANFaw1Us7YsqVATAtJgzgUigGBwnoSWJDh22YxGx6hVYBLnszaDDQP4c7zlcXaqMFDHrhbBFpD/0I0w6zQ15xHS5kN79hsZuF8UpkMTbTpuqAfcLv11ipvxpXf3JO/U3zewi8NA8RvDDKsk99Q8EZCSUuocwb62AfB6wpZc2AoFGMUEIX8uwq4HAOFd0fptgK8DUlKrDVKVloUfCWx7EfticzvLi4YFycJHcN7onRFwaYDopB/XyEbS/H3h/W2gnzQd1rfHh4fL6/Etr/jOzB5dHl/xh9/AQ==);strokeColor=none;spacingTop=-3;spacingBottom=-3;spacingLeft=-3;spacingRight=-3;points=[];labelBackgroundColor=none;rounded=0;html=1;whiteSpace=wrap;sketch=0;fontSize=14;fontColor=#007FFF;" parent="2ajBnn2R3j9RgTrEd4us-383" vertex="1">
          <mxGeometry x="1" y="1" width="71" height="82" as="geometry" />
        </mxCell>
        <mxCell id="2ajBnn2R3j9RgTrEd4us-385" style="vsdxID=71;fillColor=#FFFFFF;gradientColor=none;shape=stencil(lVvbdh01DP2avHr5fnmG8h9dUGgWpe1KW0j+HpkcS56tGR3yVoIUaWx5a+uSh/TTt4/vv354iP7b96cvf3745/G37x8f0s8PMT5+/vjh6fE7/eshvXtIP/3+5enDH09ffnz+7fW/v76fkvNff335e/6G51e94l2oUyv6l9efJJfyfz/45VX+0+PnXT673g7yzeVgyBfnM8iXci1fPf7+EE2F0l1IR4XsRjQ9ChEtJOsTogvhoDBcf4t4aC6MXeHXH0+vdxBuKsn5cVMJqOOfIx+97zepqKWSPvDEUimZ9ovryvxNRcxXV5oyXyKYbyt8dvPVuo/BpuS8ejf9HW7gefWjtxRHtYC3nUN9eVuDix287c48K1IZAW27XMB8dD0o8zWA+bRCezdvfnqtrlYwP1yFu6pDpG4/it61fDTf6GWFo/kY1+O4sN+Si+Von3RyO9onqQHm6UAKmM98IGyefvvh9I+h0gqCFSmUYPpbXYRQiZkRg/2lqIVoIakGT6tRaAxwuLhs3lcP/GvYPr0HOK9OqJqO9pPng172O0FtOtpPyQUDHEmjjMOBkUIyL7h3eY63H6WssKgP5+HAUmEQY4eHa+BvWS/31N/hnYdsVFdwXfhLKhX9bQ7udwQXADpTXyfH7pIUumv5Sk/lmKkSfa4ZDKSCvmbPN8TOJkHw249ycBmAlqQwGHKEYFD2k4RDYJ1clf0G4EFS+BhIqsNjyBSMpvmssINUBkAnSRW4q5zXwYr5vHKEmC/rdK/td8hzpDPw8zd+sOwTiDSwX1wE8CKpYl9/cSWDfXqgGKuFP5btd0HYZb86j9c/XM6m/U0nsE7F79+kIkv1+/aJSnr7+zUWF0rAWdnP8P1EqXJQ9iuY5+C+Mk9nfbROuTwDb6DTr5C6KJmqxxdUJqBEk21gbYrk9SS/eQGrdxnsE4oGOH3K3Etx2SdsGQZvJ414RFaloFJnUM91aIebV9A6oQGoBp1hAFo40aBdO1w7Fg6kYGaCKmSY/UVaVlWenw8ZWWHh5/Yiz73YtDAraJ0PGaCdpFJU9gFZiRU2vNy60u2V+SRFh7w2zNrESj2ar8JdhRQH/Py6qNqVfS8fJvYbPK7J27OyP+BxzYIAoJWerjcfFxUnKlbpuQO0EUQEtN+YeT1vOIbnT1Km/YnQVdnvAO2UIYYy3+BtU0rCCoqkqkGLs7y3F1awUwEl9I73xTrib1BVDElFgGKiMF35603zwpT2cOnAiomiISuWQGTzxPY6nhcF9fVxEaVMAIX0vExoSUExh41MLH9jE3onULjIxPKXSpaGz8uvT7iwP+sivC6vmAPVWAwckaUwd5AURDclmDvmg6vw+aSzakc27xVxoWJioHkv9CqxlM3xqcJlQJZsOiBcSCpg6mxMZZd9KrAbEBeSSiZxIZ1Y0T4YbxJUy3jlh8zGqzZeVjhcGa8OkJ1UIAlPGTz6ourHUKR1Ida9CexhY8PLfBY2vOxnlVcntwHOHpIq+DtVRDYJ4fSwzLeqSFvmHLZxNo84IY9zS3TVjHtsi1ECSQFtY6eFABz5Ij0DgEjCNrtxMM7KWgTo4NW5p6qshyDMU+rwbPQNSINrsJsCdyiuAiVKQcR9A/A2Ssm4vBVg26Kk4GFFAAjwdmNVjNfVftGZ4eNFMH6lfXa4qMtNXhqj8qgTAPq8PaN1QGARjw7PCDFDkVQGQBDpJHS4O2jR0gNq8BAmmmIbqy36eI3ADUrXuDE3QeCBfb+q2o6UASLUbpF7y9cZCPltJDTTCdADX4lFgXAEGJidPiO6ZosRLivfYVckUPCyEhOuZ3ENe7Tc/hRnK/ak6COt2CKFfmz5KQXFbrxU3IHvCNkNIUAC8kz3DSmGYC3B3VJM2nU5kcEK3J2b8AKznm97a6h7uFqitfywZPrQDaSbRPiIdEpBcefE/dttXNKh1MxZOMs2LoFaj3JFHMrhW7xd2Zdu1Ga/QHTlxrH0ojkK2+9nB5asYqMjdpnTsP0DOQtYA8Z5hXAh2exsUPiUjBaK8aC1Sw0ad0qe6cWSz4ZDpyPV+kb5t/7+g/y9Ea+Halrf8PF7g7OOM3EhchMnRmu9uCTpcskbeJbUCCPwiPhcoQicSDwYDp1YyIvLXEVcPn5x4FbPFcZ1BoiXgDp7wRuBzhG5UES2STUmFMTu/M+xjx7xBiBo9JQjpKSTqeWceeHczkN7DHJSEcRihWo6PId0OGcMwhUlYWKvmqQ6gBz9aGDOj86ICFJIRwyapYBJf+mDuCMrKV/x9aG6u1Gm+luJWqGjMTmKxdebtHOQ91wTShwGnDAqCiyMCOFqe2GpIqItGD93uCgGbIOq5vhEf71NmbdyUygzVq66JqFXkCBNk1SACErcWbmqoMYRI2blYJ1IwK4UKQy7M+BVW4aKmAZXqDk5lVMFiNNQNCAlKFBh+iklJctX4zw6tihTvjMt6qsnJx+3TZjX9EFxUqp/1ZaHJASB0GjXG1JILNaV1aTMHy3PLR54yV4NKefIyQS+sB66TKmGaiQXNSJrzSGKBFVHd27TXIUg9w9ZIZt5LWwrJNKdUoV/knGZNMewMRmyemQk1Q3mpEGhc1K7UugVFaqNIkX3HrvDdaNQJVql91mx96iKuTnbMxInLBh0RqarLJAzKjSD6YUucXR71ncSuZei4qYQ7GrUu+MnWJt5s8gfIG3WIjHKpOimkO5MHggMMqS9UdT6VtLV5mjSbZEmGhKx0c1SgsAJXhgpdONIJlDlNyqUZiuccFOM8DGYHPCRDIejsyGzexkFwQsmoWx2lnJQfUPSKZCmZ1WIg1vusYn5JG1wsd+M+MxJ8Ov/KWShTf9Pobg7Bk7qe+y1kQ4yszlxxA1D74/nMSeZuF94k7neRE1Yp/BvlUVQXK0cjDP7FBdzH0lZy2o1qM5CN+GfFHpCBQvvasTCTSmcDdbxMviNy2A9SXkXWSrD65g7Ajip5Irv3OGCvH5Ola2tieoyylcDkKoM6UWhmAmxNuEVMjrGTnTtipmNphYEz9ZCqtVOqgPbdSRfjCtvHps9owIJOtt7QTwsPMBh5hnV0GkuiRy/ryXcUhoZGv3gbpK3f6GgeHJa69X7bBgp2NxYwgldVKsXoyiq3HhD72pQ1dUsv8qi6jNiE0/o9CBlJhQoIyceXZ/WrsDy9khvZja43BL0DmJX75mwVK1AdrzdPO6sI4+uNzCHdGWjlpIVPNy7ODXvjeDaFDiH2F2NoZeB8zZQEndxGThXlRDmqgvEVi72svtoqsAllYKX1fRpFYex1YTqinXztBqSY8r999zFWflczcHTqrL/IexmoL9VtVRyhFrhZL8yY9UaZBVP7Ae0H2RVytgvDebC3q7BCvZUcQImvgZpVu8LuTjklhWxbSG4wiSFiK2NXFkme8KFcbeBpLB4JSlsyu67zdJksDc7hkbuWSBgeOt1cCo88I8pqFLKkEmtUn+oP1JKGZrkytsgfXvpKqvtZS9Nt63dBNElG0fibYBCHPpHA7v6pGBvDfV6NjJHhyl94pJZlD0Zdtirpby5UGLCQRt6Zh3VklvbBvsyxsYWVqvipXS1ralGqzi1ml1tY6rRKm4I31PYyt+lYJ5Hkf6OdM3xOLIC89lah+sgKa9HEFZxsZO6GyPpzizDiDl6YP6zX3J0t3a18zY3NQDMq4xnL6e8wHMzJp+Af12gFFJ5k0LE25u9fsulbXmYFbxlQXW05wKa0Z0jSjjKmxSi/KXKTcGe3NEp4UdHs+F1YsGb+wRUHI+jhWIWbCQPFV5ZHfxzef3XpWaBdzL8fZOwOSm+L0//kL88/v3x06fXP1ze/z/+pTL96PWvnNO7fwE=);strokeColor=none;spacingTop=-3;spacingBottom=-3;spacingLeft=-3;spacingRight=-3;points=[];labelBackgroundColor=none;rounded=0;html=1;whiteSpace=wrap;sketch=0;fontSize=14;fontColor=#007FFF;" parent="2ajBnn2R3j9RgTrEd4us-383" vertex="1">
          <mxGeometry width="73" height="84" as="geometry" />
        </mxCell>
        <mxCell id="2ajBnn2R3j9RgTrEd4us-386" style="vsdxID=72;fillColor=#2d5967;gradientColor=none;shape=stencil(lZbbcuMgDIafxrcakDhe9/AenTbdeDZNOm56evuSBQySN05zZ8syH5J+CQa6eds+vG4GVG/H6fB38zk+HbcD3Q6I4367mcZjehrobqCb58O0+TMd3vdP+f314eR5eno5fJxW+Mr/WQvanP5C9Z0t6t/bfXbejftVZwM69v6P71NeXefvzoGj8kcxWbDF8oXZ4j3oUJyKSWtAX7wom4JpSxUTKkCzho8IKnA8RkDN+dFCcJxvFHjD+ckLOd4iGLuKN2Atx7uUMcfxIYLldG/nhMzRa1CR4wNdiN4juMjxMeU1crzTYEX0KVQv+FZxeHM5A6cAxgh4t2whoQfSAt5tscB0gKivDF4rEKnvs4pVi0akvq8PVY2H4bq6m9YmeqmnWmSIyNm9NGvkFshfKXpECMjxfTsVGFFbec7G3Jk1dNM6Y84G73g+Ifof/jNOFiLBeV/zVoFEolLATgjUL3aqscmtmnwV0tkyochTWlhZTlecTBGc5ehue51AVpsjBSnILhVa9CUE0RlpTpJoy6SPKMeCA6RVfaQ+EElPnamkPvxciHkoK7U+FKrDucMAW6a0XLLGmAREHNtvrp0FSg6ES2FHqsptE6FLaIUFcOIs6kpTh19sufl1yWukFd4raTl3v3GpyBqpbwP7t1L33Y6raXEOOw9e5L7rxhpodweoDXB+Hly4XqSHdjF5Hne7fK/pv8uLTDLlSxDd/QA=);strokeColor=none;spacingTop=-3;spacingBottom=-3;spacingLeft=-3;spacingRight=-3;points=[];labelBackgroundColor=none;rounded=0;html=1;whiteSpace=wrap;sketch=0;fontSize=14;fontColor=#007FFF;" parent="2ajBnn2R3j9RgTrEd4us-383" vertex="1">
          <mxGeometry x="2" y="14" width="69" height="68" as="geometry" />
        </mxCell>
        <mxCell id="2ajBnn2R3j9RgTrEd4us-387" style="vsdxID=73;fillColor=#2d5967;gradientColor=none;shape=stencil(pZNNDoMgEIVPw3aCQAusrb2HiVhJrRi1f7cvlDS1GDGkuwG/eXk8ZxDNx6bsFSJ4nAZzVnddTQ2iB0SI7ho16MlWiBaI5rUZ1Gkw167y5750pKsu5uYUHr6PYRCuieCnv8gwfp+Pnm51N6N3EjD/B+ewZ+s8JyBYIB9tEIEZCjxbpz9eZ+JCprhhIEWUD17LQETsMAnyVz8SpU2OywRxy2OaYD4pmcwmk5T80s3Gj12MZXxw0qZ4i7bFd11q3bZ+2+bfw/WyV341afEC);strokeColor=none;spacingTop=-3;spacingBottom=-3;spacingLeft=-3;spacingRight=-3;points=[];labelBackgroundColor=none;rounded=0;html=1;whiteSpace=wrap;sketch=0;fontSize=14;fontColor=#007FFF;" parent="2ajBnn2R3j9RgTrEd4us-383" vertex="1">
          <mxGeometry x="28" y="2" width="15" height="71" as="geometry" />
        </mxCell>
        <mxCell id="2ajBnn2R3j9RgTrEd4us-388" style="vsdxID=74;fillColor=#2d5967;gradientColor=none;shape=stencil(pZLdDoMgDIWfhlsCrZt47dx7mIiTzIlB9vf2g5Fl6uJfdldKv5P25BBMuypvJQHWWaPP8q4KWxE8EADVVNIo6yqCGcG01EaejL42RXi3uZ/01UXfvMIjcBGngJ4C9gwdEVMG784xALVqegAATYbALqEcpwHO2D/jEaNCbFlnAfg9mDuJGQCBxjAA2PSwoNFQHOfdHFmzRXm/de2PsyttWcjBCsAV39iVqq5Davv/45i6Vog4Zi8=);strokeColor=none;spacingTop=-3;spacingBottom=-3;spacingLeft=-3;spacingRight=-3;points=[];labelBackgroundColor=none;rounded=0;html=1;whiteSpace=wrap;sketch=0;fontSize=14;fontColor=#007FFF;" parent="2ajBnn2R3j9RgTrEd4us-383" vertex="1">
          <mxGeometry x="38" y="40" width="23" height="15" as="geometry" />
        </mxCell>
        <mxCell id="2ajBnn2R3j9RgTrEd4us-389" style="vsdxID=75;fillColor=#2d5967;gradientColor=none;shape=stencil(nZJNDoMgEIVPw5aMjAqsrb2HiVhJrRikf7evhLTVNmrtbhi+eXkMj2DW10WnCIPeWXNUV126muCOMKbbWlnthopgTjCrjFUHa85tGc5d4UlfnczFK9zCXCKo8EMM7qERMSpDZx/4RrcjnvMJHQMVCzT8DyeSRvizjxX665WCU2DzfMopw+laAOZxGdFYTvB0eYtPtZf9TeK41fyC+tb/X+eH4h22SjdNyOr4/jOcQysEG/MH);strokeColor=none;spacingTop=-3;spacingBottom=-3;spacingLeft=-3;spacingRight=-3;points=[];labelBackgroundColor=none;rounded=0;html=1;whiteSpace=wrap;sketch=0;fontSize=14;fontColor=#007FFF;" parent="2ajBnn2R3j9RgTrEd4us-383" vertex="1">
          <mxGeometry x="11" y="40" width="23" height="15" as="geometry" />
        </mxCell>
        <mxCell id="2ajBnn2R3j9RgTrEd4us-390" value="&lt;div style=&quot;font-size: 12px;&quot;&gt;&lt;p style=&quot;align:center;margin-left:0;margin-right:0;margin-top:0px;margin-bottom:0px;text-indent:0;valign:middle;direction:ltr;&quot;&gt;&lt;font style=&quot;font-size: 12px; font-family: &amp;quot;Oracle Sans&amp;quot;; color: rgb(0, 0, 0); direction: ltr; letter-spacing: 0px; line-height: 120%; opacity: 1;&quot;&gt;NAT&lt;/font&gt;&lt;font style=&quot;font-size: 12px; font-family: &amp;quot;Oracle Sans&amp;quot;; color: rgb(0, 0, 0); direction: ltr; letter-spacing: 0px; line-height: 120%; opacity: 1;&quot;&gt; Gateway&lt;/font&gt;&lt;font style=&quot;font-size:16.93px;font-family:Oracle Sans;color:#000000;direction:ltr;letter-spacing:0px;line-height:120%;opacity:1&quot;&gt;&lt;br&gt;&lt;/font&gt;&lt;/p&gt;&lt;/div&gt;" style="verticalAlign=middle;align=center;vsdxID=77;fillColor=none;gradientColor=none;shape=stencil(nZBLDoAgDERP0z3SIyjew0SURgSD+Lu9kMZoXLhwN9O+tukAlrNpJg1SzDH4QW/URgNYgZTkjA4UkwJUgGXng+6DX1zLfmoymdXo17xh5zmRJ6Q42BWCfc2oJfdAr+Yv+AP9Cb7OJ3H/2JG1HNGz/84klThPVCc=);strokeColor=none;spacingTop=-3;spacingBottom=-3;spacingLeft=-3;spacingRight=-3;points=[];labelBackgroundColor=none;rounded=0;html=1;whiteSpace=wrap;sketch=0;fontSize=14;fontColor=#007FFF;" parent="2ajBnn2R3j9RgTrEd4us-4" vertex="1">
          <mxGeometry x="730" y="349" width="68" height="49" as="geometry" />
        </mxCell>
        <mxCell id="2ajBnn2R3j9RgTrEd4us-391" value="NSG" style="vsdxID=108;fillColor=none;gradientColor=none;strokeColor=none;spacingTop=-3;spacingBottom=-3;spacingLeft=1;spacingRight=-3;points=[];labelBackgroundColor=none;rounded=0;html=1;whiteSpace=wrap;fontSize=12;fontColor=#000000;labelPosition=right;verticalLabelPosition=middle;align=left;verticalAlign=middle;labelBorderColor=none;" parent="2ajBnn2R3j9RgTrEd4us-4" vertex="1">
          <mxGeometry x="85" y="263" width="36" height="40" as="geometry" />
        </mxCell>
        <mxCell id="2ajBnn2R3j9RgTrEd4us-392" style="vsdxID=109;fillColor=none;gradientColor=none;strokeColor=none;spacingTop=-3;spacingBottom=-3;spacingLeft=-3;spacingRight=-3;points=[];labelBackgroundColor=none;rounded=0;html=1;whiteSpace=wrap;fontSize=12;fontColor=#007FFF;" parent="2ajBnn2R3j9RgTrEd4us-391" vertex="1">
          <mxGeometry width="36" height="40" as="geometry" />
        </mxCell>
        <mxCell id="2ajBnn2R3j9RgTrEd4us-393" style="vsdxID=110;fillColor=#FFFFFF;gradientColor=none;shape=stencil(lZPRcoIwEEW/Jq87m2wSkmdr/8OpWDKl4CC2+veGbhxZLZ36Fi7n5obLRtHq0Gz2tTJ4GIf+o/5O27FR9KKMSV1TD2nMK0VrRatdP9TvQ3/stvy830zktPrsv6YdTuyzAUKYXAbPrMQITv8or2x4Ow7s0AwYglgVS5GiAetZOhmWtAFtC1WkgGBioYglD1emCJUGdH+lo0z2CC7IZJSpTkMwMhVlZibIzjPb1M0qQlGP9kDLrEPQXvC4DGt8Zut7Op+6fPlCUzdDERwBWtlV/tnkZV/BgybZV46qvOzsYUoeerByrK6n+RX/xxQ+bciL29DvUtvynZm/v78kWeILRusL);strokeColor=none;spacingTop=-3;spacingBottom=-3;spacingLeft=-3;spacingRight=-3;points=[];labelBackgroundColor=none;rounded=0;html=1;whiteSpace=wrap;fontSize=12;fontColor=#007FFF;" parent="2ajBnn2R3j9RgTrEd4us-392" vertex="1">
          <mxGeometry x="0.5625" y="0.4761904761904762" width="34.875" height="39.04761904761905" as="geometry" />
        </mxCell>
        <mxCell id="2ajBnn2R3j9RgTrEd4us-394" style="vsdxID=111;fillColor=#FFFFFF;gradientColor=none;shape=stencil(lZXRdsIgDIafprc5hAAl1869h2fW2TOnnqqbe/vRUdqCK7Z3kH5pSPIHClpd9ptzVUhxuTanj+q73l73Bb0UUtbHfdXUV7cqaF3QandqqvfmdDtu/f68acl29Xn6av9w935atC5S/PitBIN/hlcPH+rjCGYDmiMeLYhFDhrBmLHD263x58FHl86kCYT1prvsKA1cdlRnsgrIdBSF5ICpozoTl4Bm+sBJORxNPE0rBrKpA2bTkzpUuE+PBWgZp4cKNMbplRYY4/QYpImzKwWgyoWnkE8f3QhQFEcnSGK7pnEcekBooq9xpQZ+lm4WqfIJnNW7yDTXQmliGFQ5zSPYGEcN1k7z8UHQAOnZcL56Mfx04gIepk0CJoIIhOwlk8jBgAqyCkpEIMpFRQlCx5GtCD59ZCecMplzdg3WcXjXKqXj+MygabpE/0wuh3ZPiAwokbDIiMcVXapF/3dV16mDzlaQRzmECpr+SuivEpF0b3ybUsrMm+aBn6XHBzyvdbbhEhtNklFLip2f1Pl3QI50i+FR3dWHg3+Tx9/TR9iZ/ANO618=);strokeColor=none;spacingTop=-3;spacingBottom=-3;spacingLeft=-3;spacingRight=-3;points=[];labelBackgroundColor=none;rounded=0;html=1;whiteSpace=wrap;fontSize=12;fontColor=#007FFF;" parent="2ajBnn2R3j9RgTrEd4us-392" vertex="1">
          <mxGeometry width="36" height="40" as="geometry" />
        </mxCell>
        <mxCell id="2ajBnn2R3j9RgTrEd4us-395" value="" style="vsdxID=112;fillColor=none;gradientColor=none;strokeColor=none;spacingTop=-3;spacingBottom=-3;spacingLeft=-3;spacingRight=-3;points=[];labelBackgroundColor=none;rounded=0;html=1;whiteSpace=wrap;fontSize=12;fontColor=#007FFF;" parent="2ajBnn2R3j9RgTrEd4us-391" vertex="1">
          <mxGeometry x="1.125" y="0.9523809523809524" width="33.75" height="38.095238095238095" as="geometry" />
        </mxCell>
        <mxCell id="2ajBnn2R3j9RgTrEd4us-396" style="vsdxID=113;fillColor=#aa643b;gradientColor=none;shape=stencil(lVTLcoMwDPwaXz22ZAM+p8l/ZBpSmNKQIaRN/74wfsqZAL1ZeKXVSosZ7m7N8VozELdx6D/rn/Y0NgzfGEB7aeqhHacTwz3D3bkf6o+hv19ONr4eZ+R8+uq/5woPm6fFnALi14Y2Olhk114SJAXKgoPeCtaSlwT8fh9sE5LCXajBxg+g1y4spLtGF3NdOoT7Usqsu5xQApclJa0E15QWFEek1Aa8ksCuDEdF6Y3J9NLhaBHrunbEwuCn6SEQ+FP9XJ5JevLywsKCPs8a1Gmk0iIAXyySdhrxm0yy3XtLSOpno3hJZ7tqvjRFZoOAABGGzqrCOE/MuvQ2KJZoUXJdUVojorv8jiquIGMGlm2JV5kBizWDKG4yfxSCEicI746MN0Fss0eSEMQt/ycErV4jn7e+UnqDTf6dMB3iK3tuu84+0ul9/ipPn+yLjvs/);strokeColor=none;spacingTop=-3;spacingBottom=-3;spacingLeft=-3;spacingRight=-3;points=[];labelBackgroundColor=none;rounded=0;html=1;whiteSpace=wrap;fontSize=12;fontColor=#007FFF;" parent="2ajBnn2R3j9RgTrEd4us-395" vertex="1">
          <mxGeometry width="33.75" height="38.095238095238095" as="geometry" />
        </mxCell>
        <mxCell id="2ajBnn2R3j9RgTrEd4us-397" style="vsdxID=114;fillColor=#aa643b;gradientColor=none;shape=stencil(nZBLCoAwDERPk31tjuDnHoLVBmsrtf5ub0sQRdzobiZ5ycAA5pOuRwVSTMG7Xq3UBA1YgJRktfIUogIsAfPWedV5N9uG/VgnMqnBLenDxneZEOlGip09u4pRQ/aG/gTPhFf0Gf8J/otGcdXRkjHc5n3/rC+OuHosDw==);strokeColor=none;spacingTop=-3;spacingBottom=-3;spacingLeft=-3;spacingRight=-3;points=[];labelBackgroundColor=none;rounded=0;html=1;whiteSpace=wrap;fontSize=12;fontColor=#007FFF;" parent="2ajBnn2R3j9RgTrEd4us-395" vertex="1">
          <mxGeometry x="6.75" y="10.952380952380953" width="10.125" height="1.4285714285714284" as="geometry" />
        </mxCell>
        <mxCell id="2ajBnn2R3j9RgTrEd4us-398" style="vsdxID=115;fillColor=#aa643b;gradientColor=none;shape=stencil(lZHdDoMgDIWfhluCVJy7du49TMRBxsAg7uftB2mWyTJNvDsHvjZtD4FmUt0oCWdT8O4qH7oPisCJcK6tkl6HqAi0BJrBeXnxbrY9+rFLZFI3d08dnlhXMJZqOHuh52jPyBptF2zNqRAZvQFDRctjBot6nS4OtMxbQ7lO5yOLas8Un4X/j7HjGttsFN+TD9oYTGz5/xtRfMJ4oX0D);strokeColor=none;spacingTop=-3;spacingBottom=-3;spacingLeft=-3;spacingRight=-3;points=[];labelBackgroundColor=none;rounded=0;html=1;whiteSpace=wrap;fontSize=12;fontColor=#007FFF;" parent="2ajBnn2R3j9RgTrEd4us-395" vertex="1">
          <mxGeometry x="20.25" y="9.047619047619046" width="6.75" height="4.761904761904762" as="geometry" />
        </mxCell>
        <mxCell id="2ajBnn2R3j9RgTrEd4us-399" style="vsdxID=116;fillColor=#aa643b;gradientColor=none;shape=stencil(nZBLCoAwDERPk31tjuDnHoLVBmsrtf5ub0sQRdzobiZ5ycAA5pOuRwVSTMG7Xq3UBA1YgJRktfIUogIsAfPWedV5N9uG/VgnMqnBLenDxneZEOlGip09u4pRQ/aG/gTPhFf0Gf8J/otGcdXRkjHc5n3/rC+OuHosDw==);strokeColor=none;spacingTop=-3;spacingBottom=-3;spacingLeft=-3;spacingRight=-3;points=[];labelBackgroundColor=none;rounded=0;html=1;whiteSpace=wrap;fontSize=12;fontColor=#007FFF;" parent="2ajBnn2R3j9RgTrEd4us-395" vertex="1">
          <mxGeometry x="6.75" y="17.619047619047617" width="10.125" height="1.4285714285714284" as="geometry" />
        </mxCell>
        <mxCell id="2ajBnn2R3j9RgTrEd4us-400" style="vsdxID=117;fillColor=#aa643b;gradientColor=none;shape=stencil(lVJJDoMwEHtNrqNJAgTOlP4DiVCiUoIC3X5f0qgqi4Bwm8W2LMuEp12Vt5Iw7Hqjr/Kpir4i/EQYU00ljeqHifCM8LTURl6MvjeF29vcIu100w+r8HK8GCHglsXw7S743c4OXKtmBA4pYDABcwQh1gk0gUj4quMEyCjQcB3MEpg6Cb2VRQzxhvLSM8VDmYht58vEN/V/T0/3AiHyzmWuvZP5oa7sgIfhX8lS1bVr9Pg/r/BwcvXn2Qc=);strokeColor=none;spacingTop=-3;spacingBottom=-3;spacingLeft=-3;spacingRight=-3;points=[];labelBackgroundColor=none;rounded=0;html=1;whiteSpace=wrap;fontSize=12;fontColor=#007FFF;" parent="2ajBnn2R3j9RgTrEd4us-395" vertex="1">
          <mxGeometry x="20.8125" y="16.190476190476186" width="5.625" height="4.761904761904762" as="geometry" />
        </mxCell>
        <mxCell id="2ajBnn2R3j9RgTrEd4us-401" style="vsdxID=118;fillColor=#aa643b;gradientColor=none;shape=stencil(nZBLCoAwDERPk31tjuDnHoLVBmsrtf5ub0sQRdzobiZ5ycAA5pOuRwVSTMG7Xq3UBA1YgJRktfIUogIsAfPWedV5N9uG/VgnMqnBLenDxneZEOlGip09u4pRQ/aG/gTPhFf0Gf8J/otGcdXRkjHc5n3/rC+OuHosDw==);strokeColor=none;spacingTop=-3;spacingBottom=-3;spacingLeft=-3;spacingRight=-3;points=[];labelBackgroundColor=none;rounded=0;html=1;whiteSpace=wrap;fontSize=12;fontColor=#007FFF;" parent="2ajBnn2R3j9RgTrEd4us-395" vertex="1">
          <mxGeometry x="6.75" y="24.285714285714285" width="10.125" height="1.4285714285714284" as="geometry" />
        </mxCell>
        <mxCell id="2ajBnn2R3j9RgTrEd4us-402" style="vsdxID=119;fillColor=#aa643b;gradientColor=none;shape=stencil(lZHdDoMgDIWfhluCVJy7du49TMRBxsAg7uftB2mWyTJNvDsHvjZtD4FmUt0oCWdT8O4qH7oPisCJcK6tkl6HqAi0BJrBeXnxbrY9+rFLZFI3d08dnlhXMJZqOHuh52jPyBptF2zNqRAZvQFDRctjBot6nS4OtMxbQ7lO5yOLas8Un4X/j7HjGttsFN+TD9oYTGz5/xtRfMJ4oX0D);strokeColor=none;spacingTop=-3;spacingBottom=-3;spacingLeft=-3;spacingRight=-3;points=[];labelBackgroundColor=none;rounded=0;html=1;whiteSpace=wrap;fontSize=12;fontColor=#007FFF;" parent="2ajBnn2R3j9RgTrEd4us-395" vertex="1">
          <mxGeometry x="20.25" y="22.857142857142854" width="6.75" height="4.761904761904762" as="geometry" />
        </mxCell>
        <mxCell id="2ajBnn2R3j9RgTrEd4us-403" style="vsdxID=108;fillColor=none;gradientColor=none;strokeColor=none;spacingTop=-3;spacingBottom=-3;spacingLeft=-3;spacingRight=-3;points=[];labelBackgroundColor=none;rounded=0;html=1;whiteSpace=wrap;fontSize=12;fontColor=#007FFF;" parent="2ajBnn2R3j9RgTrEd4us-4" vertex="1">
          <mxGeometry x="84.75999999999999" y="383" width="36" height="40" as="geometry" />
        </mxCell>
        <mxCell id="2ajBnn2R3j9RgTrEd4us-404" style="vsdxID=109;fillColor=none;gradientColor=none;strokeColor=none;spacingTop=-3;spacingBottom=-3;spacingLeft=-3;spacingRight=-3;points=[];labelBackgroundColor=none;rounded=0;html=1;whiteSpace=wrap;fontSize=12;fontColor=#007FFF;" parent="2ajBnn2R3j9RgTrEd4us-403" vertex="1">
          <mxGeometry width="36" height="40" as="geometry" />
        </mxCell>
        <mxCell id="2ajBnn2R3j9RgTrEd4us-405" style="vsdxID=110;fillColor=#FFFFFF;gradientColor=none;shape=stencil(lZPRcoIwEEW/Jq87m2wSkmdr/8OpWDKl4CC2+veGbhxZLZ36Fi7n5obLRtHq0Gz2tTJ4GIf+o/5O27FR9KKMSV1TD2nMK0VrRatdP9TvQ3/stvy830zktPrsv6YdTuyzAUKYXAbPrMQITv8or2x4Ow7s0AwYglgVS5GiAetZOhmWtAFtC1WkgGBioYglD1emCJUGdH+lo0z2CC7IZJSpTkMwMhVlZibIzjPb1M0qQlGP9kDLrEPQXvC4DGt8Zut7Op+6fPlCUzdDERwBWtlV/tnkZV/BgybZV46qvOzsYUoeerByrK6n+RX/xxQ+bciL29DvUtvynZm/v78kWeILRusL);strokeColor=none;spacingTop=-3;spacingBottom=-3;spacingLeft=-3;spacingRight=-3;points=[];labelBackgroundColor=none;rounded=0;html=1;whiteSpace=wrap;fontSize=12;fontColor=#007FFF;" parent="2ajBnn2R3j9RgTrEd4us-404" vertex="1">
          <mxGeometry x="0.5625" y="0.4761904761904762" width="34.875" height="39.04761904761905" as="geometry" />
        </mxCell>
        <mxCell id="2ajBnn2R3j9RgTrEd4us-406" style="vsdxID=111;fillColor=#FFFFFF;gradientColor=none;shape=stencil(lZXRdsIgDIafprc5hAAl1869h2fW2TOnnqqbe/vRUdqCK7Z3kH5pSPIHClpd9ptzVUhxuTanj+q73l73Bb0UUtbHfdXUV7cqaF3QandqqvfmdDtu/f68acl29Xn6av9w935atC5S/PitBIN/hlcPH+rjCGYDmiMeLYhFDhrBmLHD263x58FHl86kCYT1prvsKA1cdlRnsgrIdBSF5ICpozoTl4Bm+sBJORxNPE0rBrKpA2bTkzpUuE+PBWgZp4cKNMbplRYY4/QYpImzKwWgyoWnkE8f3QhQFEcnSGK7pnEcekBooq9xpQZ+lm4WqfIJnNW7yDTXQmliGFQ5zSPYGEcN1k7z8UHQAOnZcL56Mfx04gIepk0CJoIIhOwlk8jBgAqyCkpEIMpFRQlCx5GtCD59ZCecMplzdg3WcXjXKqXj+MygabpE/0wuh3ZPiAwokbDIiMcVXapF/3dV16mDzlaQRzmECpr+SuivEpF0b3ybUsrMm+aBn6XHBzyvdbbhEhtNklFLip2f1Pl3QI50i+FR3dWHg3+Tx9/TR9iZ/ANO618=);strokeColor=none;spacingTop=-3;spacingBottom=-3;spacingLeft=-3;spacingRight=-3;points=[];labelBackgroundColor=none;rounded=0;html=1;whiteSpace=wrap;fontSize=12;fontColor=#007FFF;" parent="2ajBnn2R3j9RgTrEd4us-404" vertex="1">
          <mxGeometry width="36" height="40" as="geometry" />
        </mxCell>
        <mxCell id="2ajBnn2R3j9RgTrEd4us-407" style="vsdxID=112;fillColor=none;gradientColor=none;strokeColor=none;spacingTop=-3;spacingBottom=-3;spacingLeft=-3;spacingRight=-3;points=[];labelBackgroundColor=none;rounded=0;html=1;whiteSpace=wrap;fontSize=12;fontColor=#007FFF;" parent="2ajBnn2R3j9RgTrEd4us-403" vertex="1">
          <mxGeometry x="1.125" y="0.9523809523809524" width="33.75" height="38.095238095238095" as="geometry" />
        </mxCell>
        <mxCell id="2ajBnn2R3j9RgTrEd4us-408" style="vsdxID=113;fillColor=#aa643b;gradientColor=none;shape=stencil(lVTLcoMwDPwaXz22ZAM+p8l/ZBpSmNKQIaRN/74wfsqZAL1ZeKXVSosZ7m7N8VozELdx6D/rn/Y0NgzfGEB7aeqhHacTwz3D3bkf6o+hv19ONr4eZ+R8+uq/5woPm6fFnALi14Y2Olhk114SJAXKgoPeCtaSlwT8fh9sE5LCXajBxg+g1y4spLtGF3NdOoT7Usqsu5xQApclJa0E15QWFEek1Aa8ksCuDEdF6Y3J9NLhaBHrunbEwuCn6SEQ+FP9XJ5JevLywsKCPs8a1Gmk0iIAXyySdhrxm0yy3XtLSOpno3hJZ7tqvjRFZoOAABGGzqrCOE/MuvQ2KJZoUXJdUVojorv8jiquIGMGlm2JV5kBizWDKG4yfxSCEicI746MN0Fss0eSEMQt/ycErV4jn7e+UnqDTf6dMB3iK3tuu84+0ul9/ipPn+yLjvs/);strokeColor=none;spacingTop=-3;spacingBottom=-3;spacingLeft=-3;spacingRight=-3;points=[];labelBackgroundColor=none;rounded=0;html=1;whiteSpace=wrap;fontSize=12;fontColor=#007FFF;" parent="2ajBnn2R3j9RgTrEd4us-407" vertex="1">
          <mxGeometry width="33.75" height="38.095238095238095" as="geometry" />
        </mxCell>
        <mxCell id="2ajBnn2R3j9RgTrEd4us-409" style="vsdxID=114;fillColor=#aa643b;gradientColor=none;shape=stencil(nZBLCoAwDERPk31tjuDnHoLVBmsrtf5ub0sQRdzobiZ5ycAA5pOuRwVSTMG7Xq3UBA1YgJRktfIUogIsAfPWedV5N9uG/VgnMqnBLenDxneZEOlGip09u4pRQ/aG/gTPhFf0Gf8J/otGcdXRkjHc5n3/rC+OuHosDw==);strokeColor=none;spacingTop=-3;spacingBottom=-3;spacingLeft=-3;spacingRight=-3;points=[];labelBackgroundColor=none;rounded=0;html=1;whiteSpace=wrap;fontSize=12;fontColor=#007FFF;" parent="2ajBnn2R3j9RgTrEd4us-407" vertex="1">
          <mxGeometry x="6.75" y="10.952380952380953" width="10.125" height="1.4285714285714284" as="geometry" />
        </mxCell>
        <mxCell id="2ajBnn2R3j9RgTrEd4us-410" style="vsdxID=115;fillColor=#aa643b;gradientColor=none;shape=stencil(lZHdDoMgDIWfhluCVJy7du49TMRBxsAg7uftB2mWyTJNvDsHvjZtD4FmUt0oCWdT8O4qH7oPisCJcK6tkl6HqAi0BJrBeXnxbrY9+rFLZFI3d08dnlhXMJZqOHuh52jPyBptF2zNqRAZvQFDRctjBot6nS4OtMxbQ7lO5yOLas8Un4X/j7HjGttsFN+TD9oYTGz5/xtRfMJ4oX0D);strokeColor=none;spacingTop=-3;spacingBottom=-3;spacingLeft=-3;spacingRight=-3;points=[];labelBackgroundColor=none;rounded=0;html=1;whiteSpace=wrap;fontSize=12;fontColor=#007FFF;" parent="2ajBnn2R3j9RgTrEd4us-407" vertex="1">
          <mxGeometry x="20.25" y="9.047619047619046" width="6.75" height="4.761904761904762" as="geometry" />
        </mxCell>
        <mxCell id="2ajBnn2R3j9RgTrEd4us-411" style="vsdxID=116;fillColor=#aa643b;gradientColor=none;shape=stencil(nZBLCoAwDERPk31tjuDnHoLVBmsrtf5ub0sQRdzobiZ5ycAA5pOuRwVSTMG7Xq3UBA1YgJRktfIUogIsAfPWedV5N9uG/VgnMqnBLenDxneZEOlGip09u4pRQ/aG/gTPhFf0Gf8J/otGcdXRkjHc5n3/rC+OuHosDw==);strokeColor=none;spacingTop=-3;spacingBottom=-3;spacingLeft=-3;spacingRight=-3;points=[];labelBackgroundColor=none;rounded=0;html=1;whiteSpace=wrap;fontSize=12;fontColor=#007FFF;" parent="2ajBnn2R3j9RgTrEd4us-407" vertex="1">
          <mxGeometry x="6.75" y="17.619047619047617" width="10.125" height="1.4285714285714284" as="geometry" />
        </mxCell>
        <mxCell id="2ajBnn2R3j9RgTrEd4us-412" style="vsdxID=117;fillColor=#aa643b;gradientColor=none;shape=stencil(lVJJDoMwEHtNrqNJAgTOlP4DiVCiUoIC3X5f0qgqi4Bwm8W2LMuEp12Vt5Iw7Hqjr/Kpir4i/EQYU00ljeqHifCM8LTURl6MvjeF29vcIu100w+r8HK8GCHglsXw7S743c4OXKtmBA4pYDABcwQh1gk0gUj4quMEyCjQcB3MEpg6Cb2VRQzxhvLSM8VDmYht58vEN/V/T0/3AiHyzmWuvZP5oa7sgIfhX8lS1bVr9Pg/r/BwcvXn2Qc=);strokeColor=none;spacingTop=-3;spacingBottom=-3;spacingLeft=-3;spacingRight=-3;points=[];labelBackgroundColor=none;rounded=0;html=1;whiteSpace=wrap;fontSize=12;fontColor=#007FFF;" parent="2ajBnn2R3j9RgTrEd4us-407" vertex="1">
          <mxGeometry x="20.8125" y="16.190476190476186" width="5.625" height="4.761904761904762" as="geometry" />
        </mxCell>
        <mxCell id="2ajBnn2R3j9RgTrEd4us-413" style="vsdxID=118;fillColor=#aa643b;gradientColor=none;shape=stencil(nZBLCoAwDERPk31tjuDnHoLVBmsrtf5ub0sQRdzobiZ5ycAA5pOuRwVSTMG7Xq3UBA1YgJRktfIUogIsAfPWedV5N9uG/VgnMqnBLenDxneZEOlGip09u4pRQ/aG/gTPhFf0Gf8J/otGcdXRkjHc5n3/rC+OuHosDw==);strokeColor=none;spacingTop=-3;spacingBottom=-3;spacingLeft=-3;spacingRight=-3;points=[];labelBackgroundColor=none;rounded=0;html=1;whiteSpace=wrap;fontSize=12;fontColor=#007FFF;" parent="2ajBnn2R3j9RgTrEd4us-407" vertex="1">
          <mxGeometry x="6.75" y="24.285714285714285" width="10.125" height="1.4285714285714284" as="geometry" />
        </mxCell>
        <mxCell id="2ajBnn2R3j9RgTrEd4us-414" style="vsdxID=119;fillColor=#aa643b;gradientColor=none;shape=stencil(lZHdDoMgDIWfhluCVJy7du49TMRBxsAg7uftB2mWyTJNvDsHvjZtD4FmUt0oCWdT8O4qH7oPisCJcK6tkl6HqAi0BJrBeXnxbrY9+rFLZFI3d08dnlhXMJZqOHuh52jPyBptF2zNqRAZvQFDRctjBot6nS4OtMxbQ7lO5yOLas8Un4X/j7HjGttsFN+TD9oYTGz5/xtRfMJ4oX0D);strokeColor=none;spacingTop=-3;spacingBottom=-3;spacingLeft=-3;spacingRight=-3;points=[];labelBackgroundColor=none;rounded=0;html=1;whiteSpace=wrap;fontSize=12;fontColor=#007FFF;" parent="2ajBnn2R3j9RgTrEd4us-407" vertex="1">
          <mxGeometry x="20.25" y="22.857142857142854" width="6.75" height="4.761904761904762" as="geometry" />
        </mxCell>
        <mxCell id="2ajBnn2R3j9RgTrEd4us-427" style="vsdxID=108;fillColor=none;gradientColor=none;strokeColor=none;spacingTop=-3;spacingBottom=-3;spacingLeft=-3;spacingRight=-3;points=[];labelBackgroundColor=none;rounded=0;html=1;whiteSpace=wrap;fontSize=12;fontColor=#007FFF;" parent="2ajBnn2R3j9RgTrEd4us-4" vertex="1">
          <mxGeometry x="83.99999999999999" y="606" width="36" height="40" as="geometry" />
        </mxCell>
        <mxCell id="2ajBnn2R3j9RgTrEd4us-428" style="vsdxID=109;fillColor=none;gradientColor=none;strokeColor=none;spacingTop=-3;spacingBottom=-3;spacingLeft=-3;spacingRight=-3;points=[];labelBackgroundColor=none;rounded=0;html=1;whiteSpace=wrap;fontSize=12;fontColor=#007FFF;" parent="2ajBnn2R3j9RgTrEd4us-427" vertex="1">
          <mxGeometry width="36" height="40" as="geometry" />
        </mxCell>
        <mxCell id="2ajBnn2R3j9RgTrEd4us-429" style="vsdxID=110;fillColor=#FFFFFF;gradientColor=none;shape=stencil(lZPRcoIwEEW/Jq87m2wSkmdr/8OpWDKl4CC2+veGbhxZLZ36Fi7n5obLRtHq0Gz2tTJ4GIf+o/5O27FR9KKMSV1TD2nMK0VrRatdP9TvQ3/stvy830zktPrsv6YdTuyzAUKYXAbPrMQITv8or2x4Ow7s0AwYglgVS5GiAetZOhmWtAFtC1WkgGBioYglD1emCJUGdH+lo0z2CC7IZJSpTkMwMhVlZibIzjPb1M0qQlGP9kDLrEPQXvC4DGt8Zut7Op+6fPlCUzdDERwBWtlV/tnkZV/BgybZV46qvOzsYUoeerByrK6n+RX/xxQ+bciL29DvUtvynZm/v78kWeILRusL);strokeColor=none;spacingTop=-3;spacingBottom=-3;spacingLeft=-3;spacingRight=-3;points=[];labelBackgroundColor=none;rounded=0;html=1;whiteSpace=wrap;fontSize=12;fontColor=#007FFF;" parent="2ajBnn2R3j9RgTrEd4us-428" vertex="1">
          <mxGeometry x="0.5625" y="0.4761904761904762" width="34.875" height="39.04761904761905" as="geometry" />
        </mxCell>
        <mxCell id="2ajBnn2R3j9RgTrEd4us-430" style="vsdxID=111;fillColor=#FFFFFF;gradientColor=none;shape=stencil(lZXRdsIgDIafprc5hAAl1869h2fW2TOnnqqbe/vRUdqCK7Z3kH5pSPIHClpd9ptzVUhxuTanj+q73l73Bb0UUtbHfdXUV7cqaF3QandqqvfmdDtu/f68acl29Xn6av9w935atC5S/PitBIN/hlcPH+rjCGYDmiMeLYhFDhrBmLHD263x58FHl86kCYT1prvsKA1cdlRnsgrIdBSF5ICpozoTl4Bm+sBJORxNPE0rBrKpA2bTkzpUuE+PBWgZp4cKNMbplRYY4/QYpImzKwWgyoWnkE8f3QhQFEcnSGK7pnEcekBooq9xpQZ+lm4WqfIJnNW7yDTXQmliGFQ5zSPYGEcN1k7z8UHQAOnZcL56Mfx04gIepk0CJoIIhOwlk8jBgAqyCkpEIMpFRQlCx5GtCD59ZCecMplzdg3WcXjXKqXj+MygabpE/0wuh3ZPiAwokbDIiMcVXapF/3dV16mDzlaQRzmECpr+SuivEpF0b3ybUsrMm+aBn6XHBzyvdbbhEhtNklFLip2f1Pl3QI50i+FR3dWHg3+Tx9/TR9iZ/ANO618=);strokeColor=none;spacingTop=-3;spacingBottom=-3;spacingLeft=-3;spacingRight=-3;points=[];labelBackgroundColor=none;rounded=0;html=1;whiteSpace=wrap;fontSize=12;fontColor=#007FFF;" parent="2ajBnn2R3j9RgTrEd4us-428" vertex="1">
          <mxGeometry width="36" height="40" as="geometry" />
        </mxCell>
        <mxCell id="2ajBnn2R3j9RgTrEd4us-431" style="vsdxID=112;fillColor=none;gradientColor=none;strokeColor=none;spacingTop=-3;spacingBottom=-3;spacingLeft=-3;spacingRight=-3;points=[];labelBackgroundColor=none;rounded=0;html=1;whiteSpace=wrap;fontSize=12;fontColor=#007FFF;" parent="2ajBnn2R3j9RgTrEd4us-427" vertex="1">
          <mxGeometry x="1.125" y="0.9523809523809524" width="33.75" height="38.095238095238095" as="geometry" />
        </mxCell>
        <mxCell id="2ajBnn2R3j9RgTrEd4us-432" style="vsdxID=113;fillColor=#aa643b;gradientColor=none;shape=stencil(lVTLcoMwDPwaXz22ZAM+p8l/ZBpSmNKQIaRN/74wfsqZAL1ZeKXVSosZ7m7N8VozELdx6D/rn/Y0NgzfGEB7aeqhHacTwz3D3bkf6o+hv19ONr4eZ+R8+uq/5woPm6fFnALi14Y2Olhk114SJAXKgoPeCtaSlwT8fh9sE5LCXajBxg+g1y4spLtGF3NdOoT7Usqsu5xQApclJa0E15QWFEek1Aa8ksCuDEdF6Y3J9NLhaBHrunbEwuCn6SEQ+FP9XJ5JevLywsKCPs8a1Gmk0iIAXyySdhrxm0yy3XtLSOpno3hJZ7tqvjRFZoOAABGGzqrCOE/MuvQ2KJZoUXJdUVojorv8jiquIGMGlm2JV5kBizWDKG4yfxSCEicI746MN0Fss0eSEMQt/ycErV4jn7e+UnqDTf6dMB3iK3tuu84+0ul9/ipPn+yLjvs/);strokeColor=none;spacingTop=-3;spacingBottom=-3;spacingLeft=-3;spacingRight=-3;points=[];labelBackgroundColor=none;rounded=0;html=1;whiteSpace=wrap;fontSize=12;fontColor=#007FFF;" parent="2ajBnn2R3j9RgTrEd4us-431" vertex="1">
          <mxGeometry width="33.75" height="38.095238095238095" as="geometry" />
        </mxCell>
        <mxCell id="2ajBnn2R3j9RgTrEd4us-433" style="vsdxID=114;fillColor=#aa643b;gradientColor=none;shape=stencil(nZBLCoAwDERPk31tjuDnHoLVBmsrtf5ub0sQRdzobiZ5ycAA5pOuRwVSTMG7Xq3UBA1YgJRktfIUogIsAfPWedV5N9uG/VgnMqnBLenDxneZEOlGip09u4pRQ/aG/gTPhFf0Gf8J/otGcdXRkjHc5n3/rC+OuHosDw==);strokeColor=none;spacingTop=-3;spacingBottom=-3;spacingLeft=-3;spacingRight=-3;points=[];labelBackgroundColor=none;rounded=0;html=1;whiteSpace=wrap;fontSize=12;fontColor=#007FFF;" parent="2ajBnn2R3j9RgTrEd4us-431" vertex="1">
          <mxGeometry x="6.75" y="10.952380952380953" width="10.125" height="1.4285714285714284" as="geometry" />
        </mxCell>
        <mxCell id="2ajBnn2R3j9RgTrEd4us-434" style="vsdxID=115;fillColor=#aa643b;gradientColor=none;shape=stencil(lZHdDoMgDIWfhluCVJy7du49TMRBxsAg7uftB2mWyTJNvDsHvjZtD4FmUt0oCWdT8O4qH7oPisCJcK6tkl6HqAi0BJrBeXnxbrY9+rFLZFI3d08dnlhXMJZqOHuh52jPyBptF2zNqRAZvQFDRctjBot6nS4OtMxbQ7lO5yOLas8Un4X/j7HjGttsFN+TD9oYTGz5/xtRfMJ4oX0D);strokeColor=none;spacingTop=-3;spacingBottom=-3;spacingLeft=-3;spacingRight=-3;points=[];labelBackgroundColor=none;rounded=0;html=1;whiteSpace=wrap;fontSize=12;fontColor=#007FFF;" parent="2ajBnn2R3j9RgTrEd4us-431" vertex="1">
          <mxGeometry x="20.25" y="9.047619047619046" width="6.75" height="4.761904761904762" as="geometry" />
        </mxCell>
        <mxCell id="2ajBnn2R3j9RgTrEd4us-435" style="vsdxID=116;fillColor=#aa643b;gradientColor=none;shape=stencil(nZBLCoAwDERPk31tjuDnHoLVBmsrtf5ub0sQRdzobiZ5ycAA5pOuRwVSTMG7Xq3UBA1YgJRktfIUogIsAfPWedV5N9uG/VgnMqnBLenDxneZEOlGip09u4pRQ/aG/gTPhFf0Gf8J/otGcdXRkjHc5n3/rC+OuHosDw==);strokeColor=none;spacingTop=-3;spacingBottom=-3;spacingLeft=-3;spacingRight=-3;points=[];labelBackgroundColor=none;rounded=0;html=1;whiteSpace=wrap;fontSize=12;fontColor=#007FFF;" parent="2ajBnn2R3j9RgTrEd4us-431" vertex="1">
          <mxGeometry x="6.75" y="17.619047619047617" width="10.125" height="1.4285714285714284" as="geometry" />
        </mxCell>
        <mxCell id="2ajBnn2R3j9RgTrEd4us-436" style="vsdxID=117;fillColor=#aa643b;gradientColor=none;shape=stencil(lVJJDoMwEHtNrqNJAgTOlP4DiVCiUoIC3X5f0qgqi4Bwm8W2LMuEp12Vt5Iw7Hqjr/Kpir4i/EQYU00ljeqHifCM8LTURl6MvjeF29vcIu100w+r8HK8GCHglsXw7S743c4OXKtmBA4pYDABcwQh1gk0gUj4quMEyCjQcB3MEpg6Cb2VRQzxhvLSM8VDmYht58vEN/V/T0/3AiHyzmWuvZP5oa7sgIfhX8lS1bVr9Pg/r/BwcvXn2Qc=);strokeColor=none;spacingTop=-3;spacingBottom=-3;spacingLeft=-3;spacingRight=-3;points=[];labelBackgroundColor=none;rounded=0;html=1;whiteSpace=wrap;fontSize=12;fontColor=#007FFF;" parent="2ajBnn2R3j9RgTrEd4us-431" vertex="1">
          <mxGeometry x="20.8125" y="16.190476190476186" width="5.625" height="4.761904761904762" as="geometry" />
        </mxCell>
        <mxCell id="2ajBnn2R3j9RgTrEd4us-437" style="vsdxID=118;fillColor=#aa643b;gradientColor=none;shape=stencil(nZBLCoAwDERPk31tjuDnHoLVBmsrtf5ub0sQRdzobiZ5ycAA5pOuRwVSTMG7Xq3UBA1YgJRktfIUogIsAfPWedV5N9uG/VgnMqnBLenDxneZEOlGip09u4pRQ/aG/gTPhFf0Gf8J/otGcdXRkjHc5n3/rC+OuHosDw==);strokeColor=none;spacingTop=-3;spacingBottom=-3;spacingLeft=-3;spacingRight=-3;points=[];labelBackgroundColor=none;rounded=0;html=1;whiteSpace=wrap;fontSize=12;fontColor=#007FFF;" parent="2ajBnn2R3j9RgTrEd4us-431" vertex="1">
          <mxGeometry x="6.75" y="24.285714285714285" width="10.125" height="1.4285714285714284" as="geometry" />
        </mxCell>
        <mxCell id="2ajBnn2R3j9RgTrEd4us-438" style="vsdxID=119;fillColor=#aa643b;gradientColor=none;shape=stencil(lZHdDoMgDIWfhluCVJy7du49TMRBxsAg7uftB2mWyTJNvDsHvjZtD4FmUt0oCWdT8O4qH7oPisCJcK6tkl6HqAi0BJrBeXnxbrY9+rFLZFI3d08dnlhXMJZqOHuh52jPyBptF2zNqRAZvQFDRctjBot6nS4OtMxbQ7lO5yOLas8Un4X/j7HjGttsFN+TD9oYTGz5/xtRfMJ4oX0D);strokeColor=none;spacingTop=-3;spacingBottom=-3;spacingLeft=-3;spacingRight=-3;points=[];labelBackgroundColor=none;rounded=0;html=1;whiteSpace=wrap;fontSize=12;fontColor=#007FFF;" parent="2ajBnn2R3j9RgTrEd4us-431" vertex="1">
          <mxGeometry x="20.25" y="22.857142857142854" width="6.75" height="4.761904761904762" as="geometry" />
        </mxCell>
        <mxCell id="2ajBnn2R3j9RgTrEd4us-151" style="vsdxID=4;fillColor=none;gradientColor=none;strokeColor=none;spacingTop=-3;spacingBottom=-3;spacingLeft=-3;spacingRight=-3;points=[];labelBackgroundColor=none;rounded=0;html=1;whiteSpace=wrap;fontSize=14;aspect=fixed;" parent="2ajBnn2R3j9RgTrEd4us-4" vertex="1">
          <mxGeometry x="627" y="403" width="64" height="64" as="geometry" />
        </mxCell>
        <mxCell id="2ajBnn2R3j9RgTrEd4us-152" style="vsdxID=5;fillColor=none;gradientColor=none;strokeColor=none;spacingTop=-3;spacingBottom=-3;spacingLeft=-3;spacingRight=-3;points=[];labelBackgroundColor=none;rounded=0;html=1;whiteSpace=wrap;fontSize=14;" parent="2ajBnn2R3j9RgTrEd4us-151" vertex="1">
          <mxGeometry width="64" height="64" as="geometry" />
        </mxCell>
        <mxCell id="2ajBnn2R3j9RgTrEd4us-153" style="vsdxID=6;fillColor=#FFFFFF;gradientColor=none;shape=stencil(lZPRDoIwDEW/Zq9LWUHCs+J/EAVZRCATFP/eYYdsAzW+td2922mzMtxey6zNmYBrp5pzfpfHrmS4Y0LIusyV7HTEMGW4LRqVn1TT10fK22xUjtGluY03DOSLOEajScCDCknC482rsif9oVdkCEggeIjGEfgWGASVwChMmsQchVGgqzBpEvLQfrWStUUJDuKb+QMhuHgz8ERnteDyTnDWVBzcVTiNvnFnCN/o9Cyi2CUEFy8Ab3xWB+hLfOJVxFnuI3+AnA1L6kEsG/HJB1zOxkNfBf39Hf/V62D++4WsKlod+9zfFV2iPcP0CQ==);strokeColor=none;spacingTop=-3;spacingBottom=-3;spacingLeft=-3;spacingRight=-3;points=[];labelBackgroundColor=none;rounded=0;html=1;whiteSpace=wrap;fontSize=14;" parent="2ajBnn2R3j9RgTrEd4us-152" vertex="1">
          <mxGeometry x="0.7619047619047619" y="0.7619047619047619" width="62.476190476190474" height="62.476190476190474" as="geometry" />
        </mxCell>
        <mxCell id="2ajBnn2R3j9RgTrEd4us-154" style="vsdxID=7;fillColor=#FFFFFF;gradientColor=none;shape=stencil(lZXRdoIwDIafprc9aUOBXjv3Hp6JgzMGHsQN316whbYBQe9K/INf/iSU4e6SH84Zk3Bpm/on+y+Obc7wg0lZVHnWFG1/YrhnuDvVTfbd1NfqaJ7Ph0E5nH7rv+ENncnTyFENWRJuJiI5po/Ap9F/XRuTIGyG4pG2GYKkQCetKOE4imwo4tJGOpyLbCjmEfp/XhaVD+slTPipWKX1UlwBWhFcryZXQRoTXs8rpKpF4L4cEfJSPeXtXUoJbsJjGeI6v2+ugESEtJ7I8avkOayXsNwMyuoliFmP5ayeGXyHM5co+/IYbM7su/qtnYA3WgzrlqUqtAxCv4CaRYcQQqfWFwYCss1lAUYnT0R08iZ+GxEAbKObo+RZc1S400S+sNGCeOgYKJS3zVMpSDWvrYfTv7YdWvMkpt/JqZsjV8y1CFGJnQsfnXU310a3P7iL4FSUpblH/N/pxdGHzKWD+zs=);strokeColor=none;spacingTop=-3;spacingBottom=-3;spacingLeft=-3;spacingRight=-3;points=[];labelBackgroundColor=none;rounded=0;html=1;whiteSpace=wrap;fontSize=14;" parent="2ajBnn2R3j9RgTrEd4us-152" vertex="1">
          <mxGeometry width="64" height="64" as="geometry" />
        </mxCell>
        <mxCell id="2ajBnn2R3j9RgTrEd4us-155" style="vsdxID=8;fillColor=none;gradientColor=none;strokeColor=none;spacingTop=-3;spacingBottom=-3;spacingLeft=-3;spacingRight=-3;points=[];labelBackgroundColor=none;rounded=0;html=1;whiteSpace=wrap;fontSize=14;" parent="2ajBnn2R3j9RgTrEd4us-151" vertex="1">
          <mxGeometry x="1.5238095238095237" y="1.5238095238095237" width="60.95238095238095" height="60.95238095238095" as="geometry" />
        </mxCell>
        <mxCell id="2ajBnn2R3j9RgTrEd4us-156" style="vsdxID=9;fillColor=#2d5967;gradientColor=none;shape=stencil(lZXLcoMwDEW/xlvGSDzqdZr+R6YhhSmFDCEt+ftCDViSE+Lu/LgyR9I1Vri7lIdzoUBf+q79LH6qY18qfFUAVVMWXdWPI4V7hbtT2xUfXXttjnZ+PkzKafTVfk8nDDbOpFEaT1Ggb3ZF/83erLiuGiJOIkgea9+vnT05tpswS2Oq1QOw6Q2YeEC+i+uH08dYmjGZbAtKcyjzwqmAU8Vacy5SAeSSu2RjdfOM0Qm5xFt4Fj4HIIkWxDUDlAJ0DBvFc/r7pfYIzXLcCgkc0eROwZs9oG86fOq6JxYVfs4izcVe/l5GJCRmHnIpkT7CGjUXaistpwq7UJ5ewmJkjGR1ILCI8kTSclSiCLMJCQjzCQmYVxIJuWbisEVF/euGm5T+fZP6gOYTDNJr0f6Eg1JF0D8rwKf/DhgH7jd/quravhJ0Xz4L45J9UnD/Cw==);strokeColor=none;spacingTop=-3;spacingBottom=-3;spacingLeft=-3;spacingRight=-3;points=[];labelBackgroundColor=none;rounded=0;html=1;whiteSpace=wrap;fontSize=14;" parent="2ajBnn2R3j9RgTrEd4us-155" vertex="1">
          <mxGeometry width="60.95238095238095" height="60.95238095238095" as="geometry" />
        </mxCell>
        <mxCell id="2ajBnn2R3j9RgTrEd4us-157" style="vsdxID=10;fillColor=#2d5967;gradientColor=none;shape=stencil(pZLZDsIgEEW/hldCGRfea/2PJqVCRGgodfl7IRPTxUZtfbsznDszIZdA3qqykYSzNnh3ljddBUXgQDjXVkmvQ1QECgJ57bw8edfZCuumTGRSF3dNE+7oyxhLHs4eWGN1RNRoO0BXgq8Ns+h0/SJ4LTr+AQE0245gsaF8/2H2joo/DX1n1vB+0mLDl5N+METRh6bWxmDmhu/TkMUWBhSKJw==);strokeColor=none;spacingTop=-3;spacingBottom=-3;spacingLeft=-3;spacingRight=-3;points=[];labelBackgroundColor=none;rounded=0;html=1;whiteSpace=wrap;fontSize=14;" parent="2ajBnn2R3j9RgTrEd4us-155" vertex="1">
          <mxGeometry x="16" y="6.095238095238095" width="12.952380952380953" height="12.952380952380953" as="geometry" />
        </mxCell>
        <mxCell id="2ajBnn2R3j9RgTrEd4us-158" style="vsdxID=11;fillColor=#2d5967;gradientColor=none;shape=stencil(pZLdDoIwDIWfZrfLtgrMa9T3IDJkERkZoPj2slQjDAV/7tr1O+1ZUwJxnSeVIoLVjTVHddFpkxPYECF0mSurmz4isCUQZ8aqgzVtmWJeJY500cmcXYcOdZwxpxHsijlmO0QLXQ7QH8HHhJeoP96D961FsxzLa0lldBdwr0MnpowYGerAHwqLf5ndz3iVEigPRrBcURHN9A6pDP8TuJfgvWBq6WvBgqUPBH3wvL5MFwUe77DuX2v/hJcO2xs=);strokeColor=none;spacingTop=-3;spacingBottom=-3;spacingLeft=-3;spacingRight=-3;points=[];labelBackgroundColor=none;rounded=0;html=1;whiteSpace=wrap;fontSize=14;" parent="2ajBnn2R3j9RgTrEd4us-155" vertex="1">
          <mxGeometry x="31.238095238095237" y="6.095238095238095" width="12.952380952380953" height="12.952380952380953" as="geometry" />
        </mxCell>
        <mxCell id="2ajBnn2R3j9RgTrEd4us-159" style="vsdxID=12;fillColor=#2d5967;gradientColor=none;shape=stencil(pZLLDsIgEEW/ZraEh9WyrvU/mpQKEaGh+Pp7IRNj1Vir7mYu9zBhuCCqQTe9Ak6HGPxOnUwbNYg1cG6cVsHEVIGoQVSdD2ob/MG12PdNduZq74/5hjNyrCCSZYrTCyqiICtUNghY40ZAuSBU/gdITsrle4BR+mC/9bPME9YfjdPjX9b36XHf7nsGkIr793bGWkzH+Pw5DknCKIn6Cg==);strokeColor=none;spacingTop=-3;spacingBottom=-3;spacingLeft=-3;spacingRight=-3;points=[];labelBackgroundColor=none;rounded=0;html=1;whiteSpace=wrap;fontSize=14;" parent="2ajBnn2R3j9RgTrEd4us-155" vertex="1">
          <mxGeometry x="23.619047619047617" y="22.095238095238095" width="12.952380952380953" height="6.095238095238095" as="geometry" />
        </mxCell>
        <mxCell id="2ajBnn2R3j9RgTrEd4us-160" style="vsdxID=13;fillColor=#2d5967;gradientColor=none;shape=stencil(pZLNDsIgEISfhusGdqWVc63v0aTUEmtpKP69vUVirBpr1dvsMB8hyzDK+rroNEPee2e3+mhKXzNaMUTT1toZPyhGOaOssk5vnN23ZZy7IiSD2tlDuOEUOSFBiUAhP0cHEUhdnXUEGtOOgOUCuPoPUBIkvgcE5w/x2zwrPBH9MZikIJKJB7wsMCUQ9A3wYYEzgEHcP7gyTRP7MT5/LsRgxTJRfgE=);strokeColor=none;spacingTop=-3;spacingBottom=-3;spacingLeft=-3;spacingRight=-3;points=[];labelBackgroundColor=none;rounded=0;html=1;whiteSpace=wrap;fontSize=14;" parent="2ajBnn2R3j9RgTrEd4us-155" vertex="1">
          <mxGeometry x="38.857142857142854" y="22.095238095238095" width="12.952380952380953" height="9.904761904761905" as="geometry" />
        </mxCell>
        <mxCell id="2ajBnn2R3j9RgTrEd4us-161" style="vsdxID=14;fillColor=#2d5967;gradientColor=none;shape=stencil(pZLbDsIgEES/htcN7Eorz7X+R5NSS6yloXj7e4vEWC+NVd+GYQ6bLMMo6+ui0wx5753d6qMpfc1oxRBNW2tn/KAY5Yyyyjq9cXbflvHcFSEZ1M4ewgunyAkJSgQK+Tk6iEDq6qwj0Jh2BCwXwNV/QEogaBoQnD/EkxREMj/Op6M/Bm8T3o9/WaCSIPEb4MMCZwCDuH9wZZom9mN8/1yIwYplovwC);strokeColor=none;spacingTop=-3;spacingBottom=-3;spacingLeft=-3;spacingRight=-3;points=[];labelBackgroundColor=none;rounded=0;html=1;whiteSpace=wrap;fontSize=14;" parent="2ajBnn2R3j9RgTrEd4us-155" vertex="1">
          <mxGeometry x="8.38095238095238" y="22.095238095238095" width="12.952380952380953" height="9.904761904761905" as="geometry" />
        </mxCell>
        <mxCell id="2ajBnn2R3j9RgTrEd4us-162" style="vsdxID=15;fillColor=#2d5967;gradientColor=none;shape=stencil(nVTLcoMwDPwaXzW25fhxTpP/yDSkMKWQIaSlf18Ym2LZA016s8WuVlphMdzfytO1YJLf+q59L76qc18yfGFSVk1ZdFU/nhgeGO4vbVe8de29Ofv79TQhp9NH+zllGDxvxyeK5N/+6m9Hj6yrJkJSoESQYgMMGineANoY/3rvfB3CAzTgzAgRw0EqHxpkyKJhZwMqhAQPhQ2YdIQUsKJrEJSkwkvKoOEQnKOycXFByDlAQ7WzrqlLv0KPmfr4rLaQdP7KgHEELDgIuZ46JzgB3GxZLC0ITS22DqylJgsBmJis1YKapwupxQ6Mfqbcp/vLCMkLkvPQVg1JhpMR/ijJKUgeU9pz6ri1oAV1PPZy/ocFWEUdj+eCebn4zwYzwnhYNtKlqmu/0OLv6QYbQ3774eEH);strokeColor=none;spacingTop=-3;spacingBottom=-3;spacingLeft=-3;spacingRight=-3;points=[];labelBackgroundColor=none;rounded=0;html=1;whiteSpace=wrap;fontSize=14;" parent="2ajBnn2R3j9RgTrEd4us-155" vertex="1">
          <mxGeometry x="6.095238095238095" y="28.19047619047619" width="48" height="25.142857142857142" as="geometry" />
        </mxCell>
        <mxCell id="2ajBnn2R3j9RgTrEd4us-163" value="&lt;div style=&quot;font-size: 1px&quot;&gt;&lt;p style=&quot;margin: 0px; text-indent: 0px; direction: ltr; font-size: 12px;&quot;&gt;&lt;font style=&quot;font-size: 12px; font-family: &amp;quot;Oracle Sans&amp;quot;; color: rgb(0, 0, 0); direction: ltr; letter-spacing: 0px; line-height: 120%; opacity: 1;&quot;&gt;Kubernetes&lt;br&gt;Engine&lt;/font&gt;&lt;/p&gt;&lt;/div&gt;" style="verticalAlign=middle;align=center;vsdxID=17;fillColor=none;gradientColor=none;shape=stencil(nZBLDoAgDERP0z3SIyjew0SURgSD+Lu9kMZoXLhwN9O+tukAlrNpJg1SzDH4QW/URgNYgZTkjA4UkwJUgGXng+6DX1zLfmoymdXo17xh5zmRJ6Q42BWCfc2oJfdAr+Yv+AP9Cb7OJ3H/2JG1HNGz/84klThPVCc=);strokeColor=none;spacingTop=-3;spacingBottom=-3;spacingLeft=-3;spacingRight=-3;points=[];labelBackgroundColor=none;rounded=0;html=1;whiteSpace=wrap;fontSize=14;aspect=fixed;" parent="2ajBnn2R3j9RgTrEd4us-4" vertex="1">
          <mxGeometry x="590" y="467" width="138" height="36" as="geometry" />
        </mxCell>
        <mxCell id="2ajBnn2R3j9RgTrEd4us-415" style="vsdxID=108;fillColor=none;gradientColor=none;strokeColor=none;spacingTop=-3;spacingBottom=-3;spacingLeft=-3;spacingRight=-3;points=[];labelBackgroundColor=none;rounded=0;html=1;whiteSpace=wrap;fontSize=12;fontColor=#007FFF;" parent="2ajBnn2R3j9RgTrEd4us-4" vertex="1">
          <mxGeometry x="84" y="496" width="36" height="40" as="geometry" />
        </mxCell>
        <mxCell id="2ajBnn2R3j9RgTrEd4us-416" style="vsdxID=109;fillColor=none;gradientColor=none;strokeColor=none;spacingTop=-3;spacingBottom=-3;spacingLeft=-3;spacingRight=-3;points=[];labelBackgroundColor=none;rounded=0;html=1;whiteSpace=wrap;fontSize=12;fontColor=#007FFF;" parent="2ajBnn2R3j9RgTrEd4us-415" vertex="1">
          <mxGeometry width="36" height="40" as="geometry" />
        </mxCell>
        <mxCell id="2ajBnn2R3j9RgTrEd4us-417" style="vsdxID=110;fillColor=#FFFFFF;gradientColor=none;shape=stencil(lZPRcoIwEEW/Jq87m2wSkmdr/8OpWDKl4CC2+veGbhxZLZ36Fi7n5obLRtHq0Gz2tTJ4GIf+o/5O27FR9KKMSV1TD2nMK0VrRatdP9TvQ3/stvy830zktPrsv6YdTuyzAUKYXAbPrMQITv8or2x4Ow7s0AwYglgVS5GiAetZOhmWtAFtC1WkgGBioYglD1emCJUGdH+lo0z2CC7IZJSpTkMwMhVlZibIzjPb1M0qQlGP9kDLrEPQXvC4DGt8Zut7Op+6fPlCUzdDERwBWtlV/tnkZV/BgybZV46qvOzsYUoeerByrK6n+RX/xxQ+bciL29DvUtvynZm/v78kWeILRusL);strokeColor=none;spacingTop=-3;spacingBottom=-3;spacingLeft=-3;spacingRight=-3;points=[];labelBackgroundColor=none;rounded=0;html=1;whiteSpace=wrap;fontSize=12;fontColor=#007FFF;" parent="2ajBnn2R3j9RgTrEd4us-416" vertex="1">
          <mxGeometry x="0.5625" y="0.4761904761904762" width="34.875" height="39.04761904761905" as="geometry" />
        </mxCell>
        <mxCell id="2ajBnn2R3j9RgTrEd4us-418" style="vsdxID=111;fillColor=#FFFFFF;gradientColor=none;shape=stencil(lZXRdsIgDIafprc5hAAl1869h2fW2TOnnqqbe/vRUdqCK7Z3kH5pSPIHClpd9ptzVUhxuTanj+q73l73Bb0UUtbHfdXUV7cqaF3QandqqvfmdDtu/f68acl29Xn6av9w935atC5S/PitBIN/hlcPH+rjCGYDmiMeLYhFDhrBmLHD263x58FHl86kCYT1prvsKA1cdlRnsgrIdBSF5ICpozoTl4Bm+sBJORxNPE0rBrKpA2bTkzpUuE+PBWgZp4cKNMbplRYY4/QYpImzKwWgyoWnkE8f3QhQFEcnSGK7pnEcekBooq9xpQZ+lm4WqfIJnNW7yDTXQmliGFQ5zSPYGEcN1k7z8UHQAOnZcL56Mfx04gIepk0CJoIIhOwlk8jBgAqyCkpEIMpFRQlCx5GtCD59ZCecMplzdg3WcXjXKqXj+MygabpE/0wuh3ZPiAwokbDIiMcVXapF/3dV16mDzlaQRzmECpr+SuivEpF0b3ybUsrMm+aBn6XHBzyvdbbhEhtNklFLip2f1Pl3QI50i+FR3dWHg3+Tx9/TR9iZ/ANO618=);strokeColor=none;spacingTop=-3;spacingBottom=-3;spacingLeft=-3;spacingRight=-3;points=[];labelBackgroundColor=none;rounded=0;html=1;whiteSpace=wrap;fontSize=12;fontColor=#007FFF;" parent="2ajBnn2R3j9RgTrEd4us-416" vertex="1">
          <mxGeometry width="36" height="40" as="geometry" />
        </mxCell>
        <mxCell id="2ajBnn2R3j9RgTrEd4us-419" style="vsdxID=112;fillColor=none;gradientColor=none;strokeColor=none;spacingTop=-3;spacingBottom=-3;spacingLeft=-3;spacingRight=-3;points=[];labelBackgroundColor=none;rounded=0;html=1;whiteSpace=wrap;fontSize=12;fontColor=#007FFF;" parent="2ajBnn2R3j9RgTrEd4us-415" vertex="1">
          <mxGeometry x="1.125" y="0.9523809523809524" width="33.75" height="38.095238095238095" as="geometry" />
        </mxCell>
        <mxCell id="2ajBnn2R3j9RgTrEd4us-420" style="vsdxID=113;fillColor=#aa643b;gradientColor=none;shape=stencil(lVTLcoMwDPwaXz22ZAM+p8l/ZBpSmNKQIaRN/74wfsqZAL1ZeKXVSosZ7m7N8VozELdx6D/rn/Y0NgzfGEB7aeqhHacTwz3D3bkf6o+hv19ONr4eZ+R8+uq/5woPm6fFnALi14Y2Olhk114SJAXKgoPeCtaSlwT8fh9sE5LCXajBxg+g1y4spLtGF3NdOoT7Usqsu5xQApclJa0E15QWFEek1Aa8ksCuDEdF6Y3J9NLhaBHrunbEwuCn6SEQ+FP9XJ5JevLywsKCPs8a1Gmk0iIAXyySdhrxm0yy3XtLSOpno3hJZ7tqvjRFZoOAABGGzqrCOE/MuvQ2KJZoUXJdUVojorv8jiquIGMGlm2JV5kBizWDKG4yfxSCEicI746MN0Fss0eSEMQt/ycErV4jn7e+UnqDTf6dMB3iK3tuu84+0ul9/ipPn+yLjvs/);strokeColor=none;spacingTop=-3;spacingBottom=-3;spacingLeft=-3;spacingRight=-3;points=[];labelBackgroundColor=none;rounded=0;html=1;whiteSpace=wrap;fontSize=12;fontColor=#007FFF;" parent="2ajBnn2R3j9RgTrEd4us-419" vertex="1">
          <mxGeometry width="33.75" height="38.095238095238095" as="geometry" />
        </mxCell>
        <mxCell id="2ajBnn2R3j9RgTrEd4us-421" style="vsdxID=114;fillColor=#aa643b;gradientColor=none;shape=stencil(nZBLCoAwDERPk31tjuDnHoLVBmsrtf5ub0sQRdzobiZ5ycAA5pOuRwVSTMG7Xq3UBA1YgJRktfIUogIsAfPWedV5N9uG/VgnMqnBLenDxneZEOlGip09u4pRQ/aG/gTPhFf0Gf8J/otGcdXRkjHc5n3/rC+OuHosDw==);strokeColor=none;spacingTop=-3;spacingBottom=-3;spacingLeft=-3;spacingRight=-3;points=[];labelBackgroundColor=none;rounded=0;html=1;whiteSpace=wrap;fontSize=12;fontColor=#007FFF;" parent="2ajBnn2R3j9RgTrEd4us-419" vertex="1">
          <mxGeometry x="6.75" y="10.952380952380953" width="10.125" height="1.4285714285714284" as="geometry" />
        </mxCell>
        <mxCell id="2ajBnn2R3j9RgTrEd4us-422" style="vsdxID=115;fillColor=#aa643b;gradientColor=none;shape=stencil(lZHdDoMgDIWfhluCVJy7du49TMRBxsAg7uftB2mWyTJNvDsHvjZtD4FmUt0oCWdT8O4qH7oPisCJcK6tkl6HqAi0BJrBeXnxbrY9+rFLZFI3d08dnlhXMJZqOHuh52jPyBptF2zNqRAZvQFDRctjBot6nS4OtMxbQ7lO5yOLas8Un4X/j7HjGttsFN+TD9oYTGz5/xtRfMJ4oX0D);strokeColor=none;spacingTop=-3;spacingBottom=-3;spacingLeft=-3;spacingRight=-3;points=[];labelBackgroundColor=none;rounded=0;html=1;whiteSpace=wrap;fontSize=12;fontColor=#007FFF;" parent="2ajBnn2R3j9RgTrEd4us-419" vertex="1">
          <mxGeometry x="20.25" y="9.047619047619046" width="6.75" height="4.761904761904762" as="geometry" />
        </mxCell>
        <mxCell id="2ajBnn2R3j9RgTrEd4us-423" style="vsdxID=116;fillColor=#aa643b;gradientColor=none;shape=stencil(nZBLCoAwDERPk31tjuDnHoLVBmsrtf5ub0sQRdzobiZ5ycAA5pOuRwVSTMG7Xq3UBA1YgJRktfIUogIsAfPWedV5N9uG/VgnMqnBLenDxneZEOlGip09u4pRQ/aG/gTPhFf0Gf8J/otGcdXRkjHc5n3/rC+OuHosDw==);strokeColor=none;spacingTop=-3;spacingBottom=-3;spacingLeft=-3;spacingRight=-3;points=[];labelBackgroundColor=none;rounded=0;html=1;whiteSpace=wrap;fontSize=12;fontColor=#007FFF;" parent="2ajBnn2R3j9RgTrEd4us-419" vertex="1">
          <mxGeometry x="6.75" y="17.619047619047617" width="10.125" height="1.4285714285714284" as="geometry" />
        </mxCell>
        <mxCell id="2ajBnn2R3j9RgTrEd4us-424" style="vsdxID=117;fillColor=#aa643b;gradientColor=none;shape=stencil(lVJJDoMwEHtNrqNJAgTOlP4DiVCiUoIC3X5f0qgqi4Bwm8W2LMuEp12Vt5Iw7Hqjr/Kpir4i/EQYU00ljeqHifCM8LTURl6MvjeF29vcIu100w+r8HK8GCHglsXw7S743c4OXKtmBA4pYDABcwQh1gk0gUj4quMEyCjQcB3MEpg6Cb2VRQzxhvLSM8VDmYht58vEN/V/T0/3AiHyzmWuvZP5oa7sgIfhX8lS1bVr9Pg/r/BwcvXn2Qc=);strokeColor=none;spacingTop=-3;spacingBottom=-3;spacingLeft=-3;spacingRight=-3;points=[];labelBackgroundColor=none;rounded=0;html=1;whiteSpace=wrap;fontSize=12;fontColor=#007FFF;" parent="2ajBnn2R3j9RgTrEd4us-419" vertex="1">
          <mxGeometry x="20.8125" y="16.190476190476186" width="5.625" height="4.761904761904762" as="geometry" />
        </mxCell>
        <mxCell id="2ajBnn2R3j9RgTrEd4us-425" style="vsdxID=118;fillColor=#aa643b;gradientColor=none;shape=stencil(nZBLCoAwDERPk31tjuDnHoLVBmsrtf5ub0sQRdzobiZ5ycAA5pOuRwVSTMG7Xq3UBA1YgJRktfIUogIsAfPWedV5N9uG/VgnMqnBLenDxneZEOlGip09u4pRQ/aG/gTPhFf0Gf8J/otGcdXRkjHc5n3/rC+OuHosDw==);strokeColor=none;spacingTop=-3;spacingBottom=-3;spacingLeft=-3;spacingRight=-3;points=[];labelBackgroundColor=none;rounded=0;html=1;whiteSpace=wrap;fontSize=12;fontColor=#007FFF;" parent="2ajBnn2R3j9RgTrEd4us-419" vertex="1">
          <mxGeometry x="6.75" y="24.285714285714285" width="10.125" height="1.4285714285714284" as="geometry" />
        </mxCell>
        <mxCell id="2ajBnn2R3j9RgTrEd4us-426" style="vsdxID=119;fillColor=#aa643b;gradientColor=none;shape=stencil(lZHdDoMgDIWfhluCVJy7du49TMRBxsAg7uftB2mWyTJNvDsHvjZtD4FmUt0oCWdT8O4qH7oPisCJcK6tkl6HqAi0BJrBeXnxbrY9+rFLZFI3d08dnlhXMJZqOHuh52jPyBptF2zNqRAZvQFDRctjBot6nS4OtMxbQ7lO5yOLas8Un4X/j7HjGttsFN+TD9oYTGz5/xtRfMJ4oX0D);strokeColor=none;spacingTop=-3;spacingBottom=-3;spacingLeft=-3;spacingRight=-3;points=[];labelBackgroundColor=none;rounded=0;html=1;whiteSpace=wrap;fontSize=12;fontColor=#007FFF;" parent="2ajBnn2R3j9RgTrEd4us-419" vertex="1">
          <mxGeometry x="20.25" y="22.857142857142854" width="6.75" height="4.761904761904762" as="geometry" />
        </mxCell>
      </root>
    </mxGraphModel>
  </diagram>
</mxfile>
